<svg width="25" height="24" viewBox="0 0 25 24" fill="none" xmlns="http://www.w3.org/2000/svg">
<path d="M12.5 0.333984C6.06004 0.333984 0.833374 5.56065 0.833374 12.0007C0.833374 18.4407 6.06004 23.6673 12.5 23.6673C18.94 23.6673 24.1667 18.4407 24.1667 12.0007C24.1667 5.56065 18.94 0.333984 12.5 0.333984ZM12.5 3.83398C14.4367 3.83398 16 5.39732 16 7.33398C16 9.27065 14.4367 10.834 12.5 10.834C10.5634 10.834 9.00004 9.27065 9.00004 7.33398C9.00004 5.39732 10.5634 3.83398 12.5 3.83398ZM12.5 20.4007C9.58337 20.4007 7.00504 18.9073 5.50004 16.644C5.53504 14.3223 10.1667 13.0507 12.5 13.0507C14.8217 13.0507 19.465 14.3223 19.5 16.644C17.995 18.9073 15.4167 20.4007 12.5 20.4007Z" fill="#646464"/>
</svg>