<svg width="36" height="36" viewBox="0 0 36 36" fill="none" xmlns="http://www.w3.org/2000/svg">
<path d="M4.5 16.5H16.5V4.5H4.5V16.5ZM7.5 7.5H13.5V13.5H7.5V7.5Z" fill="#00893D"/>
<path d="M4.5 31.5H16.5V19.5H4.5V31.5ZM7.5 22.5H13.5V28.5H7.5V22.5Z" fill="#00893D"/>
<path d="M19.5 4.5V16.5H31.5V4.5H19.5ZM28.5 13.5H22.5V7.5H28.5V13.5Z" fill="#00893D"/>
<path d="M31.5 28.5H28.5V31.5H31.5V28.5Z" fill="#00893D"/>
<path d="M22.5 19.5H19.5V22.5H22.5V19.5Z" fill="#00893D"/>
<path d="M25.5 22.5H22.5V25.5H25.5V22.5Z" fill="#00893D"/>
<path d="M22.5 25.5H19.5V28.5H22.5V25.5Z" fill="#00893D"/>
<path d="M25.5 28.5H22.5V31.5H25.5V28.5Z" fill="#00893D"/>
<path d="M28.5 25.5H25.5V28.5H28.5V25.5Z" fill="#00893D"/>
<path d="M28.5 19.5H25.5V22.5H28.5V19.5Z" fill="#00893D"/>
<path d="M31.5 22.5H28.5V25.5H31.5V22.5Z" fill="#00893D"/>
</svg>
