<svg width="60" height="60" viewBox="0 0 60 60" fill="none" xmlns="http://www.w3.org/2000/svg">
<path fill-rule="evenodd" clip-rule="evenodd" d="M24.246 43.066C24.9534 44.0901 25.3678 45.3321 25.3678 46.6709C25.3678 46.7503 25.3663 46.8294 25.3635 46.9081L27.4324 46.3503C26.7698 45.193 26.257 43.9389 25.9204 42.6146L24.246 43.066ZM14.977 41.7731C16.0059 40.9232 17.3071 40.3912 18.7302 40.3277L12.048 15.3874C11.9262 14.9326 11.6479 14.5352 11.262 14.2654L6.46998 10.9154C6.03502 10.6115 5.49715 10.4928 4.97467 10.5854C4.45219 10.6781 3.98792 10.9745 3.68398 11.4094C3.38004 11.8444 3.26134 12.3823 3.35398 12.9047C3.44662 13.4272 3.74302 13.8915 4.17798 14.1954L8.37198 17.1294L14.977 41.7731ZM24.3026 46.6711C24.3026 49.5896 21.9367 51.9556 19.0182 51.9556C16.0997 51.9556 13.7338 49.5896 13.7338 46.6711C13.7338 43.7526 16.0997 41.3867 19.0182 41.3867C21.9367 41.3867 24.3026 43.7526 24.3026 46.6711Z" fill="#646464"/>
<g filter="url(#filter0_d_130956_22246)">
<circle cx="19.0182" cy="46.6714" r="2.23389" fill="white"/>
</g>
<path fill-rule="evenodd" clip-rule="evenodd" d="M18.166 23.9694L16.142 16.4194C16.0052 15.9073 16.0772 15.3618 16.3424 14.9028C16.6075 14.4437 17.044 14.1087 17.556 13.9714L39.432 8.1114C39.9441 7.97388 40.4899 8.04537 40.9494 8.31016C41.4088 8.57494 41.7443 9.01133 41.882 9.5234L43.906 17.0754C43.9741 17.3291 43.9915 17.5938 43.9573 17.8542C43.923 18.1146 43.8378 18.3658 43.7065 18.5933C43.5752 18.8208 43.4004 19.0202 43.192 19.1802C42.9836 19.3401 42.7457 19.4574 42.492 19.5254L20.614 25.3854C20.1019 25.5222 19.5564 25.4502 19.0974 25.185C18.6383 24.9199 18.3034 24.4834 18.166 23.9714V23.9694ZM22.004 38.2934L19.98 30.7394C19.912 30.4857 19.8945 30.2211 19.9288 29.9606C19.963 29.7002 20.0482 29.449 20.1795 29.2215C20.3108 28.994 20.4857 28.7946 20.694 28.6346C20.9024 28.4747 21.1403 28.3574 21.394 28.2894L43.27 22.4294C43.5237 22.3613 43.7884 22.3439 44.0488 22.3782C44.3093 22.4124 44.5604 22.4976 44.7879 22.6289C45.0154 22.7602 45.2148 22.935 45.3748 23.1434C45.5347 23.3518 45.652 23.5897 45.72 23.8434L46.5813 27.0572C45.888 26.959 45.1794 26.9082 44.459 26.9082C37.4389 26.9082 31.5452 31.7307 29.9099 38.2435L24.452 39.7054C23.9399 39.8422 23.3944 39.7702 22.9354 39.505C22.4763 39.2399 22.1414 38.8034 22.004 38.2914V38.2934Z" fill="#00893D"/>
<circle cx="44.4589" cy="41.9111" r="12" fill="#646464"/>
<path fill-rule="evenodd" clip-rule="evenodd" d="M43.162 36.0754L43.162 38.6691L46.4067 38.6691C48.9121 38.6691 50.943 40.7051 50.943 43.208C50.9435 43.8039 50.8265 44.3942 50.5988 44.9449C50.371 45.4957 50.0369 45.9961 49.6156 46.4176C49.1943 46.8392 48.6941 47.1735 48.1434 47.4016C47.5928 47.6297 47.0027 47.747 46.4067 47.7468L43.162 47.7468L43.162 47.7468C42.8181 47.7468 42.4882 47.6102 42.245 47.367C42.0018 47.1238 41.8652 46.7939 41.8652 46.45C41.8652 46.106 42.0018 45.7762 42.245 45.533C42.4882 45.2898 42.8181 45.1531 43.162 45.1531C43.1654 45.1531 43.1687 45.1532 43.172 45.1532L46.408 45.1532C46.9232 45.1522 47.417 44.9468 47.781 44.5821C48.1449 44.2174 48.3493 43.7232 48.3493 43.208C48.3493 42.1264 47.4805 41.2627 46.408 41.2627L43.162 41.2627L43.162 43.8564L37.9748 39.9659L43.162 36.0754Z" fill="white"/>
<defs>
<filter id="filter0_d_130956_22246" x="15.7843" y="43.4375" width="10.4678" height="10.4678" filterUnits="userSpaceOnUse" color-interpolation-filters="sRGB">
<feFlood flood-opacity="0" result="BackgroundImageFix"/>
<feColorMatrix in="SourceAlpha" type="matrix" values="0 0 0 0 0 0 0 0 0 0 0 0 0 0 0 0 0 0 127 0" result="hardAlpha"/>
<feOffset dx="2" dy="2"/>
<feGaussianBlur stdDeviation="1.5"/>
<feComposite in2="hardAlpha" operator="out"/>
<feColorMatrix type="matrix" values="0 0 0 0 0.311198 0 0 0 0 0.3125 0 0 0 0 0.311778 0 0 0 1 0"/>
<feBlend mode="normal" in2="BackgroundImageFix" result="effect1_dropShadow_130956_22246"/>
<feBlend mode="normal" in="SourceGraphic" in2="effect1_dropShadow_130956_22246" result="shape"/>
</filter>
</defs>
</svg>
