<svg width="140" height="116" viewBox="0 0 140 116" fill="none" xmlns="http://www.w3.org/2000/svg">
<g opacity="0.5">
<path d="M105.859 9.41821H36.1413C30.5404 9.41821 26 13.4312 26 18.3814V106.455C26 111.405 30.5404 115.418 36.1413 115.418H105.859C111.46 115.418 116 111.405 116 106.455V18.3814C116 13.4312 111.46 9.41821 105.859 9.41821Z" fill="#CED5DA"/>
<path d="M98.0222 55.4182H44.3271C42.519 55.4182 41.0532 56.8786 41.0532 58.6801V58.6906C41.0532 60.4921 42.519 61.9525 44.3271 61.9525H98.0222C99.8303 61.9525 101.296 60.4921 101.296 58.6906V58.6801C101.296 56.8786 99.8303 55.4182 98.0222 55.4182Z" fill="white"/>
<path d="M97.5326 71.9525H44.2989C42.5064 71.9525 41.0532 73.3674 41.0532 75.1127V75.1229C41.0532 76.8682 42.5064 78.283 44.2989 78.283H97.5326C99.3251 78.283 100.778 76.8682 100.778 75.1229V75.1127C100.778 73.3674 99.3251 71.9525 97.5326 71.9525Z" fill="white"/>
<path d="M97.5326 88.283H44.2989C42.5064 88.283 41.0532 89.6979 41.0532 91.4432V91.4534C41.0532 93.1987 42.5064 94.6135 44.2989 94.6135H97.5326C99.3251 94.6135 100.778 93.1987 100.778 91.4534V91.4432C100.778 89.6979 99.3251 88.283 97.5326 88.283Z" fill="white"/>
<path d="M63.9598 24.194H48.2687C44.793 24.194 41.9753 27.0014 41.9753 30.4644V34.803C41.9753 38.2661 44.793 41.0734 48.2687 41.0734H63.9598C67.4356 41.0734 70.2532 38.2661 70.2532 34.803V30.4644C70.2532 27.0014 67.4356 24.194 63.9598 24.194Z" fill="white"/>
<path d="M44.9471 0.418213H3.49729C1.56579 0.418213 0 1.97828 0 3.90272V23.3139C0 25.2384 1.56579 26.7984 3.49729 26.7984H44.9471C46.8785 26.7984 48.4443 25.2384 48.4443 23.3139V3.90272C48.4443 1.97828 46.8785 0.418213 44.9471 0.418213Z" fill="#C1C7CA"/>
<path d="M10.23 17.6116C12.4505 17.6116 14.2507 15.8181 14.2507 13.6056C14.2507 11.3931 12.4505 9.59955 10.23 9.59955C8.00937 9.59955 6.20923 11.3931 6.20923 13.6056C6.20923 15.8181 8.00937 17.6116 10.23 17.6116Z" fill="white"/>
<path d="M24.599 17.6118C26.8196 17.6118 28.6197 15.8182 28.6197 13.6058C28.6197 11.3933 26.8196 9.59973 24.599 9.59973C22.3784 9.59973 20.5782 11.3933 20.5782 13.6058C20.5782 15.8182 22.3784 17.6118 24.599 17.6118Z" fill="white"/>
<path d="M38.9677 17.6118C41.1883 17.6118 42.9885 15.8182 42.9885 13.6058C42.9885 11.3933 41.1883 9.59973 38.9677 9.59973C36.7472 9.59973 34.947 11.3933 34.947 13.6058C34.947 15.8182 36.7472 17.6118 38.9677 17.6118Z" fill="white"/>
<path d="M114.895 85.0572L107.763 92.8909L127.866 111.058L134.997 103.225L114.895 85.0572Z" fill="#C1C7CA"/>
<path fill-rule="evenodd" clip-rule="evenodd" d="M122.565 72.092C122.565 88.4804 109.231 101.766 92.7826 101.766C76.3341 101.766 63 88.4804 63 72.092C63 55.7036 76.3341 42.4182 92.7826 42.4182C109.231 42.4182 122.565 55.7036 122.565 72.092ZM115.828 72.3441C115.828 85.2288 105.344 95.6739 92.4123 95.6739C79.4803 95.6739 68.9969 85.2288 68.9969 72.3441C68.9969 59.4595 79.4803 49.0144 92.4123 49.0144C105.344 49.0144 115.828 59.4595 115.828 72.3441Z" fill="#C1C7CA"/>
<path d="M92.3853 95.6203C105.302 95.6203 115.774 85.1873 115.774 72.3175C115.774 59.4476 105.302 49.0146 92.3853 49.0146C79.4683 49.0146 68.9969 59.4476 68.9969 72.3175C68.9969 85.1873 79.4683 95.6203 92.3853 95.6203Z" fill="#F7F7F7" fill-opacity="0.5"/>
<path d="M127.864 111.06L134.996 103.226L136.07 104.197C137.112 105.138 137.736 106.454 137.805 107.855C137.873 109.255 137.381 110.625 136.435 111.663C135.49 112.702 134.169 113.324 132.764 113.392C131.358 113.46 129.983 112.969 128.941 112.027L127.867 111.057L127.864 111.06Z" fill="#C1C7CA"/>
</g>
</svg>
