<svg width="32" height="32" viewBox="0 0 32 32" fill="none" xmlns="http://www.w3.org/2000/svg">
<path d="M26.5708 11.5568L21.7708 13.7968L18.6641 10.6901V8.82346L21.7708 5.71679L26.5708 7.95679C27.0774 8.19679 27.6641 7.97013 27.9041 7.47679C28.1441 6.97013 27.9174 6.38346 27.4241 6.14346L22.1974 3.70346C21.6908 3.46346 21.0908 3.57013 20.6908 3.97013L18.3708 6.29013C18.1308 5.97013 17.7574 5.75679 17.3308 5.75679C16.5974 5.75679 15.9974 6.35679 15.9974 7.09013V8.42346H11.7574C11.1974 6.87679 9.73075 5.75679 7.99742 5.75679C5.78409 5.75679 3.99742 7.54346 3.99742 9.75679C3.99742 11.2235 4.79742 12.4901 5.97075 13.1968L9.43742 24.4235H7.99742C6.53075 24.4235 5.33075 25.6235 5.33075 27.0901V28.4235H22.6641V27.0901C22.6641 25.6235 21.4641 24.4235 19.9974 24.4235H17.8374L11.2108 12.1168C11.4374 11.7968 11.6241 11.4635 11.7574 11.0901H15.9974V12.4235C15.9974 13.1568 16.5974 13.7568 17.3308 13.7568C17.7574 13.7568 18.1308 13.5435 18.3708 13.2235L20.6908 15.5435C21.0908 15.9435 21.6908 16.0501 22.1974 15.8101L27.4241 13.3701C27.9308 13.1301 28.1441 12.5435 27.9041 12.0368C27.6641 11.5435 27.0774 11.3168 26.5708 11.5568ZM7.99742 11.0901C7.26409 11.0901 6.66409 10.4901 6.66409 9.75679C6.66409 9.02346 7.26409 8.42346 7.99742 8.42346C8.73075 8.42346 9.33075 9.02346 9.33075 9.75679C9.33075 10.4901 8.73075 11.0901 7.99742 11.0901ZM14.8108 24.4235H12.2241L8.94409 13.7568H9.07742L14.8108 24.4235Z" fill="#414546"/>
</svg>
