<svg width="33" height="32" viewBox="0 0 33 32" fill="none" xmlns="http://www.w3.org/2000/svg">
<g id="qr_code">
<g id="Vector">
<path d="M4.33334 14.6667H15V4H4.33334V14.6667ZM7.00001 6.66667H12.3333V12H7.00001V6.66667Z" fill="white"/>
<path d="M4.33334 28H15V17.3333H4.33334V28ZM7.00001 20H12.3333V25.3333H7.00001V20Z" fill="white"/>
<path d="M17.6667 4V14.6667H28.3333V4H17.6667ZM25.6667 12H20.3333V6.66667H25.6667V12Z" fill="white"/>
<path d="M28.3333 25.3333H25.6667V28H28.3333V25.3333Z" fill="white"/>
<path d="M20.3333 17.3333H17.6667V20H20.3333V17.3333Z" fill="white"/>
<path d="M23 20H20.3333V22.6667H23V20Z" fill="white"/>
<path d="M20.3333 22.6667H17.6667V25.3333H20.3333V22.6667Z" fill="white"/>
<path d="M23 25.3333H20.3333V28H23V25.3333Z" fill="white"/>
<path d="M25.6667 22.6667H23V25.3333H25.6667V22.6667Z" fill="white"/>
<path d="M25.6667 17.3333H23V20H25.6667V17.3333Z" fill="white"/>
<path d="M28.3333 20H25.6667V22.6667H28.3333V20Z" fill="white"/>
</g>
</g>
</svg>
