<svg width="32" height="32" viewBox="0 0 32 32" fill="none" xmlns="http://www.w3.org/2000/svg">
<path fill-rule="evenodd" clip-rule="evenodd" d="M16.7013 25.6577C16.3692 24.9723 16.1784 24.2056 16.1784 23.3966C16.1784 20.5454 18.4891 18.2312 21.3368 18.2382C22.1458 18.2382 22.9125 18.429 23.5979 18.7611L16.7013 25.6577ZM25.6153 26.2972C24.0148 28.6609 20.7997 29.2756 18.4396 27.6751L25.6153 20.4994C26.8025 22.2483 26.8025 24.5448 25.6153 26.2972ZM22.0328 6.20098H28.2934C28.7351 6.20098 29.0919 6.55783 29.0919 6.99593V8.74821C29.0919 9.18985 28.7351 9.54669 28.2934 9.54669H3.79848C3.35684 9.54669 3 9.18985 3 8.74821V6.99593C3 6.55429 3.35684 6.19745 3.79848 6.19745H10.0556C10.3983 6.19745 10.7021 5.9784 10.8117 5.65335L11.5183 3.5441C11.6278 3.21905 11.9317 3 12.2744 3H19.8211C20.1638 3 20.4676 3.22258 20.5771 3.54763L21.2767 5.65335C21.3827 5.98193 21.6901 6.20098 22.0328 6.20098ZM21.0298 15.2246C16.7123 15.2493 13.2004 18.8743 13.3064 23.1917C13.3524 25.0925 14.0802 26.8273 15.2602 28.1486C15.5323 28.456 15.3132 28.94 14.9034 28.94H6.93627C6.4381 28.94 6.03533 28.5373 6.03533 28.0391V11.4546C6.03533 10.9635 6.43457 10.5643 6.92567 10.5643H25.4638C25.8913 10.5643 26.234 10.9105 26.234 11.3345V16.334C26.234 16.6696 25.856 16.8604 25.5839 16.6661C24.3014 15.751 22.7292 15.214 21.0298 15.2246Z" fill="url(#paint0_linear_132175_15954)"/>
<defs>
<linearGradient id="paint0_linear_132175_15954" x1="16.046" y1="3" x2="16.046" y2="28.94" gradientUnits="userSpaceOnUse">
<stop stop-color="#F7504C"/>
<stop offset="1" stop-color="#E62C27"/>
</linearGradient>
</defs>
</svg>

