<svg width="60" height="60" viewBox="0 0 60 60" fill="none" xmlns="http://www.w3.org/2000/svg">
<path fill-rule="evenodd" clip-rule="evenodd" d="M16.0365 18.3472H43.9635C44.8341 18.3472 45.5405 19.0685 45.5156 19.939L45.3492 26.936C45.0546 26.9188 44.7578 26.91 44.459 26.91C36.1747 26.91 29.459 33.6258 29.459 41.91C29.459 45.3274 30.6018 48.4778 32.526 51H18.2651C16.5738 51 15.1958 49.6469 15.156 47.9606L14.4795 19.939C14.4596 19.0635 15.161 18.3472 16.0365 18.3472Z" fill="#00893D"/>
<path opacity="0.8" fill-rule="evenodd" clip-rule="evenodd" d="M46.5254 12.91H38.6159L36.8649 10.1292C36.4271 9.43278 35.6312 9 34.7905 9H25.2095C24.3688 9 23.5729 9.43278 23.1351 10.1292L21.3841 12.91H13.4746C12.7234 12.91 12.1116 13.5169 12.1116 14.268V16.0191H47.8884V14.268C47.8884 13.5169 47.2766 12.91 46.5254 12.91ZM23.2794 12.8901L24.4832 10.9798C24.6325 10.7411 24.911 10.5968 25.2095 10.5968H34.7905C35.0889 10.5968 35.3675 10.7411 35.5167 10.9798L36.7206 12.8901H23.2794Z" fill="#00893D"/>
<circle cx="44.46" cy="41.9099" r="12" fill="#646464"/>
<path fill-rule="evenodd" clip-rule="evenodd" d="M46.2203 41.9087L49.1107 39.0184C49.1687 38.9603 49.2203 38.8969 49.2653 38.8281C49.3104 38.7606 49.3489 38.6895 49.3809 38.6148C49.4117 38.539 49.4354 38.4607 49.452 38.3801C49.4674 38.3007 49.4751 38.2201 49.4751 38.1384C49.4751 38.0566 49.4674 37.9754 49.452 37.8948C49.4354 37.8154 49.4117 37.7378 49.3809 37.6619C49.3489 37.5861 49.3104 37.5144 49.2653 37.4468C49.2203 37.3793 49.1687 37.3164 49.1107 37.2584C49.0526 37.2003 48.9898 37.1487 48.9222 37.1037C48.8547 37.0587 48.7824 37.0201 48.7053 36.9881C48.6307 36.9573 48.5536 36.9336 48.4742 36.917C48.3936 36.9016 48.3124 36.8939 48.2307 36.8939C48.1489 36.8939 48.0683 36.9016 47.9889 36.917C47.9083 36.9336 47.8301 36.9573 47.7542 36.9881C47.6784 37.0201 47.6067 37.0587 47.5391 37.1037C47.4716 37.1487 47.4087 37.2003 47.3507 37.2584L44.4605 40.1485L41.5711 37.2584C41.513 37.2003 41.4496 37.1487 41.3809 37.1037C41.3133 37.0587 41.2422 37.0201 41.1675 36.9881C41.0917 36.9573 41.0135 36.9336 40.9329 36.917C40.8535 36.9016 40.7729 36.8939 40.6911 36.8939C40.6093 36.8939 40.5281 36.9016 40.4475 36.917C40.3681 36.9336 40.2905 36.9573 40.2147 36.9881C40.1388 37.0201 40.0671 37.0587 39.9995 37.1037C39.932 37.1487 39.8692 37.2003 39.8111 37.2584C39.753 37.3164 39.7015 37.3793 39.6564 37.4468C39.6114 37.5144 39.5729 37.5861 39.5409 37.6619C39.5101 37.7378 39.4864 37.8154 39.4698 37.8948C39.4544 37.9754 39.4467 38.0566 39.4467 38.1384C39.4467 38.2201 39.4544 38.3007 39.4698 38.3801C39.4864 38.4607 39.5101 38.539 39.5409 38.6148C39.5729 38.6895 39.6114 38.7612 39.6564 38.8299C39.7015 38.8975 39.753 38.9603 39.8111 39.0184L42.7009 41.9082L39.8076 44.8015C39.7507 44.8584 39.6991 44.9212 39.6529 44.9899C39.6079 45.0575 39.5699 45.1292 39.5391 45.205C39.5071 45.2797 39.4834 45.3573 39.468 45.4379C39.4514 45.5173 39.4431 45.5985 39.4431 45.6815C39.4431 45.7621 39.4514 45.8427 39.468 45.9233C39.4834 46.0038 39.5071 46.0821 39.5391 46.1579C39.5699 46.2326 39.6079 46.3037 39.6529 46.3713C39.6991 46.4388 39.7507 46.5022 39.8076 46.5615C39.8656 46.6184 39.929 46.6699 39.9978 46.7161C40.0653 46.7612 40.137 46.7991 40.2129 46.8299C40.2876 46.8619 40.3652 46.8856 40.4458 46.901C40.5252 46.9176 40.6058 46.9259 40.6876 46.9259C40.7693 46.9259 40.8505 46.9176 40.9311 46.901C41.0117 46.8856 41.0899 46.8619 41.1658 46.8299C41.2404 46.7991 41.3116 46.7612 41.3791 46.7161C41.4479 46.6699 41.5107 46.6184 41.5676 46.5615L44.4609 43.6682L47.3542 46.5615C47.4111 46.6184 47.4739 46.6699 47.5427 46.7161C47.6102 46.7612 47.6819 46.7991 47.7578 46.8299C47.8324 46.8619 47.9101 46.8856 47.9907 46.901C48.0712 46.9176 48.1518 46.9259 48.2324 46.9259C48.3142 46.9259 48.3954 46.9176 48.476 46.901C48.5566 46.8856 48.6348 46.8619 48.7107 46.8299C48.7853 46.7991 48.8564 46.7612 48.924 46.7161C48.9927 46.6699 49.0555 46.6184 49.1124 46.5615C49.1705 46.5034 49.2227 46.44 49.2689 46.3713C49.3139 46.3037 49.3518 46.232 49.3827 46.1561C49.4147 46.0815 49.4384 46.0038 49.4538 45.9233C49.4692 45.8427 49.4769 45.7621 49.4769 45.6815C49.4769 45.5997 49.4692 45.5185 49.4538 45.4379C49.4384 45.3573 49.4147 45.2791 49.3827 45.2033C49.3518 45.1286 49.3139 45.0575 49.2689 44.9899C49.2238 44.9212 49.1717 44.8584 49.1124 44.8015L46.2203 41.9087Z" fill="white"/>
</svg>