<svg width="60" height="60" viewBox="0 0 60 60" fill="none" xmlns="http://www.w3.org/2000/svg">
<g clip-path="url(#clip0_130956_23536)">
<path d="M29.5823 12.4416H9.16907C6.03941 12.4416 5.95229 15.3568 5.95229 15.3568V27.5806C5.95229 30.154 8.82729 30.7974 8.82729 30.7974H10.5429C12.6003 30.7974 12.3859 33.1563 12.3859 33.1563L9.6851 45.4203C9.08195 47.6051 10.4558 47.5649 10.4558 47.5649H21.2186C22.378 47.5649 22.5053 45.4203 21.3057 44.3079C20.1061 43.1954 20.0592 41.9087 20.0592 41.9087L21.0913 38.263H23.1956C24.0132 38.263 24.355 37.2779 24.355 37.2779V34.0209C24.355 33.0357 23.1956 32.8615 23.1956 32.8615C23.2358 31.8763 25.4272 30.8041 25.4272 30.8041H29.9307C32.2026 30.8041 37.2221 27.5471 37.2221 27.5471V15.913C34.9034 13.7283 29.5823 12.4416 29.5823 12.4416ZM21.8218 23.0369H12.0441C11.3136 23.0369 10.7574 22.4806 10.7574 21.7502C10.7574 21.0197 11.3136 20.4634 12.0441 20.4634H21.8218C22.5522 20.4634 23.1085 21.0197 23.1085 21.7502C23.1085 22.4806 22.5522 23.0369 21.8218 23.0369ZM26.7542 18.8752H12.0441C11.3136 18.8752 10.7574 18.3189 10.7574 17.5884C10.7574 16.858 11.3136 16.3017 12.0441 16.3017H26.7542C27.4846 16.3017 28.0409 16.858 28.0409 17.5884C28.0409 18.3189 27.4846 18.8752 26.7542 18.8752Z" fill="#00893D"/>
<path opacity="0.8" d="M48.4608 19.8605H52.6627C52.6627 19.8605 53.9494 20.2894 53.9561 21.4487C53.9561 22.6081 53.3999 23.3788 52.6292 23.3788H48.4675C48.4675 23.3788 47.5628 26.0394 45.2909 27.0245H40.3987C40.3987 27.0245 39.1522 27.0714 39.1522 25.8249V17.5484C39.1522 17.5484 38.9378 16.1746 40.3987 16.1746H44.9022C44.9022 16.1746 47.6432 17.2468 48.4608 19.8605Z" fill="#00893D"/>
<circle cx="44.4589" cy="41.9111" r="12" fill="#646464"/>
<path d="M41.7661 37.0558C41.7661 36.8065 41.9336 36.7189 42.1383 36.8612L49.2704 41.8185C49.4751 41.9607 49.4751 42.1936 49.2704 42.3358L42.1383 47.2931C41.9336 47.4354 41.7661 47.3478 41.7661 47.0985V37.0558Z" fill="white"/>
</g>
<defs>
<clipPath id="clip0_130956_23536">
<rect width="60" height="60" fill="white"/>
</clipPath>
</defs>
</svg>
