<svg width="100" height="100" viewBox="0 0 100 100" fill="none" xmlns="http://www.w3.org/2000/svg">
<path d="M78.4137 24.0993H21.2322C19.9884 24.0993 19.3165 22.6472 20.1155 21.6943L27.0157 13.5173C27.2972 13.1906 27.7058 13 28.1325 13H69.7793C70.1515 13 70.5147 13.1452 70.7871 13.3993L79.4306 21.5763C80.3839 22.4838 79.7393 24.0993 78.4137 24.0993ZM80.5382 30.4974H19.4618C18.6537 30.4974 18 31.1509 18 31.9586V73.5389C18 74.3466 18.6537 75 19.4618 75H80.5382C81.3463 75 82 74.3466 82 73.5389V31.9586C81.9909 31.1509 81.3372 30.4974 80.5382 30.4974Z" fill="url(#paint0_linear_129197_10030)"/>
<g filter="url(#filter0_d_129197_10030)">
<path d="M53.028 52.7397H58.9477C60.2551 52.7397 60.9088 51.1514 59.9827 50.2258L50.8671 41.114C50.2951 40.5423 49.36 40.5423 48.788 41.114L39.6633 50.2348C38.7372 51.1605 39.3909 52.7397 40.6983 52.7397H46.618V63.966C46.618 64.7828 47.2808 65.4362 48.0889 65.4362H51.5571C52.3743 65.4362 53.028 64.7737 53.028 63.966V52.7397Z" fill="white"/>
</g>
<rect x="17" y="81" width="66" height="6" rx="3" fill="url(#paint1_linear_129197_10030)"/>
<defs>
<filter id="filter0_d_129197_10030" x="37.2291" y="38.6852" width="33.1877" height="36.751" filterUnits="userSpaceOnUse" color-interpolation-filters="sRGB">
<feFlood flood-opacity="0" result="BackgroundImageFix"/>
<feColorMatrix in="SourceAlpha" type="matrix" values="0 0 0 0 0 0 0 0 0 0 0 0 0 0 0 0 0 0 127 0" result="hardAlpha"/>
<feOffset dx="4" dy="4"/>
<feGaussianBlur stdDeviation="3"/>
<feComposite in2="hardAlpha" operator="out"/>
<feColorMatrix type="matrix" values="0 0 0 0 0.0724306 0 0 0 0 0.620833 0 0 0 0 0.483733 0 0 0 1 0"/>
<feBlend mode="normal" in2="BackgroundImageFix" result="effect1_dropShadow_129197_10030"/>
<feBlend mode="normal" in="SourceGraphic" in2="effect1_dropShadow_129197_10030" result="shape"/>
</filter>
<linearGradient id="paint0_linear_129197_10030" x1="78" y1="12.6125" x2="38.2773" y2="86.1524" gradientUnits="userSpaceOnUse">
<stop stop-color="#129B49"/>
<stop offset="1" stop-color="#1D9BB2"/>
</linearGradient>
<linearGradient id="paint1_linear_129197_10030" x1="83" y1="84" x2="80.8327" y2="95.6229" gradientUnits="userSpaceOnUse">
<stop stop-color="#787D7F"/>
<stop offset="1" stop-color="#515151"/>
</linearGradient>
</defs>
</svg>
