<svg width="100" height="100" viewBox="0 0 100 100" fill="none" xmlns="http://www.w3.org/2000/svg">
<path fill-rule="evenodd" clip-rule="evenodd" d="M23.3877 10.5H76.629C79.5571 10.6686 81.8912 13.0711 82 16.0469V43.3991C78.2983 41.6165 74.1482 40.6176 69.7647 40.6176C54.1708 40.6176 41.5294 53.259 41.5294 68.8529C41.5294 69.7607 41.5722 70.6584 41.656 71.5442L23.8562 89.48C23.8227 89.5221 23.7809 89.5643 23.7391 89.598C23.7307 89.6064 23.7203 89.6149 23.7098 89.6233C23.6993 89.6317 23.6889 89.6401 23.6805 89.6486C23.6554 89.6739 23.6387 89.6907 23.6136 89.7076C23.5921 89.7184 23.5741 89.7327 23.5573 89.746C23.5479 89.7534 23.5389 89.7605 23.5299 89.7666C23.5216 89.775 23.5132 89.7814 23.5048 89.7877C23.4965 89.794 23.4881 89.8003 23.4797 89.8087C23.4694 89.8166 23.4598 89.8244 23.4506 89.832C23.4299 89.8489 23.4108 89.8645 23.3877 89.8762C23.3793 89.8804 23.371 89.8867 23.3626 89.893C23.3542 89.8994 23.3459 89.9057 23.3375 89.9099C23.3316 89.9139 23.3252 89.9183 23.3185 89.923C23.2966 89.9382 23.2711 89.956 23.2455 89.9689C23.2288 89.9858 23.212 89.9942 23.1953 90.0026C23.1785 90.0111 23.1639 90.0195 23.1492 90.0279C23.1346 90.0364 23.12 90.0448 23.1033 90.0532C23.0865 90.0701 23.0698 90.0785 23.0531 90.0869C23.0283 90.0932 23.0081 90.1041 22.9856 90.1161C22.9778 90.1204 22.9697 90.1247 22.961 90.1291C22.9483 90.142 22.9306 90.1499 22.9155 90.1567C22.9108 90.1588 22.9064 90.1608 22.9025 90.1628C22.8899 90.167 22.8753 90.1733 22.8607 90.1796C22.846 90.186 22.8314 90.1923 22.8188 90.1965C22.8063 90.2007 22.7937 90.2071 22.7812 90.2134C22.7686 90.2197 22.7561 90.226 22.7435 90.2302L22.6682 90.2555C22.6557 90.2597 22.641 90.2661 22.6264 90.2724C22.6118 90.2787 22.5971 90.285 22.5846 90.2892C22.572 90.2935 22.5616 90.2977 22.5511 90.3019C22.5407 90.3061 22.5302 90.3103 22.5176 90.3145C22.4925 90.3314 22.4591 90.3398 22.4256 90.3483C22.4173 90.3525 22.4068 90.3546 22.3963 90.3567C22.3859 90.3588 22.3754 90.3609 22.3671 90.3651L22.2667 90.3904C22.2557 90.3941 22.2463 90.3962 22.2378 90.3981C22.2269 90.4005 22.2175 90.4025 22.2081 90.4073C22.1914 90.4115 22.1725 90.4157 22.1537 90.4199C22.1349 90.4241 22.1161 90.4283 22.0993 90.4326C22.0855 90.4326 22.0742 90.4351 22.0641 90.4374C22.0558 90.4393 22.0483 90.441 22.0408 90.441C22.0241 90.4452 22.0052 90.4473 21.9864 90.4494C21.9676 90.4515 21.9488 90.4536 21.932 90.4578C21.9195 90.4578 21.909 90.46 21.8986 90.4621C21.8881 90.4642 21.8776 90.4663 21.8651 90.4663C21.8484 90.4663 21.8316 90.4684 21.8149 90.4705C21.7982 90.4726 21.7814 90.4747 21.7647 90.4747C21.7396 90.4831 21.7061 90.4831 21.681 90.4831C21.6476 90.4916 21.6225 90.4916 21.5974 90.4916C21.5472 90.5 21.4886 90.5 21.4301 90.5C21.4008 90.5 21.3736 90.4979 21.3464 90.4958C21.3192 90.4937 21.292 90.4916 21.2627 90.4916C21.2448 90.4916 21.2293 90.4892 21.2149 90.4869C21.2024 90.485 21.1907 90.4831 21.1791 90.4831C21.1665 90.4831 21.1519 90.481 21.1373 90.4789C21.1226 90.4768 21.108 90.4747 21.0954 90.4747C21.062 90.4747 21.0285 90.4747 20.995 90.4663C20.9825 90.4663 20.972 90.4642 20.9616 90.4621C20.9511 90.46 20.9407 90.4578 20.9281 90.4578C20.8946 90.4578 20.8528 90.4494 20.8193 90.441C20.8055 90.441 20.7942 90.4384 20.7841 90.4361C20.7758 90.4343 20.7683 90.4326 20.7608 90.4326C20.7441 90.4283 20.7252 90.4241 20.7064 90.4199C20.6876 90.4157 20.6688 90.4115 20.652 90.4073C20.641 90.4036 20.6316 90.4015 20.6231 90.3996C20.6123 90.3972 20.6029 90.3951 20.5935 90.3904L20.4931 90.3651C20.4847 90.3609 20.4742 90.3588 20.4638 90.3567C20.4533 90.3546 20.4429 90.3525 20.4345 90.3483C20.4252 90.3451 20.4147 90.3408 20.4034 90.3362C20.3845 90.3284 20.3635 90.3198 20.3425 90.3145C20.3299 90.3103 20.3195 90.3061 20.309 90.3019C20.2986 90.2977 20.2881 90.2935 20.2756 90.2892C20.263 90.285 20.2484 90.2787 20.2337 90.2724C20.2191 90.2661 20.2044 90.2597 20.1919 90.2555L20.1166 90.2302C20.1041 90.226 20.0915 90.2197 20.079 90.2134C20.0664 90.2071 20.0539 90.2007 20.0413 90.1965C20.0365 90.1949 20.0314 90.1933 20.0261 90.1916C20.0037 90.1845 19.9779 90.1764 19.9576 90.1628C19.9449 90.1499 19.9272 90.142 19.9121 90.1352C19.9074 90.1331 19.903 90.1311 19.8991 90.1291C19.8743 90.1228 19.854 90.1119 19.8316 90.0999C19.8238 90.0956 19.8157 90.0913 19.8071 90.0869C19.7903 90.0701 19.7736 90.0616 19.7569 90.0532C19.7401 90.0448 19.7255 90.0364 19.7109 90.0279C19.6962 90.0195 19.6816 90.0111 19.6648 90.0026C19.6481 89.9858 19.6314 89.9773 19.6146 89.9689C19.5979 89.9605 19.5833 89.9499 19.5686 89.9394C19.554 89.9289 19.5393 89.9183 19.5226 89.9099C19.5142 89.9057 19.5059 89.8994 19.4975 89.893C19.4891 89.8867 19.4808 89.8804 19.4724 89.8762C19.4557 89.8635 19.441 89.853 19.4264 89.8425C19.4118 89.8319 19.3971 89.8214 19.3804 89.8087C19.372 89.8003 19.3637 89.794 19.3553 89.7877C19.3469 89.7814 19.3386 89.775 19.3302 89.7666C19.3051 89.7497 19.28 89.7329 19.2549 89.7076C19.2424 89.6992 19.2319 89.6886 19.2214 89.6781C19.211 89.6675 19.2005 89.657 19.188 89.6486C19.1796 89.6401 19.1692 89.6317 19.1587 89.6233C19.1482 89.6149 19.1378 89.6064 19.1294 89.598C19.1085 89.5769 19.0876 89.558 19.0667 89.539C19.0458 89.52 19.0248 89.5011 19.0039 89.48C18.983 89.4589 18.9642 89.4379 18.9454 89.4168C18.9266 89.3957 18.9077 89.3746 18.8868 89.3535C18.8784 89.3451 18.8701 89.3346 18.8617 89.324C18.8533 89.3135 18.845 89.3029 18.8366 89.2945C18.8282 89.2819 18.8178 89.2713 18.8073 89.2608C18.7969 89.2503 18.7864 89.2397 18.778 89.2271C18.7697 89.2144 18.7592 89.2018 18.7488 89.1892C18.7383 89.1765 18.7278 89.1639 18.7195 89.1512C18.7111 89.1428 18.7048 89.1343 18.6986 89.1259C18.6923 89.1175 18.686 89.1091 18.6776 89.1006C18.6699 89.0902 18.6621 89.0806 18.6546 89.0712C18.6378 89.0504 18.6223 89.0312 18.6107 89.0079C18.6065 88.9995 18.6003 88.991 18.594 88.9826C18.5877 88.9742 18.5814 88.9658 18.5773 88.9573C18.5689 88.9405 18.5584 88.9257 18.548 88.9109C18.5375 88.8962 18.5271 88.8814 18.5187 88.8646C18.502 88.8477 18.4936 88.8309 18.4852 88.814C18.4769 88.7971 18.4685 88.7824 18.4601 88.7676C18.4518 88.7529 18.4434 88.7381 18.435 88.7213C18.4183 88.7044 18.4099 88.6876 18.4016 88.6707C18.3954 88.6457 18.3846 88.6253 18.3726 88.6027C18.3684 88.5948 18.3641 88.5867 18.3597 88.578C18.347 88.5651 18.3391 88.5473 18.3323 88.5321C18.3302 88.5274 18.3282 88.5229 18.3263 88.519C18.3221 88.5063 18.3158 88.4916 18.3095 88.4768C18.3033 88.4621 18.297 88.4473 18.2928 88.4347C18.2886 88.422 18.2824 88.4094 18.2761 88.3967C18.2698 88.3841 18.2635 88.3714 18.2593 88.3588L18.2342 88.2829C18.2301 88.2703 18.2238 88.2555 18.2175 88.2408C18.2112 88.226 18.205 88.2113 18.2008 88.1986C18.1966 88.186 18.1924 88.1754 18.1882 88.1649C18.1841 88.1544 18.1799 88.1438 18.1757 88.1312C18.159 88.1059 18.1506 88.0722 18.1422 88.0385L18.1422 88.0385C18.138 88.03 18.1359 88.0195 18.1339 88.0089C18.1318 87.9984 18.1297 87.9879 18.1255 87.9794L18.1004 87.8783C18.1004 87.8614 18.1004 87.8446 18.092 87.8277C18.0878 87.8109 18.0837 87.7919 18.0795 87.7729C18.0753 87.754 18.0711 87.735 18.0669 87.7181C18.0669 87.7042 18.0644 87.6928 18.0621 87.6826C18.0603 87.6743 18.0586 87.6667 18.0586 87.6591C18.0544 87.6423 18.0523 87.6233 18.0502 87.6043C18.0481 87.5854 18.046 87.5664 18.0418 87.5495C18.0418 87.5369 18.0397 87.5263 18.0376 87.5158C18.0356 87.5053 18.0335 87.4947 18.0335 87.4821C18.0335 87.4652 18.0314 87.4484 18.0293 87.4315C18.0272 87.4146 18.0251 87.3978 18.0251 87.3809C18.0167 87.3556 18.0167 87.3219 18.0167 87.2966C18.0084 87.2629 18.0084 87.2376 18.0084 87.2123C18 87.1533 18 87.1027 18 87.0437V15.9795C18.1255 13.029 20.468 10.6517 23.3877 10.5Z" fill="url(#paint0_linear_129200_9854)"/>
<g filter="url(#filter0_d_129200_9854)">
<rect x="28" y="23" width="42" height="5" rx="2.5" fill="white"/>
</g>
<circle cx="71" cy="70" r="25" fill="url(#paint1_linear_129200_9854)"/>
<g filter="url(#filter1_d_129200_9854)">
<path d="M76.2712 66.5039C75.955 66.3553 75.8109 66.1555 75.8388 65.9047C75.8667 65.6538 75.9736 65.4541 76.1596 65.3055C76.2154 65.2683 76.3968 65.1243 76.7037 64.8735C77.0106 64.6226 77.3873 64.3207 77.8337 63.9677C77.0525 63.0758 76.1224 62.3744 75.0436 61.8634C73.9647 61.3525 72.7928 61.097 71.5279 61.097C70.3561 61.097 69.2586 61.3153 68.2355 61.752C67.2125 62.1886 66.3196 62.7878 65.557 63.5496C64.7943 64.3114 64.1944 65.2033 63.7573 66.2252C63.3202 67.2471 63.1016 68.3434 63.1016 69.5139C63.1016 70.6659 63.3202 71.7529 63.7573 72.7748C64.1944 73.7967 64.7943 74.6886 65.557 75.4504C66.3196 76.2122 67.2125 76.8114 68.2355 77.2481C69.2586 77.6847 70.3561 77.903 71.5279 77.903C72.4952 77.903 73.4113 77.7497 74.2763 77.4431C75.1412 77.1366 75.9318 76.7046 76.6479 76.1472C77.3641 75.5897 77.9779 74.9348 78.4894 74.1823C79.001 73.4298 79.3776 72.6076 79.6195 71.7157C79.7497 71.2884 79.9915 70.9353 80.3449 70.6566C80.6983 70.3779 81.1169 70.2386 81.6005 70.2386C82.1771 70.2386 82.6654 70.443 83.0653 70.8517C83.4653 71.2605 83.6652 71.7436 83.6652 72.301C83.6652 72.5611 83.6187 72.812 83.5257 73.0535C83.1351 74.3541 82.5585 75.5526 81.7958 76.6488C81.0332 77.7451 80.1263 78.688 79.0754 79.4777C78.0244 80.2674 76.8572 80.8852 75.5737 81.3311C74.2902 81.777 72.9416 82 71.5279 82C69.798 82 68.1704 81.6748 66.6451 81.0245C65.1198 80.3742 63.7945 79.4823 62.6691 78.3489C61.5438 77.2155 60.6509 75.8917 59.9906 74.3774C59.3302 72.8631 59 71.2419 59 69.5139C59 67.786 59.3302 66.1602 59.9906 64.6366C60.6509 63.113 61.5438 61.7891 62.6691 60.665C63.7945 59.5409 65.1198 58.649 66.6451 57.9894C68.1704 57.3298 69.798 57 71.5279 57C73.4439 57 75.2203 57.3948 76.8572 58.1845C78.4941 58.9742 79.8892 60.0472 81.0425 61.4036C81.4703 61.0877 81.8284 60.8136 82.1167 60.5814C82.405 60.3491 82.5864 60.2051 82.6608 60.1494C82.7724 60.0565 82.8933 59.9868 83.0235 59.9404C83.1537 59.8939 83.2746 59.8939 83.3862 59.9404C83.4978 59.9868 83.5955 60.0844 83.6792 60.233C83.7629 60.3816 83.8233 60.6046 83.8605 60.9019C83.8791 61.0691 83.8977 61.3525 83.9163 61.752C83.9349 62.1514 83.9535 62.6159 83.9721 63.1455C83.9907 63.675 84 64.2232 84 64.7899C84 65.3566 83.9907 65.8907 83.9721 66.3924C83.9535 67.0242 83.8047 67.4794 83.5257 67.7581C83.3769 67.9067 83.1537 67.9903 82.8561 68.0089C82.5585 68.0275 82.2422 67.9996 81.9074 67.9253C81.4052 67.8138 80.8518 67.6931 80.2473 67.563C79.6427 67.4329 79.0661 67.2982 78.5173 67.1589C77.9686 67.0195 77.485 66.8894 77.0665 66.7687C76.6479 66.6479 76.3829 66.5596 76.2712 66.5039Z" fill="white"/>
</g>
<defs>
<filter id="filter0_d_129200_9854" x="26" y="21" width="54" height="17" filterUnits="userSpaceOnUse" color-interpolation-filters="sRGB">
<feFlood flood-opacity="0" result="BackgroundImageFix"/>
<feColorMatrix in="SourceAlpha" type="matrix" values="0 0 0 0 0 0 0 0 0 0 0 0 0 0 0 0 0 0 127 0" result="hardAlpha"/>
<feOffset dx="4" dy="4"/>
<feGaussianBlur stdDeviation="3"/>
<feComposite in2="hardAlpha" operator="out"/>
<feColorMatrix type="matrix" values="0 0 0 0 0.0510417 0 0 0 0 0.583333 0 0 0 0 0.341021 0 0 0 1 0"/>
<feBlend mode="normal" in2="BackgroundImageFix" result="effect1_dropShadow_129200_9854"/>
<feBlend mode="normal" in="SourceGraphic" in2="effect1_dropShadow_129200_9854" result="shape"/>
</filter>
<filter id="filter1_d_129200_9854" x="57" y="55" width="37" height="37" filterUnits="userSpaceOnUse" color-interpolation-filters="sRGB">
<feFlood flood-opacity="0" result="BackgroundImageFix"/>
<feColorMatrix in="SourceAlpha" type="matrix" values="0 0 0 0 0 0 0 0 0 0 0 0 0 0 0 0 0 0 127 0" result="hardAlpha"/>
<feOffset dx="4" dy="4"/>
<feGaussianBlur stdDeviation="3"/>
<feComposite in2="hardAlpha" operator="out"/>
<feColorMatrix type="matrix" values="0 0 0 0 0.311198 0 0 0 0 0.3125 0 0 0 0 0.311778 0 0 0 1 0"/>
<feBlend mode="normal" in2="BackgroundImageFix" result="effect1_dropShadow_129200_9854"/>
<feBlend mode="normal" in="SourceGraphic" in2="effect1_dropShadow_129200_9854" result="shape"/>
</filter>
<linearGradient id="paint0_linear_129200_9854" x1="78" y1="10" x2="20.5" y2="92.5" gradientUnits="userSpaceOnUse">
<stop stop-color="#129B49"/>
<stop offset="1" stop-color="#1D9BB2"/>
</linearGradient>
<linearGradient id="paint1_linear_129200_9854" x1="88.5" y1="48.5" x2="51.5" y2="93" gradientUnits="userSpaceOnUse">
<stop stop-color="#787D7F"/>
<stop offset="1" stop-color="#515151"/>
</linearGradient>
</defs>
</svg>
