<svg width="217" height="177" viewBox="0 0 217 177" fill="none" xmlns="http://www.w3.org/2000/svg">
<g clip-path="url(#clip0_132209_42220)">
<path d="M108.5 176.728C168.032 176.728 216.292 156.588 216.292 131.743C216.292 106.899 168.032 86.759 108.5 86.759C48.9675 86.759 0.707031 106.899 0.707031 131.743C0.707031 156.588 48.9675 176.728 108.5 176.728Z" fill="url(#paint0_linear_132209_42220)"/>
<path d="M53.4668 31.9421C57.3829 31.9421 60.5576 28.7674 60.5576 24.8513C60.5576 20.9352 57.3829 17.7605 53.4668 17.7605C49.5506 17.7605 46.376 20.9352 46.376 24.8513C46.376 28.7674 49.5506 31.9421 53.4668 31.9421Z" fill="url(#paint1_linear_132209_42220)"/>
<path d="M43.5482 68.3216H43.1549C41.2739 62.9066 34.4396 58.8938 26.2943 58.8938C17.5733 58.8938 10.3343 63.4994 9.11453 69.5015C4.18403 70.7783 0.707031 73.8905 0.707031 77.5328C0.707031 82.3151 6.70343 86.1911 14.102 86.1911C17.4453 86.2556 20.7382 85.3701 23.5982 83.6375C24.4935 83.7363 25.3936 83.7857 26.2943 83.7857C29.5737 83.8114 32.8188 83.1188 35.8019 81.7565C38.0252 83.4493 40.7543 84.343 43.5482 84.293C49.4078 84.293 54.1616 80.7134 54.1616 76.313C54.1616 71.9126 49.3907 68.3216 43.5482 68.3216Z" fill="url(#paint2_linear_132209_42220)"/>
<path d="M177.653 12.4624C177.488 12.4624 177.322 12.4624 177.163 12.4624C174.797 5.66234 166.219 0.623535 155.993 0.623535C145.038 0.623535 135.969 6.40334 134.407 13.9387C128.223 15.5461 123.856 19.4563 123.856 24.0277C123.856 30.0298 131.386 34.8976 140.677 34.8976C145.34 34.8976 149.552 33.6721 152.602 31.6942C153.728 31.8208 154.86 31.8836 155.993 31.8823C160.11 31.9125 164.183 31.043 167.929 29.3344C170.72 31.4584 174.146 32.5789 177.653 32.515C185.012 32.515 190.98 28.0234 190.98 22.483C190.98 16.9426 185.012 12.4624 177.653 12.4624Z" fill="url(#paint3_linear_132209_42220)"/>
<path d="M187.992 79.8849H187.787C186.812 77.0805 183.267 75 179.049 75C174.523 75 170.778 77.3883 170.134 80.4948C167.58 81.1617 165.779 82.7748 165.779 84.6615C165.779 87.141 168.886 89.1531 172.722 89.1531C174.455 89.1867 176.163 88.7282 177.647 87.8307C178.103 87.8763 178.57 87.9048 179.049 87.9048C180.75 87.9178 182.433 87.5578 183.979 86.8503C185.124 87.7244 186.529 88.1882 187.969 88.167C191.007 88.167 193.47 86.3145 193.47 84.0231C193.47 81.7317 191.03 79.8849 187.992 79.8849Z" fill="url(#paint4_linear_132209_42220)"/>
<path opacity="0.2" d="M108.5 117.248C126.856 117.248 141.737 115.549 141.737 113.452C141.737 111.356 126.856 109.656 108.5 109.656C90.1442 109.656 75.2637 111.356 75.2637 113.452C75.2637 115.549 90.1442 117.248 108.5 117.248Z" fill="#9FBAA7"/>
<path d="M110.352 96.5346C110.352 93.1006 111.257 89.7272 112.975 86.7542C114.694 83.7812 117.165 81.3136 120.141 79.6C123.117 77.8863 126.492 76.9872 129.926 76.9932C133.36 76.9992 136.732 77.9101 139.701 79.6341V44.2941C139.701 43.5915 139.563 42.8958 139.294 42.2467C139.025 41.5977 138.631 41.008 138.133 40.5115C137.636 40.0149 137.046 39.6212 136.397 39.3529C135.748 39.0845 135.052 38.9468 134.349 38.9475H126.221H90.7784H82.6502C81.9475 38.9468 81.2517 39.0845 80.6024 39.3529C79.953 39.6212 79.3629 40.0149 78.8659 40.5115C78.3688 41.008 77.9744 41.5977 77.7054 42.2467C77.4363 42.8958 77.2979 43.5915 77.2979 44.2941V107.142C77.2971 107.845 77.435 108.542 77.7038 109.191C77.9725 109.841 78.3667 110.431 78.8638 110.929C79.361 111.426 79.9513 111.82 80.601 112.089C81.2507 112.357 81.9471 112.495 82.6502 112.495H118.623C116.066 110.692 113.981 108.301 112.541 105.523C111.102 102.746 110.351 99.6629 110.352 96.5346Z" fill="url(#paint5_linear_132209_42220)"/>
<path fill-rule="evenodd" clip-rule="evenodd" d="M125.897 58.8938H91.1095C90.1273 58.8938 89.3311 59.69 89.3311 60.6722C89.3311 61.6544 90.1273 62.4506 91.1095 62.4506H125.897C126.879 62.4506 127.675 61.6544 127.675 60.6722C127.675 59.69 126.879 58.8938 125.897 58.8938ZM108.192 71.8843H91.1095C90.1273 71.8843 89.3311 72.6805 89.3311 73.6627C89.3311 74.6449 90.1273 75.4411 91.1095 75.4411H108.192C109.175 75.4411 109.971 74.6449 109.971 73.6627C109.971 72.6805 109.175 71.8843 108.192 71.8843ZM91.1095 84.8745H101.409C102.392 84.8745 103.188 85.6707 103.188 86.6529C103.188 87.6351 102.392 88.4313 101.409 88.4313H91.1095C90.1273 88.4313 89.3311 87.6351 89.3311 86.6529C89.3311 85.6707 90.1273 84.8745 91.1095 84.8745Z" fill="white"/>
<path d="M126.221 38.9419H90.7784H82.6502C81.9475 38.9411 81.2517 39.0789 80.6024 39.3472C79.953 39.6156 79.3629 40.0093 78.8659 40.5059C78.3688 41.0024 77.9744 41.5921 77.7054 42.2411C77.4363 42.8902 77.2979 43.5859 77.2979 44.2885V107.142C77.2971 107.845 77.435 108.542 77.7038 109.192C77.9725 109.841 78.3667 110.432 78.8638 110.929C79.361 111.426 79.9513 111.82 80.601 112.089C81.2507 112.358 81.9471 112.495 82.6502 112.495H82.8896L130.827 38.9647L126.221 38.9419Z" fill="url(#paint6_linear_132209_42220)"/>
<path d="M129.892 112.534C138.729 112.534 145.892 105.371 145.892 96.5346C145.892 87.6981 138.729 80.5347 129.892 80.5347C121.056 80.5347 113.893 87.6981 113.893 96.5346C113.893 105.371 121.056 112.534 129.892 112.534Z" fill="#0EBC5B"/>
<path d="M129.203 103.303C128.835 103.302 128.474 103.2 128.16 103.007L122.403 99.473C121.95 99.1963 121.625 98.7509 121.5 98.2345C121.375 97.7182 121.46 97.1734 121.736 96.7199C122.013 96.2664 122.459 95.9413 122.975 95.8162C123.491 95.6912 124.036 95.7763 124.49 96.053L128.69 98.6351L134.75 90.5639C135.067 90.1406 135.54 89.8608 136.063 89.7859C136.587 89.7111 137.119 89.8474 137.543 90.1649C137.966 90.4823 138.246 90.955 138.32 91.4787C138.395 92.0025 138.259 92.5346 137.941 92.9579L130.794 102.483C130.61 102.733 130.371 102.938 130.095 103.08C129.819 103.223 129.514 103.299 129.203 103.303Z" fill="white"/>
<path d="M95.5244 42.5257L95.5525 42.5272H95.5805H121.418H121.446L121.474 42.5257C122.388 42.4743 123.248 42.075 123.877 41.4096L123.176 40.747L123.877 41.4096C124.506 40.7442 124.857 39.8633 124.857 38.9476C124.857 38.0319 124.506 37.1509 123.877 36.4855L123.15 37.1726L123.877 36.4855C123.248 35.8202 122.388 35.4208 121.474 35.3695L121.446 35.3679H121.418H95.5805H95.5525L95.5244 35.3695C94.6102 35.4208 93.7503 35.8202 93.1212 36.4855C92.4921 37.1509 92.1416 38.0319 92.1416 38.9476C92.1416 39.8633 92.4921 40.7442 93.1212 41.4096C93.7503 42.075 94.6102 42.4743 95.5244 42.5257Z" fill="url(#paint7_linear_132209_42220)" stroke="white" stroke-width="2"/>
</g>
<defs>
<linearGradient id="paint0_linear_132209_42220" x1="108.5" y1="84.9863" x2="111.596" y2="128.668" gradientUnits="userSpaceOnUse">
<stop stop-color="#E5F4E9"/>
<stop offset="1" stop-color="white"/>
</linearGradient>
<linearGradient id="paint1_linear_132209_42220" x1="53.8798" y1="32.6756" x2="48.7279" y2="14.5995" gradientUnits="userSpaceOnUse">
<stop stop-color="white"/>
<stop offset="1" stop-color="#E5F4E9"/>
</linearGradient>
<linearGradient id="paint2_linear_132209_42220" x1="28.9913" y1="87.6064" x2="23.6282" y2="50.7625" gradientUnits="userSpaceOnUse">
<stop stop-color="white"/>
<stop offset="1" stop-color="#E5F4E9"/>
</linearGradient>
<linearGradient id="paint3_linear_132209_42220" x1="159.373" y1="36.6703" x2="152.641" y2="-9.58516" gradientUnits="userSpaceOnUse">
<stop stop-color="white"/>
<stop offset="1" stop-color="#E5F4E9"/>
</linearGradient>
<linearGradient id="paint4_linear_132209_42220" x1="180.431" y1="89.8869" x2="177.648" y2="70.7848" gradientUnits="userSpaceOnUse">
<stop stop-color="white"/>
<stop offset="1" stop-color="#E5F4E9"/>
</linearGradient>
<linearGradient id="paint5_linear_132209_42220" x1="77.2979" y1="28.1111" x2="139.701" y2="109.017" gradientUnits="userSpaceOnUse">
<stop stop-color="#98D3A7"/>
<stop offset="1" stop-color="#6CC385"/>
</linearGradient>
<linearGradient id="paint6_linear_132209_42220" x1="107.479" y1="29.6908" x2="80.1935" y2="121.751" gradientUnits="userSpaceOnUse">
<stop stop-color="white" stop-opacity="0.3"/>
<stop offset="0.03" stop-color="white" stop-opacity="0.28"/>
<stop offset="0.29" stop-color="white" stop-opacity="0.16"/>
<stop offset="0.55" stop-color="white" stop-opacity="0.07"/>
<stop offset="0.79" stop-color="white" stop-opacity="0.02"/>
<stop offset="1" stop-color="white" stop-opacity="0"/>
</linearGradient>
<linearGradient id="paint7_linear_132209_42220" x1="93.1416" y1="35.6078" x2="94.1248" y2="44.5517" gradientUnits="userSpaceOnUse">
<stop stop-color="#98D3A7"/>
<stop offset="1" stop-color="#6CC385"/>
</linearGradient>
<clipPath id="clip0_132209_42220">
<rect width="217" height="177" fill="white"/>
</clipPath>
</defs>
</svg>