<svg width="37" height="36" viewBox="0 0 37 36" fill="none" xmlns="http://www.w3.org/2000/svg">
<g id="assignment_return">
<path id="Vector" d="M29.1667 6H22.8967C22.2667 4.26 20.6167 3 18.6667 3C16.7167 3 15.0667 4.26 14.4367 6H8.16669C6.51669 6 5.16669 7.35 5.16669 9V30C5.16669 31.65 6.51669 33 8.16669 33H29.1667C30.8167 33 32.1667 31.65 32.1667 30V9C32.1667 7.35 30.8167 6 29.1667 6ZM18.6667 6C19.4917 6 20.1667 6.675 20.1667 7.5C20.1667 8.325 19.4917 9 18.6667 9C17.8417 9 17.1667 8.325 17.1667 7.5C17.1667 6.675 17.8417 6 18.6667 6ZM24.6667 24H18.6667V28.5L11.1667 21L18.6667 13.5V18H24.6667V24Z" fill="#E62C27"/>
</g>
</svg>
