<svg width="28" height="28" viewBox="0 0 28 28" fill="none" xmlns="http://www.w3.org/2000/svg">
<g id="assignment_returned">
<path id="Vector" d="M22.1667 4.66634H17.29C16.8 3.31301 15.5167 2.33301 14 2.33301C12.4833 2.33301 11.2 3.31301 10.71 4.66634H5.83333C4.55 4.66634 3.5 5.71634 3.5 6.99967V23.333C3.5 24.6163 4.55 25.6663 5.83333 25.6663H22.1667C23.45 25.6663 24.5 24.6163 24.5 23.333V6.99967C24.5 5.71634 23.45 4.66634 22.1667 4.66634ZM14 4.66634C14.6417 4.66634 15.1667 5.19134 15.1667 5.83301C15.1667 6.47467 14.6417 6.99967 14 6.99967C13.3583 6.99967 12.8333 6.47467 12.8333 5.83301C12.8333 5.19134 13.3583 4.66634 14 4.66634ZM14 22.1663L8.16667 16.333H11.6667V11.6663H16.3333V16.333H19.8333L14 22.1663Z" fill="#FF9800"/>
</g>
</svg>
