<svg width="60" height="60" viewBox="0 0 60 60" fill="none" xmlns="http://www.w3.org/2000/svg">
<path fill-rule="evenodd" clip-rule="evenodd" d="M50.9942 28.4028V22.8846L9 22.879V48.3264C9 48.9126 9.23286 49.4748 9.64736 49.8893C10.0619 50.3038 10.624 50.5367 11.2102 50.5367H32.1877C30.4685 48.0963 29.459 45.1201 29.459 41.9081C29.459 38.5073 30.5907 35.3708 32.4982 32.8547H21.1563V28.4342H37.8592C39.8508 27.4569 42.0908 26.9081 44.459 26.9081C46.8016 26.9081 49.0188 27.4451 50.9942 28.4028Z" fill="#00893D"/>
<path opacity="0.8" fill-rule="evenodd" clip-rule="evenodd" d="M14.0366 9.46334H45.7113C46.1392 9.46334 46.5197 9.73564 46.6578 10.1407L51 22.8791H9.01635L13.0841 10.1588C13.2166 9.74448 13.6017 9.46334 14.0366 9.46334ZM42.7482 13.8842H17.2445C16.8112 13.8842 16.4273 14.1632 16.2934 14.5753L15.5074 16.9958C15.2976 17.6419 15.7792 18.3046 16.4585 18.3046H43.5342C44.2135 18.3046 44.6952 17.6419 44.4853 16.9958L43.6993 14.5753C43.5655 14.1632 43.1815 13.8842 42.7482 13.8842Z" fill="#00893D"/>
<circle cx="44.4589" cy="41.9111" r="12" fill="#646464"/>
<path fill-rule="evenodd" clip-rule="evenodd" d="M43.162 36.0754L43.162 38.6691L46.4067 38.6691C48.9121 38.6691 50.943 40.7051 50.943 43.208C50.9435 43.8039 50.8265 44.3942 50.5987 44.9449C50.371 45.4957 50.0369 45.9961 49.6156 46.4176C49.1943 46.8392 48.6941 47.1735 48.1434 47.4016C47.5928 47.6297 47.0027 47.747 46.4067 47.7468L43.162 47.7468L43.162 47.7468C42.8181 47.7468 42.4882 47.6102 42.245 47.367C42.0018 47.1238 41.8652 46.7939 41.8652 46.45C41.8652 46.106 42.0018 45.7762 42.245 45.533C42.4882 45.2898 42.8181 45.1531 43.162 45.1531C43.1654 45.1531 43.1687 45.1532 43.172 45.1532L46.408 45.1532C46.9232 45.1522 47.417 44.9468 47.781 44.5821C48.1449 44.2174 48.3493 43.7232 48.3493 43.208C48.3493 42.1264 47.4804 41.2627 46.408 41.2627L43.162 41.2627L43.162 43.8564L37.9748 39.9659L43.162 36.0754Z" fill="white"/>
</svg>
