<svg width="28" height="28" viewBox="0 0 28 28" fill="none" xmlns="http://www.w3.org/2000/svg">
<path d="M14 2.33398C7.56004 2.33398 2.33337 7.56065 2.33337 14.0007C2.33337 20.4407 7.56004 25.6673 14 25.6673C20.44 25.6673 25.6667 20.4407 25.6667 14.0007C25.6667 7.56065 20.44 2.33398 14 2.33398ZM14 5.83398C15.9367 5.83398 17.5 7.39732 17.5 9.33398C17.5 11.2707 15.9367 12.834 14 12.834C12.0634 12.834 10.5 11.2707 10.5 9.33398C10.5 7.39732 12.0634 5.83398 14 5.83398ZM14 22.4007C11.0834 22.4007 8.50504 20.9073 7.00004 18.644C7.03504 16.3223 11.6667 15.0507 14 15.0507C16.3217 15.0507 20.965 16.3223 21 18.644C19.495 20.9073 16.9167 22.4007 14 22.4007Z" fill="black"/>
</svg>
