<svg width="120" height="120" viewBox="0 0 120 120" fill="none" xmlns="http://www.w3.org/2000/svg">
<path d="M90.5617 60.1865C90.5589 60.1865 90.5544 60.1865 90.5504 60.1865H30.4987C30.203 60.1865 29.9288 60.0278 29.7765 59.7669C29.6241 59.5065 29.6152 59.1839 29.7534 58.9149L32.7647 53.074C32.9108 52.7906 33.1975 52.6134 33.51 52.6134H85.9014C86.1543 52.6134 86.3937 52.73 86.5539 52.9315L91.1321 58.6817C91.3002 58.8399 91.4053 59.0673 91.4053 59.3201C91.4047 59.7986 91.0281 60.1865 90.5617 60.1865ZM31.8992 58.4549H88.7728L85.5018 54.3457H34.0175L31.8992 58.4549Z" fill="black"/>
<path d="M91.9882 45.0407H28.491L35.711 26.3993H84.8574L91.9882 45.0407Z" fill="#E5F4E9"/>
<path d="M91.7366 45.6236C91.7338 45.6236 91.7299 45.6241 91.7255 45.6236H28.7428C28.4669 45.6236 28.2094 45.4886 28.0537 45.2633C27.8985 45.038 27.8651 44.7511 27.9658 44.4966L35.1274 26.3428C35.2525 26.0261 35.5606 25.8173 35.9043 25.8173H84.6529C84.9977 25.8173 85.3069 26.0272 85.4309 26.3461L92.4579 44.3815C92.5302 44.5037 92.5708 44.6453 92.5708 44.7973C92.5708 45.254 92.1976 45.6236 91.7366 45.6236ZM29.9641 43.9711H90.5097L84.08 27.4698H36.4744L29.9641 43.9711Z" fill="black"/>
<path d="M91.9882 45.0402H28.491V95.139H91.9882V45.0402Z" fill="#C0E4C9"/>
<path d="M59.3157 59.0221H49.4619V68.8953H59.3157V59.0221Z" fill="black"/>
<path d="M57.9074 60.433H50.869V67.4854H57.9074V60.433Z" fill="white"/>
<path d="M56.5002 61.8431H52.2771V66.0745H56.5002V61.8431Z" fill="black"/>
<path d="M59.3154 71.1511H49.4616V81.0244H59.3154V71.1511Z" fill="black"/>
<path d="M57.9074 72.5616H50.869V79.6139H57.9074V72.5616Z" fill="white"/>
<path d="M56.5003 73.9714H52.2772V78.2028H56.5003V73.9714Z" fill="black"/>
<path fill-rule="evenodd" clip-rule="evenodd" d="M64.2634 71.1511V73.4913H66.9425V78.6397H64.2634V80.9798H61.5844V78.1716H64.2634V73.9593H61.5844V71.1511H64.2634ZM71.4075 76.2995V80.9798H66.9425V78.6397L69.1749 78.6396L69.175 76.2995H71.4075ZM71.4075 71.1511V73.4913H69.175V71.1511H71.4075Z" fill="black"/>
<path d="M71.4382 59.022H61.5844V68.8952H71.4382V59.022Z" fill="black"/>
<path d="M70.0307 60.4327H62.9922V67.485H70.0307V60.4327Z" fill="white"/>
<path d="M68.6225 61.8437H64.3994V66.0751H68.6225V61.8437Z" fill="black"/>
<path d="M91.7364 95.1405H28.7428C28.2816 95.1405 27.9084 94.7509 27.9084 94.2694V44.7477C27.9084 44.2663 28.2816 43.8767 28.7428 43.8767H91.7364C92.197 43.8767 92.5708 44.2663 92.5708 44.7477V94.2694C92.5708 94.7509 92.197 95.1405 91.7364 95.1405ZM29.5771 93.3984H90.902V45.6188H29.5771V93.3984Z" fill="black"/>
<g clip-path="url(#clip0_130852_106120)">
<path fill-rule="evenodd" clip-rule="evenodd" d="M11.4607 3.57326C6.97205 3.57326 3.33325 7.21205 3.33325 11.7007V30.1353H0.464722V11.7007C0.464722 5.6278 5.38781 0.704731 11.4607 0.704731H29.8953V3.57326H11.4607ZM108.539 3.57326H90.312V0.704731H108.539C114.612 0.704731 119.535 5.62782 119.535 11.7007V30.1353H116.667V11.7007C116.667 7.21206 113.028 3.57326 108.539 3.57326ZM3.33325 90.7595V108.779C3.33325 113.268 6.97205 116.907 11.4607 116.907H29.6878V119.775H11.4607C5.38781 119.775 0.464722 114.852 0.464722 108.779V90.7595H3.33325ZM116.667 108.779V90.7595H119.535V108.779C119.535 114.852 114.612 119.775 108.539 119.775H90.312V116.907H108.539C113.028 116.907 116.667 113.268 116.667 108.779Z" fill="#00893D"/>
<rect x="0.238708" y="57.8492" width="119.522" height="2.86853" fill="#00893D"/>
</g>
<defs>
<clipPath id="clip0_130852_106120">
<rect width="119.522" height="119.522" fill="white" transform="translate(0.239075 0.478664)"/>
</clipPath>
</defs>
</svg>
