<svg width="64" height="64" viewBox="0 0 64 64" fill="none" xmlns="http://www.w3.org/2000/svg">
<g id="Frame">
<g id="Union">
<path fill-rule="evenodd" clip-rule="evenodd" d="M33.4577 50.5354L44.0961 56.9445V44.524L33.4577 38.5882V50.5354ZM35.08 35.9528L45.6765 41.8653L56.5564 35.5596L45.849 29.6452L35.08 35.9528ZM47.4566 27.0011V11.9977C47.4566 11.3869 47.1024 10.8589 46.5883 10.6078C46.5155 10.5478 46.4362 10.4936 46.3506 10.4464L32.9286 3.03244C32.6886 2.89987 32.4287 2.83785 32.1727 2.8395C31.9173 2.83603 31.6575 2.89591 31.417 3.02618L17.726 10.4402C17.7014 10.4535 17.6773 10.4674 17.6537 10.4818C17.171 10.7434 16.8432 11.2544 16.8432 11.842V26.9386L3.74666 34.0307C3.37163 34.2338 3.11432 34.5696 3.00137 34.9483C2.91245 35.1435 2.86291 35.3603 2.86291 35.5887V50.8642C2.80365 51.4331 3.06371 52.0129 3.58137 52.3365L17.2723 60.8931C17.3202 60.9231 17.3692 60.9501 17.419 60.9742C17.6524 61.1156 17.9262 61.197 18.2189 61.197C18.3467 61.197 18.4709 61.1815 18.5897 61.1523C18.7759 61.1191 18.9553 61.0518 19.1183 60.9528L31.913 53.2143L44.7924 60.9735C45.0326 61.1188 45.308 61.1956 45.5887 61.1955C45.6122 61.1955 45.6357 61.195 45.6591 61.1939C45.6717 61.1942 45.6844 61.1944 45.697 61.1944C45.974 61.1944 46.2457 61.1197 46.4837 60.9781L60.2419 52.8248C60.7546 52.5209 61.0277 51.9672 60.9978 51.4106L60.998 51.3842V35.4553C60.998 35.4204 60.9968 35.3857 60.9946 35.3514C60.9804 34.8216 60.6939 34.3129 60.1964 34.0381L47.4566 27.0011ZM30.3659 38.6899V50.5367L19.7648 56.9484V45.0886L30.3659 38.6899ZM18.5393 29.5361L29.0028 35.9014L18.2443 42.395L7.46101 35.5354L18.5393 29.5361ZM21.3579 11.9895L32.1599 6.13992L42.8297 12.0336L32.1334 18.0018L21.3579 11.9895ZM44.3648 26.9314V14.7176L33.4577 20.8034V33.3198L44.3648 26.9314ZM47.1879 44.5629V56.9669L57.9062 50.615V38.3509L47.2046 44.5533L47.1879 44.5629ZM30.3659 20.5561V33.1117L19.935 26.7662V14.7361L30.3659 20.5561ZM16.673 56.8727L5.95471 50.1739V38.2415L16.673 45.0597V56.8727Z" fill="#1D9BB2"/>
<path d="M33.4577 50.5354H33.2077V50.6766L33.3287 50.7495L33.4577 50.5354ZM44.0961 56.9445L43.9671 57.1587L44.3461 57.387V56.9445H44.0961ZM44.0961 44.524H44.3461V44.3772L44.2179 44.3057L44.0961 44.524ZM33.4577 38.5882L33.5795 38.3699L33.2077 38.1624V38.5882H33.4577ZM35.08 35.9528L34.9536 35.7371L34.5763 35.9581L34.9582 36.1711L35.08 35.9528ZM45.6765 41.8653L45.5547 42.0836L45.6789 42.1529L45.8019 42.0816L45.6765 41.8653ZM56.5564 35.5596L56.6818 35.7759L57.064 35.5544L56.6773 35.3408L56.5564 35.5596ZM45.849 29.6452L45.9699 29.4263L45.8454 29.3576L45.7226 29.4294L45.849 29.6452ZM47.4566 27.0011H47.2066V27.1486L47.3357 27.2199L47.4566 27.0011ZM46.5883 10.6078L46.4292 10.8007L46.452 10.8195L46.4786 10.8325L46.5883 10.6078ZM46.3506 10.4464L46.4715 10.2275L46.4715 10.2275L46.3506 10.4464ZM32.9286 3.03244L33.0495 2.81361L33.0495 2.8136L32.9286 3.03244ZM32.1727 2.8395L32.1693 3.08953L32.1743 3.08949L32.1727 2.8395ZM31.417 3.02618L31.536 3.24601L31.536 3.24601L31.417 3.02618ZM17.726 10.4402L17.607 10.2203L17.607 10.2203L17.726 10.4402ZM17.6537 10.4818L17.773 10.702L17.7843 10.695L17.6537 10.4818ZM16.8432 26.9386L16.9623 27.1584L17.0932 27.0875V26.9386H16.8432ZM3.74666 34.0307L3.62762 33.8109H3.62762L3.74666 34.0307ZM3.00137 34.9483L3.22886 35.052L3.23602 35.0363L3.24095 35.0198L3.00137 34.9483ZM2.86291 50.8642L3.11157 50.8901L3.11291 50.8772V50.8642H2.86291ZM3.58137 52.3365L3.44887 52.5485L3.44888 52.5485L3.58137 52.3365ZM17.2723 60.8931L17.1398 61.1051L17.1398 61.1051L17.2723 60.8931ZM17.419 60.9742L17.5486 60.7604L17.5386 60.7544L17.5281 60.7493L17.419 60.9742ZM18.5897 61.1523L18.5459 60.9061L18.5378 60.9076L18.5299 60.9095L18.5897 61.1523ZM19.1183 60.9528L18.989 60.7389L18.9886 60.7391L19.1183 60.9528ZM31.913 53.2143L32.042 53.0002L31.9127 52.9223L31.7836 53.0004L31.913 53.2143ZM44.7924 60.9735L44.9218 60.7596L44.9214 60.7594L44.7924 60.9735ZM45.5887 61.1955V60.9455H45.5887L45.5887 61.1955ZM45.6591 61.1939L45.6652 60.944L45.6564 60.9438L45.6477 60.9442L45.6591 61.1939ZM45.697 61.1944L45.6971 60.9444H45.697V61.1944ZM46.4837 60.9781L46.3562 60.763L46.3558 60.7633L46.4837 60.9781ZM60.2419 52.8248L60.1145 52.6097L60.2419 52.8248ZM60.9978 51.4106L60.7478 51.4085L60.7477 51.4163L60.7481 51.424L60.9978 51.4106ZM60.998 51.3842L61.248 51.3863V51.3842H60.998ZM60.9946 35.3514L60.7445 35.3581L60.7451 35.3679L60.9946 35.3514ZM60.1964 34.0381L60.3173 33.8193H60.3173L60.1964 34.0381ZM30.3659 50.5367L30.4953 50.7506L30.6159 50.6776V50.5367H30.3659ZM30.3659 38.6899H30.6159V38.247L30.2367 38.4759L30.3659 38.6899ZM19.7648 56.9484H19.5148V57.3918L19.8942 57.1623L19.7648 56.9484ZM19.7648 45.0886L19.6356 44.8745L19.5148 44.9474V45.0886H19.7648ZM29.0028 35.9014L29.132 36.1154L29.4852 35.9022L29.1327 35.6878L29.0028 35.9014ZM18.5393 29.5361L18.6692 29.3225L18.5465 29.2479L18.4202 29.3163L18.5393 29.5361ZM18.2443 42.395L18.1101 42.6059L18.2408 42.6891L18.3735 42.609L18.2443 42.395ZM7.46101 35.5354L7.34196 35.3155L6.968 35.5181L7.32682 35.7463L7.46101 35.5354ZM32.1599 6.13992L32.2808 5.92109L32.1611 5.85498L32.0408 5.92009L32.1599 6.13992ZM21.3579 11.9895L21.2389 11.7696L20.839 11.9862L21.2361 12.2078L21.3579 11.9895ZM42.8297 12.0336L42.9515 12.252L43.3447 12.0325L42.9506 11.8148L42.8297 12.0336ZM32.1334 18.0018L32.0116 18.2201L32.1334 18.288L32.2552 18.2201L32.1334 18.0018ZM44.3648 14.7176H44.6148V14.2919L44.243 14.4993L44.3648 14.7176ZM44.3648 26.9314L44.4911 27.1472L44.6148 27.0747V26.9314H44.3648ZM33.4577 20.8034L33.3359 20.5851L33.2077 20.6566V20.8034H33.4577ZM33.4577 33.3198H33.2077V33.7559L33.5841 33.5355L33.4577 33.3198ZM47.1879 56.9669H46.9379V57.4057L47.3153 57.182L47.1879 56.9669ZM47.1879 44.5629L47.0636 44.346L46.9379 44.418V44.5629H47.1879ZM57.9062 50.615L58.0337 50.8301L58.1562 50.7575V50.615H57.9062ZM57.9062 38.3509H58.1562V37.9171L57.7808 38.1346L57.9062 38.3509ZM47.2046 44.5533L47.3289 44.7702L47.3299 44.7696L47.2046 44.5533ZM30.3659 33.1117L30.236 33.3253L30.6159 33.5565V33.1117H30.3659ZM30.3659 20.5561H30.6159V20.4093L30.4877 20.3378L30.3659 20.5561ZM19.935 26.7662H19.685V26.9067L19.8051 26.9798L19.935 26.7662ZM19.935 14.7361L20.0568 14.5177L19.685 14.3103V14.7361H19.935ZM5.95471 50.1739H5.70471V50.3124L5.82221 50.3859L5.95471 50.1739ZM16.673 56.8727L16.5405 57.0847L16.923 57.3238V56.8727H16.673ZM5.95471 38.2415L6.08889 38.0306L5.70471 37.7862V38.2415H5.95471ZM16.673 45.0597H16.923V44.9225L16.8072 44.8488L16.673 45.0597ZM33.3287 50.7495L43.9671 57.1587L44.2251 56.7304L33.5867 50.3213L33.3287 50.7495ZM44.3461 56.9445V44.524H43.8461V56.9445H44.3461ZM44.2179 44.3057L33.5795 38.3699L33.3359 38.8065L43.9743 44.7423L44.2179 44.3057ZM33.7077 50.5354V38.5882H33.2077V50.5354H33.7077ZM34.9582 36.1711L45.5547 42.0836L45.7983 41.647L35.2018 35.7345L34.9582 36.1711ZM45.8019 42.0816L56.6818 35.7759L56.4311 35.3433L45.5512 41.649L45.8019 42.0816ZM56.6773 35.3408L45.9699 29.4263L45.7281 29.864L56.4355 35.7785L56.6773 35.3408ZM35.2063 36.1685L45.9753 29.8609L45.7226 29.4294L34.9536 35.7371L35.2063 36.1685ZM47.7066 27.0011V11.9977H47.2066V27.0011H47.7066ZM47.7066 11.9977C47.7066 11.2878 47.2947 10.6746 46.698 10.3832L46.4786 10.8325C46.9102 11.0433 47.2066 11.4861 47.2066 11.9977H47.7066ZM46.7473 10.415C46.6627 10.3452 46.5706 10.2823 46.4715 10.2275L46.2298 10.6652C46.3018 10.705 46.3683 10.7504 46.4292 10.8007L46.7473 10.415ZM46.4715 10.2275L33.0495 2.81361L32.8077 3.25128L46.2298 10.6652L46.4715 10.2275ZM33.0495 2.8136C32.771 2.6598 32.4688 2.58759 32.1711 2.5895L32.1743 3.08949C32.3885 3.08812 32.6062 3.13995 32.8077 3.25128L33.0495 2.8136ZM32.1761 2.58952C31.8791 2.58548 31.577 2.65521 31.2979 2.80635L31.536 3.24601C31.738 3.13661 31.9555 3.08657 32.1693 3.08947L32.1761 2.58952ZM31.2979 2.80634L17.607 10.2203L17.8451 10.66L31.536 3.24601L31.2979 2.80634ZM17.607 10.2203C17.5785 10.2358 17.5505 10.2519 17.5232 10.2686L17.7843 10.695C17.8041 10.6829 17.8243 10.6712 17.8451 10.66L17.607 10.2203ZM17.5346 10.262C16.9745 10.5655 16.5932 11.159 16.5932 11.842H17.0932C17.0932 11.3497 17.3675 10.9212 17.7728 10.7016L17.5346 10.262ZM16.5932 11.842V26.9386H17.0932V11.842H16.5932ZM16.7242 26.7187L3.62762 33.8109L3.86571 34.2506L16.9623 27.1584L16.7242 26.7187ZM3.62762 33.8109C3.192 34.0468 2.89291 34.4372 2.7618 34.8769L3.24095 35.0198C3.33574 34.7019 3.55127 34.4209 3.86571 34.2506L3.62762 33.8109ZM2.77388 34.8447C2.67043 35.0717 2.61291 35.3238 2.61291 35.5887H3.11291C3.11291 35.3968 3.15448 35.2152 3.22886 35.052L2.77388 34.8447ZM2.61291 35.5887V50.8642H3.11291V35.5887H2.61291ZM2.61426 50.8383C2.54548 51.4985 2.84717 52.1724 3.44887 52.5485L3.71387 52.1245C3.28024 51.8534 3.06182 51.3676 3.11157 50.8901L2.61426 50.8383ZM3.44888 52.5485L17.1398 61.1051L17.4048 60.6811L3.71387 52.1245L3.44888 52.5485ZM17.1398 61.1051C17.1954 61.1398 17.2522 61.1712 17.31 61.1992L17.5281 60.7493C17.4863 60.729 17.4451 60.7063 17.4047 60.6811L17.1398 61.1051ZM17.2895 61.1881C17.5608 61.3524 17.8792 61.447 18.2189 61.447V60.947C17.9731 60.947 17.744 60.8788 17.5486 60.7604L17.2895 61.1881ZM18.2189 61.447C18.367 61.447 18.5112 61.429 18.6494 61.395L18.5299 60.9095C18.4305 60.934 18.3264 60.947 18.2189 60.947V61.447ZM18.6335 61.3984C18.85 61.3599 19.0585 61.2816 19.2481 61.1665L18.9886 60.7391C18.8521 60.8219 18.7019 60.8784 18.5459 60.9061L18.6335 61.3984ZM19.2477 61.1667L32.0424 53.4282L31.7836 53.0004L18.989 60.7389L19.2477 61.1667ZM44.9214 60.7594L32.042 53.0002L31.784 53.4284L44.6634 61.1877L44.9214 60.7594ZM45.5887 60.9455C45.3536 60.9456 45.123 60.8813 44.9218 60.7596L44.663 61.1874C44.9423 61.3563 45.2624 61.4456 45.5888 61.4455L45.5887 60.9455ZM45.6477 60.9442C45.6281 60.9451 45.6084 60.9455 45.5887 60.9455V61.4455C45.616 61.4455 45.6432 61.4449 45.6704 61.4437L45.6477 60.9442ZM45.697 60.9444C45.6864 60.9444 45.6758 60.9443 45.6652 60.944L45.653 61.4438C45.6676 61.4442 45.6823 61.4444 45.697 61.4444V60.9444ZM46.3558 60.7633C46.1566 60.8819 45.929 60.9444 45.6971 60.9444L45.697 61.4444C46.0189 61.4444 46.3349 61.3576 46.6116 61.1929L46.3558 60.7633ZM60.1145 52.6097L46.3562 60.763L46.6112 61.1932L60.3694 53.0398L60.1145 52.6097ZM60.7481 51.424C60.7732 51.8913 60.544 52.3552 60.1145 52.6097L60.3694 53.0398C60.9653 52.6867 61.2821 52.0431 61.2474 51.3972L60.7481 51.424ZM60.748 51.3821L60.7478 51.4085L61.2478 51.4127L61.248 51.3863L60.748 51.3821ZM60.748 35.4553V51.3842H61.248V35.4553H60.748ZM60.7451 35.3679C60.747 35.3968 60.748 35.4259 60.748 35.4553H61.248C61.248 35.4148 61.2467 35.3747 61.244 35.3349L60.7451 35.3679ZM60.0755 34.257C60.4923 34.4872 60.7327 34.9132 60.7446 35.3581L61.2445 35.3447C61.228 34.73 60.8955 34.1387 60.3173 33.8193L60.0755 34.257ZM47.3357 27.2199L60.0755 34.257L60.3173 33.8193L47.5775 26.7822L47.3357 27.2199ZM30.6159 50.5367V38.6899H30.1159V50.5367H30.6159ZM19.8942 57.1623L30.4953 50.7506L30.2366 50.3227L19.6355 56.7345L19.8942 57.1623ZM19.5148 45.0886V56.9484H20.0148V45.0886H19.5148ZM30.2367 38.4759L19.6356 44.8745L19.894 45.3026L30.4951 38.904L30.2367 38.4759ZM29.1327 35.6878L18.6692 29.3225L18.4093 29.7497L28.8728 36.1149L29.1327 35.6878ZM18.3735 42.609L29.132 36.1154L28.8736 35.6873L18.1151 42.1809L18.3735 42.609ZM7.32682 35.7463L18.1101 42.6059L18.3785 42.184L7.59519 35.3244L7.32682 35.7463ZM18.4202 29.3163L7.34196 35.3155L7.58005 35.7552L18.6583 29.756L18.4202 29.3163ZM32.0408 5.92009L21.2389 11.7696L21.477 12.2093L32.2789 6.35976L32.0408 5.92009ZM42.9506 11.8148L32.2808 5.92109L32.039 6.35876L42.7088 12.2525L42.9506 11.8148ZM32.2552 18.2201L42.9515 12.252L42.7079 11.8153L32.0116 17.7834L32.2552 18.2201ZM21.2361 12.2078L32.0116 18.2201L32.2552 17.7834L21.4797 11.7711L21.2361 12.2078ZM44.1148 14.7176V26.9314H44.6148V14.7176H44.1148ZM33.5795 21.0217L44.4866 14.9359L44.243 14.4993L33.3359 20.5851L33.5795 21.0217ZM33.7077 33.3198V20.8034H33.2077V33.3198H33.7077ZM44.2384 26.7157L33.3314 33.104L33.5841 33.5355L44.4911 27.1472L44.2384 26.7157ZM47.4379 56.9669V44.5629H46.9379V56.9669H47.4379ZM57.7787 50.4L47.0604 56.7519L47.3153 57.182L58.0337 50.8301L57.7787 50.4ZM57.6562 38.3509V50.615H58.1562V38.3509H57.6562ZM47.3299 44.7696L58.0316 38.5672L57.7808 38.1346L47.0792 44.337L47.3299 44.7696ZM47.3122 44.7798L47.3289 44.7702L47.0802 44.3364L47.0636 44.346L47.3122 44.7798ZM30.6159 33.1117V20.5561H30.1159V33.1117H30.6159ZM19.8051 26.9798L30.236 33.3253L30.4959 32.8982L20.0649 26.5526L19.8051 26.9798ZM19.685 14.7361V26.7662H20.185V14.7361H19.685ZM30.4877 20.3378L20.0568 14.5177L19.8132 14.9544L30.2441 20.7745L30.4877 20.3378ZM5.82221 50.3859L16.5405 57.0847L16.8055 56.6607L6.08721 49.9619L5.82221 50.3859ZM5.70471 38.2415V50.1739H6.20471V38.2415H5.70471ZM16.8072 44.8488L6.08889 38.0306L5.82053 38.4524L16.5389 45.2707L16.8072 44.8488ZM16.923 56.8727V45.0597H16.423V56.8727H16.923Z" fill="#1D9BB2"/>
</g>
<path id="Vector 1" d="M32.2727 5L20 11.8182L31.8182 20L45 12.7273L32.2727 5Z" fill="#1D9BB2" fill-opacity="0.4"/>
<path id="Vector 2" d="M18.2727 28L6 34.8182L17.8182 43L31 35.7273L18.2727 28Z" fill="#1D9BB2" fill-opacity="0.4"/>
<path id="Vector 3" d="M45.2727 28L33 34.8182L44.8182 43L58 35.7273L45.2727 28Z" fill="#1D9BB2" fill-opacity="0.4"/>
</g>
</svg>
