<svg width="25" height="24" viewBox="0 0 25 24" fill="none" xmlns="http://www.w3.org/2000/svg">
<path d="M12.4884 0.333984C6.04837 0.333984 0.833374 5.56065 0.833374 12.0007C0.833374 18.4407 6.04837 23.6673 12.4884 23.6673C18.94 23.6673 24.1667 18.4407 24.1667 12.0007C24.1667 5.56065 18.94 0.333984 12.4884 0.333984ZM12.5 21.334C7.34337 21.334 3.16671 17.1573 3.16671 12.0007C3.16671 6.84398 7.34337 2.66732 12.5 2.66732C17.6567 2.66732 21.8334 6.84398 21.8334 12.0007C21.8334 17.1573 17.6567 21.334 12.5 21.334Z" fill="#9CA2A5"/>
<path d="M13.0834 6.16732H11.3334V13.1673L17.4584 16.8423L18.3334 15.4073L13.0834 12.2923V6.16732Z" fill="#9CA2A5"/>
</svg>
