<svg width="32" height="32" viewBox="0 0 32 32" fill="none" xmlns="http://www.w3.org/2000/svg">
<path fill-rule="evenodd" clip-rule="evenodd" d="M18.4874 6.71429H14.0303C13.2094 6.71429 12.5446 5.88229 12.5446 4.85714C12.5446 3.832 13.2094 3 14.0303 3H18.4874C19.3083 3 19.9732 3.832 19.9732 4.85714C19.9732 5.88229 19.3083 6.71429 18.4874 6.71429ZM21.7746 4.85714H25.1779C26.4723 4.86642 27.5179 5.94357 27.5179 7.27142V26.5857C27.5179 27.9191 26.463 29 25.1593 29H7.35857C6.05486 29 5 27.9191 5 26.5857V7.27142C5 5.93799 6.05857 4.85714 7.35671 4.85714H10.7748C10.7748 6.63442 12.1825 8.07557 13.9171 8.07557H18.6324C20.3669 8.07557 21.7746 6.63442 21.7746 4.85714Z" fill="url(#paint0_linear_133543_17674)"/>
<path d="M14.9358 22.921C14.6828 22.921 14.4307 22.824 14.2378 22.631L10.2887 18.666C9.90375 18.279 9.90375 17.651 10.2887 17.264C10.6747 16.877 11.2998 16.877 11.6848 17.264L14.9358 20.528L21.1477 14.291C21.5328 13.903 22.1578 13.903 22.5437 14.291C22.9288 14.678 22.9288 15.305 22.5437 15.692L15.6337 22.631C15.4408 22.824 15.1877 22.921 14.9358 22.921Z" fill="white" stroke="white"/>
<defs>
<linearGradient id="paint0_linear_133543_17674" x1="16.2589" y1="3" x2="16.2589" y2="29" gradientUnits="userSpaceOnUse">
<stop stop-color="#1CAA52"/>
<stop offset="1" stop-color="#129B49"/>
</linearGradient>
</defs>
</svg>