<svg width="36" height="36" viewBox="0 0 36 36" fill="none" xmlns="http://www.w3.org/2000/svg">
<path d="M23.3169 10.1413V22.3374C23.3169 22.6639 22.9671 22.8971 22.664 22.7805L18.4665 21.0549C18.14 20.915 17.7902 20.915 17.4637 21.0549L13.2662 22.7805C12.963 22.8971 12.6132 22.6872 12.6132 22.3374V10.1413H1.00006V34.0672C1.00006 34.5802 1.41981 35 1.93285 35H33.974C34.487 35 34.9068 34.5802 34.9068 34.0672V10.1413H23.3169ZM34.8601 8.81207C34.8368 8.67215 34.7669 8.53224 34.6736 8.41564L28.9603 1.34979C28.7737 1.13992 28.5172 1 28.2374 1H7.78607C7.50624 1 7.24972 1.1166 7.06316 1.32647L1.20994 8.41564C1.11666 8.53224 1.0467 8.67215 1.02338 8.81207H34.8601Z" fill="#646464"/>
</svg>
