<svg width="36" height="36" viewBox="0 0 36 36" fill="none" xmlns="http://www.w3.org/2000/svg">
<g clip-path="url(#clip0_129295_15514)">
<path d="M35.9444 34.0414C35.9669 34.2906 35.9371 34.5418 35.857 34.7788C35.7768 35.0158 35.648 35.2335 35.4789 35.4179C35.3097 35.6022 35.1039 35.7492 34.8747 35.8495C34.6454 35.9497 34.3977 36.001 34.1475 36H1.80415C1.55394 36.001 1.30627 35.9497 1.07701 35.8495C0.84775 35.7492 0.641953 35.6022 0.4728 35.4179C0.303647 35.2335 0.174866 35.0158 0.0947057 34.7788C0.0145451 34.5418 -0.0152279 34.2906 0.00729356 34.0414L1.80415 9.41551C1.82944 8.95629 2.02986 8.52425 2.36414 8.20836C2.69841 7.89247 3.14109 7.71679 3.601 7.71748H9.6564V12.2096C9.33866 12.6036 9.12013 13.0681 9.01918 13.5641C8.91823 14.0601 8.93781 14.5731 9.07627 15.06C9.21474 15.5468 9.46804 15.9933 9.8149 16.362C10.1618 16.7306 10.592 17.0106 11.0696 17.1784C11.5471 17.3463 12.0579 17.397 12.5592 17.3264C13.0604 17.2558 13.5373 17.066 13.9499 16.7728C14.3625 16.4796 14.6987 16.0916 14.9303 15.6415C15.1618 15.1914 15.282 14.6923 15.2806 14.1862C15.281 13.4846 15.0435 12.8036 14.6067 12.2545V7.71748H21.336V12.2545C20.8992 12.803 20.6645 13.4851 20.6711 14.1862C20.7143 14.9969 21.0668 15.7602 21.656 16.3189C22.2452 16.8775 23.0262 17.1889 23.8381 17.1889C24.65 17.1889 25.431 16.8775 26.0202 16.3189C26.6093 15.7602 26.9618 14.9969 27.005 14.1862C27.0055 13.4846 26.768 12.8036 26.3312 12.2545V7.71748H32.3507C32.8106 7.71679 33.2533 7.89247 33.5875 8.20836C33.9218 8.52425 34.1222 8.95629 34.1475 9.41551L35.9444 34.0414ZM25.6394 14.1862C25.6374 14.4905 25.5582 14.7894 25.4091 15.0547C25.26 15.32 25.046 15.5432 24.7871 15.7031C24.5281 15.8631 24.2328 15.9547 23.9288 15.9693C23.6248 15.9839 23.3221 15.921 23.049 15.7866C22.776 15.6522 22.5415 15.4506 22.3677 15.2008C22.1938 14.951 22.0863 14.6611 22.0552 14.3583C22.024 14.0556 22.0703 13.7499 22.1897 13.4699C22.309 13.1899 22.4975 12.9448 22.7375 12.7577C22.7325 12.6889 22.7325 12.6198 22.7375 12.551V6.98976C22.7374 5.73649 22.2395 4.53458 21.3532 3.64843C20.467 2.76227 19.265 2.26444 18.0118 2.26444C16.7585 2.26444 15.5566 2.76227 14.6703 3.64843C13.7841 4.53458 13.2862 5.73649 13.286 6.98976V12.551C13.2911 12.6198 13.2911 12.6889 13.286 12.7577C13.5845 12.9859 13.8038 13.3019 13.9133 13.6613C14.0228 14.0207 14.0169 14.4053 13.8964 14.7612C13.7759 15.117 13.547 15.4261 13.2417 15.6451C12.9364 15.864 12.5701 15.9818 12.1945 15.9818C11.8188 15.9818 11.4525 15.864 11.1473 15.6451C10.842 15.4261 10.613 15.117 10.4925 14.7612C10.372 14.4053 10.3661 14.0207 10.4756 13.6613C10.5851 13.3019 10.8045 12.9859 11.1029 12.7577C11.0978 12.6889 11.0978 12.6198 11.1029 12.551V6.98976C11.103 5.13604 11.8395 3.35829 13.1503 2.04757C14.4611 0.73684 16.2389 0.000488281 18.0926 0.000488281C19.9463 0.000488281 21.7241 0.73684 23.035 2.04757C24.3458 3.35829 25.0823 5.13604 25.0824 6.98976V12.551C25.0727 12.6209 25.0577 12.69 25.0375 12.7577C25.2381 12.9357 25.3963 13.1565 25.5004 13.4037C25.6046 13.6508 25.6521 13.9182 25.6394 14.1862Z" fill="#646464"/>
</g>
<defs>
<clipPath id="clip0_129295_15514">
<rect width="36" height="36" fill="white"/>
</clipPath>
</defs>
</svg>
