<svg width="36" height="36" viewBox="0 0 36 36" fill="none" xmlns="http://www.w3.org/2000/svg">
<path d="M23.3169 10.1413V22.3375C23.3169 22.6639 22.9671 22.8971 22.6639 22.7805L18.4664 21.0549C18.1399 20.915 17.7901 20.915 17.4637 21.0549L13.2661 22.7805C12.963 22.8971 12.6132 22.6872 12.6132 22.3375V10.1413H1V34.0672C1 34.5802 1.41975 35 1.93278 35H33.9739C34.487 35 34.9067 34.5802 34.9067 34.0672V10.1413H23.3169ZM34.8601 8.81207C34.8368 8.67215 34.7668 8.53224 34.6735 8.41564L28.9602 1.34979C28.7737 1.13992 28.5171 1 28.2373 1H7.78601C7.50617 1 7.24966 1.1166 7.0631 1.32647L1.20988 8.41564C1.1166 8.53224 1.04664 8.67215 1.02332 8.81207H34.8601Z" fill="#00893D"/>
</svg>
