<svg width="64" height="65" viewBox="0 0 64 65" fill="none" xmlns="http://www.w3.org/2000/svg">
<g id="Frame">
<g id="Union">
<path fill-rule="evenodd" clip-rule="evenodd" d="M33.4576 51.0359L44.096 57.445V45.0245L33.4576 39.0887V51.0359ZM35.0798 36.4533L45.6764 42.3658L56.5563 36.0601L45.8489 30.1457L35.0798 36.4533ZM47.4565 27.5015V12.4982C47.4565 11.8874 47.1023 11.3594 46.5882 11.1083C46.5154 11.0483 46.4361 10.9941 46.3505 10.9469L32.9285 3.53293C32.6885 3.40036 32.4285 3.33834 32.1725 3.33999C31.9172 3.33651 31.6574 3.39639 31.4168 3.52666L17.7259 10.9407C17.7013 10.954 17.6772 10.9679 17.6536 10.9823C17.1709 11.2439 16.8431 11.7549 16.8431 12.3425V27.4391L3.74654 34.5312C3.37151 34.7343 3.1142 35.0701 3.00125 35.4488C2.91233 35.6439 2.86279 35.8608 2.86279 36.0892V51.3647C2.80353 51.9335 3.06358 52.5134 3.58125 52.8369L17.2721 61.3936C17.3201 61.4236 17.3691 61.4506 17.4189 61.4747C17.6523 61.6161 17.926 61.6975 18.2188 61.6975C18.3466 61.6975 18.4708 61.682 18.5895 61.6528C18.7758 61.6196 18.9552 61.5522 19.1182 61.4533L31.9129 53.7148L44.7923 61.474C45.0325 61.6193 45.3079 61.696 45.5886 61.696C45.6121 61.696 45.6355 61.6955 45.6589 61.6944C45.6716 61.6947 45.6842 61.6949 45.6969 61.6949C45.9738 61.6949 46.2456 61.6202 46.4836 61.4786L60.2418 53.3252C60.7545 53.0214 61.0276 52.4677 60.9977 51.9111L60.9979 51.8847V35.9558C60.9979 35.9209 60.9967 35.8862 60.9944 35.8519C60.9803 35.3221 60.6938 34.8134 60.1963 34.5386L47.4565 27.5015ZM30.3658 39.1904V51.0371L19.7647 57.4489V45.5891L30.3658 39.1904ZM18.5391 30.0366L29.0026 36.4018L18.2442 42.8955L7.46088 36.0359L18.5391 30.0366ZM21.3578 12.4899L32.1598 6.64041L42.8296 12.5341L32.1333 18.5023L21.3578 12.4899ZM44.3647 27.4319V15.2181L33.4576 21.3039V33.8203L44.3647 27.4319ZM47.1878 45.0634V57.4674L57.9061 51.1155V38.8514L47.2044 45.0538L47.1878 45.0634ZM30.3658 21.0566V33.6122L19.9349 27.2667V15.2366L30.3658 21.0566ZM16.6729 57.3732L5.95459 50.6743V38.742L16.6729 45.5602V57.3732Z" fill="#56B496"/>
<path d="M33.4576 51.0359H33.2076V51.1771L33.3286 51.25L33.4576 51.0359ZM44.096 57.445L43.9669 57.6592L44.346 57.8875V57.445H44.096ZM44.096 45.0245H44.346V44.8777L44.2178 44.8062L44.096 45.0245ZM33.4576 39.0887L33.5794 38.8703L33.2076 38.6629V39.0887H33.4576ZM35.0798 36.4533L34.9535 36.2376L34.5762 36.4585L34.958 36.6716L35.0798 36.4533ZM45.6764 42.3658L45.5546 42.5841L45.6787 42.6534L45.8017 42.5821L45.6764 42.3658ZM56.5563 36.0601L56.6816 36.2764L57.0639 36.0549L56.6772 35.8413L56.5563 36.0601ZM45.8489 30.1457L45.9697 29.9268L45.8452 29.858L45.7225 29.9299L45.8489 30.1457ZM47.4565 27.5015H47.2065V27.6491L47.3356 27.7204L47.4565 27.5015ZM46.5882 11.1083L46.4291 11.3012L46.4519 11.32L46.4784 11.3329L46.5882 11.1083ZM46.3505 10.9469L46.4714 10.728L46.4714 10.728L46.3505 10.9469ZM32.9285 3.53293L33.0494 3.31409L33.0494 3.31409L32.9285 3.53293ZM32.1725 3.33999L32.1691 3.59001L32.1741 3.58998L32.1725 3.33999ZM31.4168 3.52666L31.5359 3.7465L31.5359 3.74649L31.4168 3.52666ZM17.7259 10.9407L17.6068 10.7208L17.6068 10.7208L17.7259 10.9407ZM17.6536 10.9823L17.7729 11.2024L17.7842 11.1955L17.6536 10.9823ZM16.8431 27.4391L16.9621 27.6589L17.0931 27.588V27.4391H16.8431ZM3.74654 34.5312L3.62749 34.3114H3.62749L3.74654 34.5312ZM3.00125 35.4488L3.22874 35.5525L3.2359 35.5368L3.24083 35.5203L3.00125 35.4488ZM2.86279 51.3647L3.11145 51.3906L3.11279 51.3777V51.3647H2.86279ZM3.58125 52.8369L3.44875 53.0489L3.44875 53.049L3.58125 52.8369ZM17.2721 61.3936L17.1396 61.6056L17.1396 61.6056L17.2721 61.3936ZM17.4189 61.4747L17.5485 61.2609L17.5385 61.2548L17.5279 61.2497L17.4189 61.4747ZM18.5895 61.6528L18.5457 61.4066L18.5377 61.408L18.5298 61.41L18.5895 61.6528ZM19.1182 61.4533L18.9888 61.2393L18.9885 61.2396L19.1182 61.4533ZM31.9129 53.7148L32.0419 53.5006L31.9126 53.4228L31.7835 53.5009L31.9129 53.7148ZM44.7923 61.474L44.9217 61.2601L44.9213 61.2599L44.7923 61.474ZM45.5886 61.696V61.446H45.5886L45.5886 61.696ZM45.6589 61.6944L45.665 61.4445L45.6563 61.4443L45.6476 61.4447L45.6589 61.6944ZM45.6969 61.6949L45.697 61.4449H45.6969V61.6949ZM46.4836 61.4786L46.3561 61.2635L46.3557 61.2638L46.4836 61.4786ZM60.2418 53.3252L60.1144 53.1102L60.2418 53.3252ZM60.9977 51.9111L60.7477 51.909L60.7476 51.9168L60.748 51.9245L60.9977 51.9111ZM60.9979 51.8847L61.2479 51.8868V51.8847H60.9979ZM60.9944 35.8519L60.7443 35.8586L60.745 35.8684L60.9944 35.8519ZM60.1963 34.5386L60.3172 34.3198H60.3172L60.1963 34.5386ZM30.3658 51.0371L30.4952 51.2511L30.6158 51.1781V51.0371H30.3658ZM30.3658 39.1904H30.6158V38.7475L30.2366 38.9764L30.3658 39.1904ZM19.7647 57.4489H19.5147V57.8922L19.8941 57.6628L19.7647 57.4489ZM19.7647 45.5891L19.6355 45.375L19.5147 45.4479V45.5891H19.7647ZM29.0026 36.4018L29.1318 36.6159L29.4851 36.4027L29.1326 36.1883L29.0026 36.4018ZM18.5391 30.0366L18.6691 29.823L18.5464 29.7484L18.4201 29.8168L18.5391 30.0366ZM18.2442 42.8955L18.11 43.1064L18.2407 43.1895L18.3734 43.1095L18.2442 42.8955ZM7.46088 36.0359L7.34184 35.816L6.96787 36.0185L7.3267 36.2468L7.46088 36.0359ZM32.1598 6.64041L32.2806 6.42158L32.1609 6.35546L32.0407 6.42058L32.1598 6.64041ZM21.3578 12.4899L21.2387 12.2701L20.8388 12.4867L21.236 12.7083L21.3578 12.4899ZM42.8296 12.5341L42.9514 12.7524L43.3446 12.533L42.9504 12.3153L42.8296 12.5341ZM32.1333 18.5023L32.0115 18.7206L32.1333 18.7885L32.2551 18.7206L32.1333 18.5023ZM44.3647 15.2181H44.6147V14.7923L44.2429 14.9998L44.3647 15.2181ZM44.3647 27.4319L44.491 27.6476L44.6147 27.5752V27.4319H44.3647ZM33.4576 21.3039L33.3358 21.0855L33.2076 21.1571V21.3039H33.4576ZM33.4576 33.8203H33.2076V34.2564L33.584 34.036L33.4576 33.8203ZM47.1878 57.4674H46.9378V57.9062L47.3152 57.6825L47.1878 57.4674ZM47.1878 45.0634L47.0634 44.8465L46.9378 44.9185V45.0634H47.1878ZM57.9061 51.1155L58.0335 51.3306L58.1561 51.258V51.1155H57.9061ZM57.9061 38.8514H58.1561V38.4176L57.7807 38.6351L57.9061 38.8514ZM47.2044 45.0538L47.3288 45.2707L47.3298 45.2701L47.2044 45.0538ZM30.3658 33.6122L30.2359 33.8258L30.6158 34.0569V33.6122H30.3658ZM30.3658 21.0566H30.6158V20.9098L30.4876 20.8383L30.3658 21.0566ZM19.9349 27.2667H19.6849V27.4072L19.805 27.4803L19.9349 27.2667ZM19.9349 15.2366L20.0567 15.0182L19.6849 14.8108V15.2366H19.9349ZM5.95459 50.6743H5.70459V50.8129L5.82209 50.8863L5.95459 50.6743ZM16.6729 57.3732L16.5404 57.5852L16.9229 57.8243V57.3732H16.6729ZM5.95459 38.742L6.08877 38.5311L5.70459 38.2867V38.742H5.95459ZM16.6729 45.5602H16.9229V45.4229L16.8071 45.3493L16.6729 45.5602ZM33.3286 51.25L43.9669 57.6592L44.225 57.2309L33.5866 50.8217L33.3286 51.25ZM44.346 57.445V45.0245H43.846V57.445H44.346ZM44.2178 44.8062L33.5794 38.8703L33.3358 39.307L43.9741 45.2428L44.2178 44.8062ZM33.7076 51.0359V39.0887H33.2076V51.0359H33.7076ZM34.958 36.6716L45.5546 42.5841L45.7982 42.1475L35.2017 36.235L34.958 36.6716ZM45.8017 42.5821L56.6816 36.2764L56.4309 35.8438L45.551 42.1495L45.8017 42.5821ZM56.6772 35.8413L45.9697 29.9268L45.728 30.3645L56.4354 36.2789L56.6772 35.8413ZM35.2062 36.669L45.9752 30.3614L45.7225 29.9299L34.9535 36.2376L35.2062 36.669ZM47.7065 27.5015V12.4982H47.2065V27.5015H47.7065ZM47.7065 12.4982C47.7065 11.7883 47.2946 11.1751 46.6979 10.8837L46.4784 11.3329C46.91 11.5437 47.2065 11.9866 47.2065 12.4982H47.7065ZM46.7472 10.9154C46.6626 10.8457 46.5705 10.7828 46.4714 10.728L46.2296 11.1657C46.3016 11.2055 46.3682 11.2509 46.4291 11.3012L46.7472 10.9154ZM46.4714 10.728L33.0494 3.31409L32.8076 3.75176L46.2296 11.1657L46.4714 10.728ZM33.0494 3.31409C32.7709 3.16029 32.4686 3.08808 32.1709 3.08999L32.1741 3.58998C32.3884 3.5886 32.606 3.64043 32.8076 3.75177L33.0494 3.31409ZM32.1759 3.09001C31.8789 3.08597 31.5769 3.1557 31.2978 3.30683L31.5359 3.74649C31.7379 3.63709 31.9554 3.58706 32.1691 3.58996L32.1759 3.09001ZM31.2978 3.30683L17.6068 10.7208L17.8449 11.1605L31.5359 3.7465L31.2978 3.30683ZM17.6068 10.7208C17.5783 10.7363 17.5504 10.7524 17.523 10.7691L17.7842 11.1955C17.804 11.1834 17.8242 11.1717 17.8449 11.1605L17.6068 10.7208ZM17.5345 10.7625C16.9744 11.066 16.5931 11.6595 16.5931 12.3425H17.0931C17.0931 11.8502 17.3674 11.4217 17.7727 11.2021L17.5345 10.7625ZM16.5931 12.3425V27.4391H17.0931V12.3425H16.5931ZM16.724 27.2192L3.62749 34.3114L3.86559 34.7511L16.9621 27.6589L16.724 27.2192ZM3.62749 34.3114C3.19188 34.5473 2.89278 34.9377 2.76168 35.3774L3.24083 35.5203C3.33562 35.2024 3.55115 34.9214 3.86559 34.7511L3.62749 34.3114ZM2.77376 35.3452C2.6703 35.5722 2.61279 35.8243 2.61279 36.0892H3.11279C3.11279 35.8973 3.15436 35.7157 3.22874 35.5525L2.77376 35.3452ZM2.61279 36.0892V51.3647H3.11279V36.0892H2.61279ZM2.61414 51.3388C2.54536 51.999 2.84705 52.6729 3.44875 53.0489L3.71375 52.625C3.28012 52.3539 3.0617 51.8681 3.11145 51.3906L2.61414 51.3388ZM3.44875 53.049L17.1396 61.6056L17.4046 61.1816L3.71375 52.6249L3.44875 53.049ZM17.1396 61.6056C17.1952 61.6403 17.2521 61.6717 17.3099 61.6997L17.5279 61.2497C17.4862 61.2295 17.445 61.2068 17.4046 61.1816L17.1396 61.6056ZM17.2894 61.6885C17.5607 61.8529 17.8791 61.9475 18.2188 61.9475V61.4475C17.973 61.4475 17.7439 61.3793 17.5485 61.2609L17.2894 61.6885ZM18.2188 61.9475C18.3669 61.9475 18.5111 61.9295 18.6493 61.8955L18.5298 61.41C18.4304 61.4345 18.3263 61.4475 18.2188 61.4475V61.9475ZM18.6333 61.8989C18.8499 61.8603 19.0584 61.782 19.2479 61.667L18.9885 61.2396C18.8519 61.3224 18.7017 61.3789 18.5457 61.4066L18.6333 61.8989ZM19.2476 61.6672L32.0423 53.9287L31.7835 53.5009L18.9888 61.2393L19.2476 61.6672ZM44.9213 61.2599L32.0419 53.5006L31.7839 53.9289L44.6633 61.6881L44.9213 61.2599ZM45.5886 61.446C45.3535 61.446 45.1228 61.3817 44.9217 61.2601L44.6629 61.6879C44.9422 61.8568 45.2623 61.9461 45.5887 61.946L45.5886 61.446ZM45.6476 61.4447C45.628 61.4456 45.6083 61.446 45.5886 61.446V61.946C45.6159 61.946 45.6431 61.9454 45.6703 61.9442L45.6476 61.4447ZM45.6969 61.4449C45.6863 61.4449 45.6757 61.4447 45.665 61.4445L45.6528 61.9443C45.6675 61.9447 45.6822 61.9449 45.6969 61.9449V61.4449ZM46.3557 61.2638C46.1565 61.3823 45.9289 61.4449 45.697 61.4449L45.6969 61.9449C46.0188 61.9449 46.3348 61.8581 46.6114 61.6934L46.3557 61.2638ZM60.1144 53.1102L46.3561 61.2635L46.611 61.6937L60.3693 53.5403L60.1144 53.1102ZM60.748 51.9245C60.7731 52.3918 60.5439 52.8556 60.1144 53.1102L60.3693 53.5403C60.9652 53.1872 61.282 52.5436 61.2473 51.8977L60.748 51.9245ZM60.7479 51.8826L60.7477 51.909L61.2476 51.9132L61.2479 51.8868L60.7479 51.8826ZM60.7479 35.9558V51.8847H61.2479V35.9558H60.7479ZM60.745 35.8684C60.7469 35.8973 60.7479 35.9264 60.7479 35.9558H61.2479C61.2479 35.9153 61.2465 35.8752 61.2439 35.8353L60.745 35.8684ZM60.0754 34.7574C60.4922 34.9877 60.7326 35.4137 60.7445 35.8586L61.2444 35.8452C61.2279 35.2304 60.8954 34.6392 60.3172 34.3198L60.0754 34.7574ZM47.3356 27.7204L60.0754 34.7574L60.3172 34.3198L47.5773 27.2827L47.3356 27.7204ZM30.6158 51.0371V39.1904H30.1158V51.0371H30.6158ZM19.8941 57.6628L30.4952 51.2511L30.2364 50.8232L19.6353 57.235L19.8941 57.6628ZM19.5147 45.5891V57.4489H20.0147V45.5891H19.5147ZM30.2366 38.9764L19.6355 45.375L19.8939 45.8031L30.495 39.4045L30.2366 38.9764ZM29.1326 36.1883L18.6691 29.823L18.4092 30.2502L28.8727 36.6154L29.1326 36.1883ZM18.3734 43.1095L29.1318 36.6159L28.8735 36.1878L18.115 42.6814L18.3734 43.1095ZM7.3267 36.2468L18.11 43.1064L18.3784 42.6845L7.59507 35.8249L7.3267 36.2468ZM18.4201 29.8168L7.34184 35.816L7.57993 36.2557L18.6582 30.2565L18.4201 29.8168ZM32.0407 6.42058L21.2387 12.2701L21.4768 12.7098L32.2788 6.86025L32.0407 6.42058ZM42.9504 12.3153L32.2806 6.42158L32.0389 6.85925L42.7087 12.753L42.9504 12.3153ZM32.2551 18.7206L42.9514 12.7524L42.7078 12.3158L32.0115 18.2839L32.2551 18.7206ZM21.236 12.7083L32.0115 18.7206L32.2551 18.2839L21.4796 12.2716L21.236 12.7083ZM44.1147 15.2181V27.4319H44.6147V15.2181H44.1147ZM33.5794 21.5222L44.4865 15.4364L44.2429 14.9998L33.3358 21.0855L33.5794 21.5222ZM33.7076 33.8203V21.3039H33.2076V33.8203H33.7076ZM44.2383 27.2162L33.3313 33.6045L33.584 34.036L44.491 27.6476L44.2383 27.2162ZM47.4378 57.4674V45.0634H46.9378V57.4674H47.4378ZM57.7786 50.9005L47.0603 57.2524L47.3152 57.6825L58.0335 51.3306L57.7786 50.9005ZM57.6561 38.8514V51.1155H58.1561V38.8514H57.6561ZM47.3298 45.2701L58.0314 39.0677L57.7807 38.6351L47.0791 44.8375L47.3298 45.2701ZM47.3121 45.2803L47.3288 45.2707L47.0801 44.8369L47.0634 44.8465L47.3121 45.2803ZM30.6158 33.6122V21.0566H30.1158V33.6122H30.6158ZM19.805 27.4803L30.2359 33.8258L30.4957 33.3987L20.0648 27.0531L19.805 27.4803ZM19.6849 15.2366V27.2667H20.1849V15.2366H19.6849ZM30.4876 20.8383L20.0567 15.0182L19.8131 15.4549L30.244 21.2749L30.4876 20.8383ZM5.82209 50.8863L16.5404 57.5852L16.8054 57.1612L6.08709 50.4623L5.82209 50.8863ZM5.70459 38.742V50.6743H6.20459V38.742H5.70459ZM16.8071 45.3493L6.08877 38.5311L5.82041 38.9529L16.5387 45.7711L16.8071 45.3493ZM16.9229 57.3732V45.5602H16.4229V57.3732H16.9229Z" fill="#56B496"/>
</g>
<path id="Vector 1" d="M32.2727 5.50049L20 12.3187L31.8182 20.5005L45 13.2278L32.2727 5.50049Z" fill="#56B496" fill-opacity="0.4"/>
<path id="Vector 2" d="M18.2727 28.5005L6 35.3187L17.8182 43.5005L31 36.2278L18.2727 28.5005Z" fill="#56B496" fill-opacity="0.4"/>
<path id="Vector 3" d="M45.2727 28.5005L33 35.3187L44.8182 43.5005L58 36.2278L45.2727 28.5005Z" fill="#56B496" fill-opacity="0.4"/>
</g>
</svg>
