<svg width="50" height="50" viewBox="0 0 50 50" fill="none" xmlns="http://www.w3.org/2000/svg">
<rect width="50" height="50" rx="25" fill="#C3C3C3"/>
<g clip-path="url(#clip0_132204_11643)">
<g clip-path="url(#clip1_132204_11643)">
<g filter="url(#filter0_d_132204_11643)">
<path d="M18 13.334V20.334H18.0117L18 20.3457L22.6667 25.0007L18 29.6673L18.0117 29.679H18V36.6673H32V29.679H31.9883L32 29.6673L27.3333 25.0007L32 20.3457L31.9883 20.334H32V13.334H18ZM29.6667 30.2507V34.334H20.3333V30.2507L25 25.584L29.6667 30.2507ZM25 24.4173L20.3333 19.7507V15.6673H29.6667V19.7507L25 24.4173Z" fill="white"/>
</g>
</g>
</g>
<defs>
<filter id="filter0_d_132204_11643" x="13" y="8.33398" width="24" height="33.334" filterUnits="userSpaceOnUse" color-interpolation-filters="sRGB">
<feFlood flood-opacity="0" result="BackgroundImageFix"/>
<feColorMatrix in="SourceAlpha" type="matrix" values="0 0 0 0 0 0 0 0 0 0 0 0 0 0 0 0 0 0 127 0" result="hardAlpha"/>
<feOffset/>
<feGaussianBlur stdDeviation="2.5"/>
<feComposite in2="hardAlpha" operator="out"/>
<feColorMatrix type="matrix" values="0 0 0 0 0.704167 0 0 0 0 0.704167 0 0 0 0 0.704167 0 0 0 1 0"/>
<feBlend mode="normal" in2="BackgroundImageFix" result="effect1_dropShadow_132204_11643"/>
<feBlend mode="normal" in="SourceGraphic" in2="effect1_dropShadow_132204_11643" result="shape"/>
</filter>
<clipPath id="clip0_132204_11643">
<rect width="28" height="28" fill="white" transform="translate(11 11)"/>
</clipPath>
<clipPath id="clip1_132204_11643">
<rect width="28" height="28" fill="white" transform="translate(11 11)"/>
</clipPath>
</defs>
</svg>