<svg width="60" height="60" viewBox="0 0 60 60" fill="none" xmlns="http://www.w3.org/2000/svg">
<path fill-rule="evenodd" clip-rule="evenodd" d="M13.2 20.3999H46.8C50.7821 20.3999 54 23.6178 54 27.5997V29.9584C50.9253 26.8942 46.6838 25 42 25C35.185 25 29.3066 29.0101 26.5958 34.7994H21.4C20.8477 34.7994 20.4 35.2471 20.4 35.7994V45.799C20.4 46.3512 20.8477 46.799 21.4 46.799H25.6868C26.1951 48.5296 26.9712 50.1455 27.9674 51.599H16.6005C16.0482 51.599 15.6 51.1512 15.6 50.599V41.9992H7C6.44772 41.9992 6 41.5515 6 40.9992V27.5997C6 23.6178 9.21792 20.3999 13.2 20.3999Z" fill="#00893D"/>
<circle cx="42" cy="42" r="14" fill="#646464"/>
<g filter="url(#filter0_d_130956_25222)">
<path d="M44.9519 40.0419C44.7748 39.9587 44.694 39.8468 44.7097 39.7063C44.7253 39.5659 44.7852 39.454 44.8894 39.3708C44.9206 39.35 45.0222 39.2693 45.194 39.1289C45.3659 38.9884 45.5769 38.8193 45.8269 38.6216C45.3894 38.1222 44.8685 37.7294 44.2644 37.4432C43.6602 37.1571 43.0039 37.014 42.2956 37.014C41.6394 37.014 41.0248 37.1363 40.4519 37.3808C39.8789 37.6253 39.3789 37.9609 38.9519 38.3875C38.5248 38.8141 38.1888 39.3136 37.944 39.8858C37.6993 40.4581 37.5769 41.072 37.5769 41.7275C37.5769 42.3726 37.6993 42.9813 37.944 43.5536C38.1888 44.1259 38.5248 44.6253 38.9519 45.0519C39.3789 45.4786 39.8789 45.8141 40.4519 46.0586C41.0248 46.3032 41.6394 46.4254 42.2956 46.4254C42.8373 46.4254 43.3503 46.3396 43.8347 46.1679C44.319 45.9962 44.7618 45.7543 45.1628 45.4421C45.5638 45.13 45.9076 44.7632 46.194 44.3418C46.4805 43.9204 46.6914 43.46 46.8269 42.9605C46.8998 42.7212 47.0352 42.5235 47.2331 42.3674C47.431 42.2114 47.6654 42.1333 47.9362 42.1333C48.2592 42.1333 48.5326 42.2478 48.7565 42.4767C48.9805 42.7056 49.0925 42.9761 49.0925 43.2883C49.0925 43.434 49.0664 43.5744 49.0144 43.7097C48.7956 44.438 48.4727 45.1092 48.0456 45.7231C47.6185 46.337 47.1107 46.865 46.5222 47.3072C45.9336 47.7495 45.28 48.0954 44.5612 48.3451C43.8425 48.5949 43.0873 48.7197 42.2956 48.7197C41.3269 48.7197 40.4154 48.5376 39.5612 48.1735C38.7071 47.8093 37.9649 47.3098 37.3347 46.6751C36.7045 46.0404 36.2045 45.2991 35.8347 44.4511C35.4649 43.603 35.28 42.6952 35.28 41.7275C35.28 40.7599 35.4649 39.8494 35.8347 38.9962C36.2045 38.143 36.7045 37.4016 37.3347 36.7721C37.9649 36.1426 38.7071 35.6432 39.5612 35.2738C40.4154 34.9044 41.3269 34.7197 42.2956 34.7197C43.3685 34.7197 44.3633 34.9408 45.28 35.383C46.1967 35.8253 46.9779 36.4262 47.6237 37.1857C47.8633 37.0088 48.0638 36.8554 48.2253 36.7253C48.3868 36.5952 48.4883 36.5146 48.53 36.4834C48.5925 36.4314 48.6602 36.3923 48.7331 36.3663C48.806 36.3403 48.8737 36.3403 48.9362 36.3663C48.9987 36.3923 49.0534 36.447 49.1003 36.5302C49.1472 36.6134 49.181 36.7383 49.2019 36.9048C49.2123 36.9984 49.2227 37.1571 49.2331 37.3808C49.2435 37.6045 49.2539 37.8647 49.2644 38.1612C49.2748 38.4577 49.28 38.7647 49.28 39.082C49.28 39.3994 49.2748 39.6985 49.2644 39.9795C49.2539 40.3333 49.1706 40.5882 49.0144 40.7443C48.931 40.8275 48.806 40.8743 48.6394 40.8847C48.4727 40.8951 48.2956 40.8795 48.1081 40.8379C47.8269 40.7755 47.517 40.7078 47.1784 40.635C46.8399 40.5622 46.517 40.4867 46.2097 40.4087C45.9024 40.3307 45.6315 40.2578 45.3972 40.1902C45.1628 40.1226 45.0144 40.0731 44.9519 40.0419Z" fill="white"/>
</g>
<path d="M10.8 27.6002C10.8 28.9185 11.8817 30 13.2 30C14.5183 30 15.6 28.9185 15.6 27.6002C15.6 26.2816 14.5183 25.2002 13.2 25.2002C11.8814 25.2002 10.8 26.2819 10.8 27.6002Z" fill="white"/>
<path d="M16.6 8.40039H43.4C43.9523 8.40039 44.4 8.84811 44.4 9.40039V16.9999C44.4 17.5522 43.9523 17.9999 43.4 17.9999H16.6C16.0477 17.9999 15.6 17.5522 15.6 16.9999V9.40039C15.6 8.84811 16.0477 8.40039 16.6 8.40039Z" fill="#00893D"/>
<rect x="19.1067" y="11.9229" width="21.7866" height="2.55469" rx="1.27734" fill="white"/>
<defs>
<filter id="filter0_d_130956_25222" x="34.28" y="33.7197" width="20" height="20" filterUnits="userSpaceOnUse" color-interpolation-filters="sRGB">
<feFlood flood-opacity="0" result="BackgroundImageFix"/>
<feColorMatrix in="SourceAlpha" type="matrix" values="0 0 0 0 0 0 0 0 0 0 0 0 0 0 0 0 0 0 127 0" result="hardAlpha"/>
<feOffset dx="2" dy="2"/>
<feGaussianBlur stdDeviation="1.5"/>
<feComposite in2="hardAlpha" operator="out"/>
<feColorMatrix type="matrix" values="0 0 0 0 0.311198 0 0 0 0 0.3125 0 0 0 0 0.311778 0 0 0 1 0"/>
<feBlend mode="normal" in2="BackgroundImageFix" result="effect1_dropShadow_130956_25222"/>
<feBlend mode="normal" in="SourceGraphic" in2="effect1_dropShadow_130956_25222" result="shape"/>
</filter>
</defs>
</svg>
