<svg width="60" height="60" viewBox="0 0 60 60" fill="none" xmlns="http://www.w3.org/2000/svg">
<path fill-rule="evenodd" clip-rule="evenodd" d="M50.9942 28.4028V22.8846L9 22.879V48.3264C9 48.9126 9.23286 49.4748 9.64736 49.8893C10.0619 50.3038 10.624 50.5367 11.2102 50.5367H32.1877C30.4685 48.0963 29.459 45.1201 29.459 41.9081C29.459 38.5073 30.5907 35.3708 32.4982 32.8547H21.1563V28.4342H37.8592C39.8508 27.4569 42.0908 26.9081 44.459 26.9081C46.8016 26.9081 49.0188 27.4451 50.9942 28.4028Z" fill="#00893D"/>
<path opacity="0.8" fill-rule="evenodd" clip-rule="evenodd" d="M14.0366 9.46334H45.7113C46.1392 9.46334 46.5197 9.73564 46.6578 10.1407L51 22.8791H9.01634L13.0841 10.1588C13.2166 9.74448 13.6017 9.46334 14.0366 9.46334ZM42.7482 13.8842H17.2445C16.8112 13.8842 16.4272 14.1632 16.2934 14.5753L15.5074 16.9958C15.2976 17.6419 15.7792 18.3046 16.4585 18.3046H43.5342C44.2135 18.3046 44.6952 17.6419 44.4853 16.9958L43.6993 14.5753C43.5655 14.1632 43.1815 13.8842 42.7482 13.8842Z" fill="#00893D"/>
<circle cx="44.4589" cy="41.9111" r="12" fill="#646464"/>
<path fill-rule="evenodd" clip-rule="evenodd" d="M46.22 41.9087L49.1103 39.0184C49.1684 38.9603 49.2199 38.8969 49.265 38.8281C49.31 38.7606 49.3485 38.6895 49.3805 38.6148C49.4113 38.539 49.435 38.4607 49.4516 38.3801C49.467 38.3007 49.4747 38.2201 49.4747 38.1384C49.4747 38.0566 49.467 37.9754 49.4516 37.8948C49.435 37.8154 49.4113 37.7378 49.3805 37.6619C49.3485 37.5861 49.31 37.5144 49.265 37.4468C49.2199 37.3793 49.1684 37.3164 49.1103 37.2584C49.0522 37.2003 48.9894 37.1487 48.9219 37.1037C48.8543 37.0587 48.782 37.0201 48.705 36.9881C48.6303 36.9573 48.5533 36.9336 48.4739 36.917C48.3933 36.9016 48.3121 36.8939 48.2303 36.8939C48.1485 36.8939 48.0679 36.9016 47.9885 36.917C47.9079 36.9336 47.8297 36.9573 47.7539 36.9881C47.678 37.0201 47.6063 37.0587 47.5387 37.1037C47.4712 37.1487 47.4084 37.2003 47.3503 37.2584L44.4602 40.1485L41.5707 37.2584C41.5127 37.2003 41.4493 37.1487 41.3805 37.1037C41.313 37.0587 41.2418 37.0201 41.1672 36.9881C41.0913 36.9573 41.0131 36.9336 40.9325 36.917C40.8531 36.9016 40.7725 36.8939 40.6907 36.8939C40.609 36.8939 40.5278 36.9016 40.4472 36.917C40.3678 36.9336 40.2901 36.9573 40.2143 36.9881C40.1384 37.0201 40.0667 37.0587 39.9992 37.1037C39.9316 37.1487 39.8688 37.2003 39.8107 37.2584C39.7527 37.3164 39.7011 37.3793 39.6561 37.4468C39.611 37.5144 39.5725 37.5861 39.5405 37.6619C39.5097 37.7378 39.486 37.8154 39.4694 37.8948C39.454 37.9754 39.4463 38.0566 39.4463 38.1384C39.4463 38.2201 39.454 38.3007 39.4694 38.3801C39.486 38.4607 39.5097 38.539 39.5405 38.6148C39.5725 38.6895 39.611 38.7612 39.6561 38.8299C39.7011 38.8975 39.7527 38.9603 39.8107 39.0184L42.7005 41.9082L39.8072 44.8015C39.7503 44.8584 39.6987 44.9212 39.6525 44.9899C39.6075 45.0575 39.5696 45.1292 39.5387 45.205C39.5067 45.2797 39.483 45.3573 39.4676 45.4379C39.451 45.5173 39.4427 45.5985 39.4427 45.6815C39.4427 45.7621 39.451 45.8427 39.4676 45.9233C39.483 46.0038 39.5067 46.0821 39.5387 46.1579C39.5696 46.2326 39.6075 46.3037 39.6525 46.3713C39.6987 46.4388 39.7503 46.5022 39.8072 46.5615C39.8653 46.6184 39.9287 46.6699 39.9974 46.7161C40.065 46.7612 40.1367 46.7991 40.2125 46.8299C40.2872 46.8619 40.3648 46.8856 40.4454 46.901C40.5248 46.9176 40.6054 46.9259 40.6872 46.9259C40.769 46.9259 40.8502 46.9176 40.9307 46.901C41.0113 46.8856 41.0896 46.8619 41.1654 46.8299C41.2401 46.7991 41.3112 46.7612 41.3787 46.7161C41.4475 46.6699 41.5103 46.6184 41.5672 46.5615L44.4605 43.6682L47.3538 46.5615C47.4107 46.6184 47.4735 46.6699 47.5423 46.7161C47.6098 46.7612 47.6815 46.7991 47.7574 46.8299C47.8321 46.8619 47.9097 46.8856 47.9903 46.901C48.0709 46.9176 48.1515 46.9259 48.2321 46.9259C48.3138 46.9259 48.395 46.9176 48.4756 46.901C48.5562 46.8856 48.6344 46.8619 48.7103 46.8299C48.785 46.7991 48.8561 46.7612 48.9236 46.7161C48.9924 46.6699 49.0552 46.6184 49.1121 46.5615C49.1701 46.5034 49.2223 46.44 49.2685 46.3713C49.3135 46.3037 49.3515 46.232 49.3823 46.1561C49.4143 46.0815 49.438 46.0038 49.4534 45.9233C49.4688 45.8427 49.4765 45.7621 49.4765 45.6815C49.4765 45.5997 49.4688 45.5185 49.4534 45.4379C49.438 45.3573 49.4143 45.2791 49.3823 45.2033C49.3515 45.1286 49.3135 45.0575 49.2685 44.9899C49.2235 44.9212 49.1713 44.8584 49.1121 44.8015L46.22 41.9087Z" fill="white"/>
</svg>