<svg width="28" height="29" viewBox="0 0 28 29" fill="none" xmlns="http://www.w3.org/2000/svg">
<g id="print">
<path id="Vector" d="M22.1663 9.83333H5.83301C3.89634 9.83333 2.33301 11.3967 2.33301 13.3333V20.3333H6.99967V25H20.9997V20.3333H25.6663V13.3333C25.6663 11.3967 24.103 9.83333 22.1663 9.83333ZM18.6663 22.6667H9.33301V16.8333H18.6663V22.6667ZM22.1663 14.5C21.5247 14.5 20.9997 13.975 20.9997 13.3333C20.9997 12.6917 21.5247 12.1667 22.1663 12.1667C22.808 12.1667 23.333 12.6917 23.333 13.3333C23.333 13.975 22.808 14.5 22.1663 14.5ZM20.9997 4H6.99967V8.66667H20.9997V4Z" fill="#00893D"/>
</g>
</svg>
