<svg width="32" height="33" viewBox="0 0 32 33" fill="none" xmlns="http://www.w3.org/2000/svg">
<g id="qr_code_scanner">
<path id="Vector" d="M12.6665 9.1665V13.1665H8.6665V9.1665H12.6665ZM14.6665 7.1665H6.6665V15.1665H14.6665V7.1665ZM12.6665 19.8332V23.8332H8.6665V19.8332H12.6665ZM14.6665 17.8332H6.6665V25.8332H14.6665V17.8332ZM23.3332 9.1665V13.1665H19.3332V9.1665H23.3332ZM25.3332 7.1665H17.3332V15.1665H25.3332V7.1665ZM17.3332 17.8332H19.3332V19.8332H17.3332V17.8332ZM19.3332 19.8332H21.3332V21.8332H19.3332V19.8332ZM21.3332 17.8332H23.3332V19.8332H21.3332V17.8332ZM17.3332 21.8332H19.3332V23.8332H17.3332V21.8332ZM19.3332 23.8332H21.3332V25.8332H19.3332V23.8332ZM21.3332 21.8332H23.3332V23.8332H21.3332V21.8332ZM23.3332 19.8332H25.3332V21.8332H23.3332V19.8332ZM23.3332 23.8332H25.3332V25.8332H23.3332V23.8332ZM29.3332 9.83317H26.6665V5.83317H22.6665V3.1665H29.3332V9.83317ZM29.3332 29.8332V23.1665H26.6665V27.1665H22.6665V29.8332H29.3332ZM2.6665 29.8332H9.33317V27.1665H5.33317V23.1665H2.6665V29.8332ZM2.6665 3.1665V9.83317H5.33317V5.83317H9.33317V3.1665H2.6665Z" fill="black"/>
</g>
</svg>