<svg width="33" height="33" viewBox="0 0 33 33" fill="none" xmlns="http://www.w3.org/2000/svg">
<g id="qr_code">
<g id="Vector">
<path d="M4.66699 15.1672H15.3337V4.50049H4.66699V15.1672ZM7.33366 7.16716H12.667V12.5005H7.33366V7.16716Z" fill="black" fill-opacity="0.38"/>
<path d="M4.66699 28.5005H15.3337V17.8338H4.66699V28.5005ZM7.33366 20.5005H12.667V25.8338H7.33366V20.5005Z" fill="black" fill-opacity="0.38"/>
<path d="M18.0003 4.50049V15.1672H28.667V4.50049H18.0003ZM26.0003 12.5005H20.667V7.16716H26.0003V12.5005Z" fill="black" fill-opacity="0.38"/>
<path d="M28.667 25.8338H26.0003V28.5005H28.667V25.8338Z" fill="black" fill-opacity="0.38"/>
<path d="M20.667 17.8338H18.0003V20.5005H20.667V17.8338Z" fill="black" fill-opacity="0.38"/>
<path d="M23.3337 20.5005H20.667V23.1672H23.3337V20.5005Z" fill="black" fill-opacity="0.38"/>
<path d="M20.667 23.1672H18.0003V25.8338H20.667V23.1672Z" fill="black" fill-opacity="0.38"/>
<path d="M23.3337 25.8338H20.667V28.5005H23.3337V25.8338Z" fill="black" fill-opacity="0.38"/>
<path d="M26.0003 23.1672H23.3337V25.8338H26.0003V23.1672Z" fill="black" fill-opacity="0.38"/>
<path d="M26.0003 17.8338H23.3337V20.5005H26.0003V17.8338Z" fill="black" fill-opacity="0.38"/>
<path d="M28.667 20.5005H26.0003V23.1672H28.667V20.5005Z" fill="black" fill-opacity="0.38"/>
</g>
</g>
</svg>
