<svg width="32" height="32" viewBox="0 0 32 32" fill="none" xmlns="http://www.w3.org/2000/svg">
<path fill-rule="evenodd" clip-rule="evenodd" d="M18.4874 6.71429H14.0303C13.2094 6.71429 12.5446 5.88229 12.5446 4.85714C12.5446 3.832 13.2094 3 14.0303 3H18.4874C19.3083 3 19.9732 3.832 19.9732 4.85714C19.9732 5.88229 19.3083 6.71429 18.4874 6.71429ZM21.7746 4.85714H25.1779C26.4723 4.86642 27.5179 5.94357 27.5179 7.27142V26.5857C27.5179 27.9191 26.463 29 25.1593 29H7.35857C6.05486 29 5 27.9191 5 26.5857V7.27142C5 5.93799 6.05857 4.85714 7.35671 4.85714H10.7748C10.7748 6.63442 12.1825 8.07557 13.9171 8.07557H18.6324C20.3669 8.07557 21.7746 6.63442 21.7746 4.85714Z" fill="url(#paint0_linear_133543_17830)"/>
<path fill-rule="evenodd" clip-rule="evenodd" d="M11.2672 22.7323C11.4455 22.9105 11.6793 22.9997 11.913 22.9997C12.1467 22.9997 12.3804 22.9106 12.5588 22.7323L16.2525 19.0385L19.9463 22.7323C20.1247 22.9105 20.3584 22.9997 20.5921 22.9997L20.5921 22.9998C20.8258 22.9998 21.0595 22.9106 21.2378 22.7322C21.5945 22.3756 21.5945 21.7974 21.2378 21.4407L17.5441 17.747L21.2378 14.0532C21.5945 13.6965 21.5945 13.1183 21.2378 12.7616C20.8812 12.405 20.3029 12.405 19.9463 12.7616L16.2525 16.4554L12.5587 12.7616C12.2021 12.405 11.6238 12.405 11.2672 12.7616C10.9106 13.1183 10.9106 13.6966 11.2672 14.0532L14.961 17.747L11.2672 21.4407C10.9106 21.7974 10.9106 22.3756 11.2672 22.7323Z" fill="white"/>
<path d="M11.913 22.9997L11.9129 23.4997H11.913V22.9997ZM11.2672 22.7323L10.9136 23.0858L10.9137 23.0859L11.2672 22.7323ZM12.5588 22.7323L12.9123 23.0858H12.9123L12.5588 22.7323ZM16.2525 19.0385L16.6061 18.6849L16.2525 18.3314L15.899 18.6849L16.2525 19.0385ZM19.9463 22.7323L19.5928 23.0858L19.5928 23.0859L19.9463 22.7323ZM20.5921 22.9997L21.0393 23.2233L21.4011 22.4997H20.5921V22.9997ZM20.5921 22.9998L20.1449 22.7762L19.7831 23.4998H20.5921V22.9998ZM21.2378 22.7322L20.8843 22.3787L20.8842 22.3787L21.2378 22.7322ZM21.2378 21.4407L21.5914 21.0872L21.5914 21.0872L21.2378 21.4407ZM17.5441 17.747L17.1905 17.3934L16.837 17.747L17.1905 18.1005L17.5441 17.747ZM21.2378 14.0532L21.5914 14.4067L21.5914 14.4067L21.2378 14.0532ZM21.2378 12.7616L21.5914 12.4081L21.5914 12.4081L21.2378 12.7616ZM19.9463 12.7616L20.2999 13.1152L20.2999 13.1152L19.9463 12.7616ZM16.2525 16.4554L15.899 16.809L16.2525 17.1625L16.6061 16.809L16.2525 16.4554ZM12.5587 12.7616L12.2052 13.1152L12.2052 13.1152L12.5587 12.7616ZM11.2672 12.7616L10.9137 12.4081L10.9137 12.4081L11.2672 12.7616ZM11.2672 14.0532L10.9137 14.4067L10.9137 14.4067L11.2672 14.0532ZM14.961 17.747L15.3146 18.1005L15.6681 17.747L15.3146 17.3934L14.961 17.747ZM11.2672 21.4407L10.9137 21.0872L10.9136 21.0872L11.2672 21.4407ZM11.913 22.4997C11.8065 22.4997 11.7015 22.4595 11.6207 22.3787L10.9137 23.0859C11.1895 23.3616 11.552 23.4997 11.9129 23.4997L11.913 22.4997ZM12.2052 22.3787C12.1244 22.4595 12.0196 22.4997 11.913 22.4997V23.4997C12.2739 23.4997 12.6364 23.3617 12.9123 23.0858L12.2052 22.3787ZM15.899 18.6849L12.2052 22.3787L12.9123 23.0858L16.6061 19.392L15.899 18.6849ZM20.2999 22.3787L16.6061 18.6849L15.899 19.392L19.5928 23.0858L20.2999 22.3787ZM20.5921 22.4997C20.4856 22.4997 20.3807 22.4595 20.2998 22.3786L19.5928 23.0859C19.8686 23.3616 20.2312 23.4997 20.5921 23.4997V22.4997ZM21.0393 23.2234L21.0393 23.2233L20.1449 22.7761L20.1449 22.7762L21.0393 23.2234ZM20.8842 22.3787C20.8035 22.4595 20.6986 22.4998 20.5921 22.4998V23.4998C20.953 23.4998 21.3156 23.3617 21.5914 23.0858L20.8842 22.3787ZM20.8843 21.7942C21.0456 21.9557 21.0456 22.2173 20.8843 22.3787L21.5914 23.0858C22.1433 22.5339 22.1433 21.6391 21.5914 21.0872L20.8843 21.7942ZM17.1905 18.1005L20.8843 21.7943L21.5914 21.0872L17.8976 17.3934L17.1905 18.1005ZM20.8843 13.6996L17.1905 17.3934L17.8976 18.1005L21.5914 14.4067L20.8843 13.6996ZM20.8843 13.1152C21.0456 13.2765 21.0457 13.5382 20.8843 13.6996L21.5914 14.4067C22.1433 13.8548 22.1433 12.96 21.5914 12.4081L20.8843 13.1152ZM20.2999 13.1152C20.4612 12.9538 20.7229 12.9538 20.8843 13.1152L21.5914 12.4081C21.0395 11.8562 20.1446 11.8561 19.5927 12.4081L20.2999 13.1152ZM16.6061 16.809L20.2999 13.1152L19.5928 12.4081L15.899 16.1019L16.6061 16.809ZM12.2052 13.1152L15.899 16.809L16.6061 16.1019L12.9123 12.4081L12.2052 13.1152ZM11.6208 13.1152C11.7821 12.9538 12.0438 12.9538 12.2052 13.1152L12.9123 12.4081C12.3604 11.8561 11.4655 11.8562 10.9137 12.4081L11.6208 13.1152ZM11.6208 13.6996C11.4594 13.5383 11.4594 13.2766 11.6208 13.1152L10.9137 12.4081C10.3618 12.96 10.3618 13.8549 10.9137 14.4067L11.6208 13.6996ZM15.3146 17.3934L11.6208 13.6996L10.9137 14.4067L14.6074 18.1005L15.3146 17.3934ZM11.6208 21.7943L15.3146 18.1005L14.6074 17.3934L10.9137 21.0872L11.6208 21.7943ZM11.6208 22.3787C11.4594 22.2173 11.4594 21.9557 11.6208 21.7943L10.9136 21.0872C10.3618 21.6391 10.3618 22.5339 10.9136 23.0858L11.6208 22.3787Z" fill="white"/>
<defs>
<linearGradient id="paint0_linear_133543_17830" x1="16.2589" y1="3" x2="16.2589" y2="29" gradientUnits="userSpaceOnUse">
<stop stop-color="#F7504C"/>
<stop offset="1" stop-color="#E62C27"/>
</linearGradient>
</defs>
</svg>