<svg width="60" height="60" viewBox="0 0 60 60" fill="none" xmlns="http://www.w3.org/2000/svg">
<path fill-rule="evenodd" clip-rule="evenodd" d="M20.4645 14.5355C19.5268 13.5979 19 12.3261 19 11H15C13.9391 11 12.9217 11.4214 12.1716 12.1716C11.4214 12.9217 11 13.9391 11 15V47C11 47.5253 11.1035 48.0454 11.3045 48.5307C11.5055 49.016 11.8001 49.457 12.1716 49.8284C12.543 50.1999 12.984 50.4945 13.4693 50.6955C13.9546 50.8965 14.4747 51 15 51H32.527C30.6028 48.4778 29.46 45.3273 29.46 41.91C29.46 38.8169 30.3962 35.9425 32.0006 33.5547H20.2773C19.5719 33.5547 19 32.9828 19 32.2773C19 31.5719 19.5719 31 20.2773 31H34.1657C36.852 28.4644 40.4745 26.91 44.46 26.91C46.0425 26.91 47.5678 27.1551 49 27.6093V15C49 13.9391 48.5786 12.9217 47.8284 12.1716C47.0783 11.4214 46.0609 11 45 11H41C41 12.3261 40.4732 13.5979 39.5355 14.5355C38.5979 15.4732 37.3261 16 36 16H24C22.6739 16 21.4022 15.4732 20.4645 14.5355ZM19 24.2002C19 23.4947 19.5719 22.9229 20.2773 22.9229H39.5093C40.2147 22.9229 40.7866 23.4947 40.7866 24.2002C40.7866 24.9057 40.2147 25.4775 39.5093 25.4775H20.2773C19.5719 25.4775 19 24.9057 19 24.2002Z" fill="#00893D"/>
<path opacity="0.8" d="M36.7655 9.15203C36.5228 9.05154 36.2627 8.99984 36 8.99988H24C23.7373 8.99984 23.4772 9.05154 23.2345 9.15203C22.9919 9.25252 22.7713 9.39984 22.5856 9.58556C22.3998 9.77128 22.2525 9.99177 22.152 10.2344C22.0514 10.4771 21.9997 10.7372 21.9997 10.9999C21.9997 11.2625 22.0514 11.5226 22.152 11.7653C22.2525 12.008 22.3998 12.2285 22.5856 12.4142C22.7713 12.5999 22.9919 12.7472 23.2345 12.8477C23.4772 12.9482 23.7373 12.9999 24 12.9999H36C36.2627 12.9999 36.5228 12.9482 36.7655 12.8477C37.0081 12.7472 37.2287 12.5999 37.4144 12.4142C37.6002 12.2285 37.7475 12.008 37.848 11.7653C37.9486 11.5226 38.0003 11.2625 38.0003 10.9999C38.0003 10.7372 37.9486 10.4771 37.848 10.2344C37.7475 9.99177 37.6002 9.77128 37.4144 9.58556C37.2287 9.39984 37.0081 9.25252 36.7655 9.15203Z" fill="#00893D"/>
<circle cx="44.46" cy="41.9099" r="12" fill="#646464"/>
<path fill-rule="evenodd" clip-rule="evenodd" d="M43.162 36.0754L43.162 38.6691L46.4067 38.6691C48.9121 38.6691 50.943 40.7051 50.943 43.208C50.9435 43.8039 50.8265 44.3942 50.5987 44.9449C50.371 45.4957 50.0369 45.9961 49.6156 46.4176C49.1943 46.8392 48.6941 47.1735 48.1434 47.4016C47.5928 47.6297 47.0027 47.747 46.4067 47.7468L43.162 47.7468L43.162 47.7468C42.8181 47.7468 42.4882 47.6102 42.245 47.367C42.0018 47.1238 41.8652 46.7939 41.8652 46.45C41.8652 46.106 42.0018 45.7762 42.245 45.533C42.4882 45.2898 42.8181 45.1531 43.162 45.1531C43.1654 45.1531 43.1687 45.1532 43.172 45.1532L46.408 45.1532C46.9232 45.1522 47.417 44.9468 47.781 44.5821C48.1449 44.2174 48.3493 43.7232 48.3493 43.208C48.3493 42.1264 47.4804 41.2627 46.408 41.2627L43.162 41.2627L43.162 43.8564L37.9748 39.9659L43.162 36.0754Z" fill="white"/>
</svg>