<svg width="200" height="250" viewBox="0 0 200 250" fill="none" xmlns="http://www.w3.org/2000/svg">
<rect x="1" y="1" width="198" height="248" rx="19" fill="white"/>
<path d="M82.4763 93.9625H78.9091V72.7133H82.4763V93.9625ZM91.2396 72.7133H86.1988V93.9625H91.2396V72.7133ZM97.7928 72.7133H95.2724V93.9625H97.7928L97.7928 72.7133ZM106.672 72.7133H100.778V93.9625H106.672V72.7133ZM111.868 72.7133H110.395V93.9625H111.868V72.7133ZM115.978 72.7133H114.04V93.9625H115.978V72.7133ZM121.33 72.7133H117.53V93.9625H121.33V72.7133ZM120.961 95.8041H117.53V105.93H120.961V95.8041ZM128.067 93.9625H122.975V95.8043H128.067V93.9625ZM82.4087 95.5673H78.9767V105.693H82.4086V95.5673H82.4087ZM77.1431 93.9625H72.0508V95.8043H77.1431V93.9625ZM112.334 101.36V103.388C112.334 106.642 111.333 109.817 109.468 112.483L105.199 118.585V124.052H94.5745V118.585L90.3053 112.483C88.4401 109.817 87.4397 106.642 87.4397 103.388V101.36C87.4397 99.1696 89.2154 97.3939 91.4059 97.3939H108.367C110.558 97.394 112.334 99.1698 112.334 101.36ZM106.102 102.554H93.187C94.4539 104.814 96.869 106.344 99.6443 106.344C102.42 106.344 104.835 104.815 106.102 102.554Z" fill="#00893D"/>
<path d="M73.064 165.68L73.652 167.752C76.424 167.052 80.064 166.1 83.48 165.176L83.228 163.244C79.56 164.196 75.668 165.148 73.064 165.68ZM73.4 156.496V158.456H83.256V156.496H73.4ZM77.544 151.064V174.164C77.544 174.556 77.376 174.696 76.984 174.696C76.62 174.696 75.416 174.724 74.1 174.668C74.352 175.228 74.66 176.068 74.744 176.628C76.676 176.628 77.824 176.572 78.58 176.236C79.308 175.928 79.588 175.34 79.588 174.164V151.064H77.544ZM83.564 172.652V174.612H96.248V172.652H83.564ZM84.432 162.544V164.616H96.332V162.544H84.432ZM83.76 153.64V155.572H95.268V176.656H97.284V153.64H83.76ZM109.996 155.012V156.944H126.628V155.012H109.996ZM113.916 151.008V160.612H115.932V151.008H113.916ZM120.916 151.008V160.612H122.96V151.008H120.916ZM111.256 161.844V176.712H113.16V163.72H123.604V176.572H125.62V161.844H111.256ZM112.292 167.584V169.432H124.556V167.584H112.292ZM112.348 173.38V175.256H124.584V173.38H112.348ZM117.388 162.684V174.696H119.32V162.684H117.388ZM100.756 165.876L101.316 167.92C103.668 167.164 106.692 166.184 109.576 165.204L109.296 163.3C106.16 164.28 102.912 165.288 100.756 165.876ZM101.148 156.636V158.596H109.492V156.636H101.148ZM104.536 151.008V174.108C104.536 174.528 104.424 174.64 104.06 174.64C103.724 174.64 102.66 174.64 101.428 174.612C101.708 175.2 101.96 176.068 102.016 176.572C103.808 176.572 104.9 176.516 105.544 176.18C106.244 175.844 106.496 175.284 106.496 174.136V151.008H104.536Z" fill="#00893D"/>
<rect x="1" y="1" width="198" height="248" rx="19" stroke="#00893D" stroke-width="2"/>
</svg>
