<svg width="250" height="250" viewBox="0 0 250 250" fill="none" xmlns="http://www.w3.org/2000/svg">
<path d="M185.175 39.8125H47L64.5127 31H202.688L185.175 39.8125Z" fill="#D9D9D9" stroke="black" stroke-width="3"/>
<path d="M185.175 145.562H47L64.5127 136.75H202.688L185.175 145.562Z" fill="#D9D9D9" stroke="black" stroke-width="3"/>
<path d="M185.175 92.6875H47L64.5127 83.875H202.688L185.175 92.6875Z" fill="#D9D9D9" stroke="black" stroke-width="3"/>
<path d="M185.175 198.438H47L64.5127 189.625H202.688L185.175 198.438Z" fill="#D9D9D9" stroke="black" stroke-width="3"/>
<path d="M184.083 39.8125V219" stroke="black" stroke-width="3"/>
<path d="M202.688 31L202.688 211.167" stroke="black" stroke-width="3"/>
<path d="M64.625 31.979V211.167" stroke="black" stroke-width="3"/>
<path d="M47 39.8125V219" stroke="black" stroke-width="3"/>
<path d="M87.3438 68.3032H61.3438V88.0002H87.3438V68.3032Z" fill="#F5D8BD" stroke="black" stroke-width="1.57576" stroke-linejoin="round"/>
<path d="M93.3438 62L87.3438 68V88L93.3438 82V62Z" fill="#F5D8BD" stroke="black" stroke-width="1.57576" stroke-linejoin="round"/>
<path d="M93.3438 62H67.3438L61.3438 68.303H87.3438L93.3438 62Z" fill="#FFEBC5" stroke="black" stroke-width="1.57576" stroke-linejoin="round"/>
<path d="M76.3438 62.7881H82.2831L78.2831 67.5154H72.3438L76.3438 62.7881Z" fill="#E3B589"/>
<path d="M126.344 68.3032H100.344V88.0002H126.344V68.3032Z" fill="#F5D8BD" stroke="black" stroke-width="1.57576" stroke-linejoin="round"/>
<path d="M132.344 62L126.344 68V88L132.344 82V62Z" fill="#F5D8BD" stroke="black" stroke-width="1.57576" stroke-linejoin="round"/>
<path d="M132.344 62H106.344L100.344 68.303H126.344L132.344 62Z" fill="#FFEBC5" stroke="black" stroke-width="1.57576" stroke-linejoin="round"/>
<path d="M115.344 62.7881H121.283L117.283 67.5154H111.344L115.344 62.7881Z" fill="#E3B589"/>
<path d="M165.344 68.3032H139.344V88.0002H165.344V68.3032Z" fill="#F5D8BD" stroke="black" stroke-width="1.57576" stroke-linejoin="round"/>
<path d="M171.344 62L165.344 68V88L171.344 82V62Z" fill="#F5D8BD" stroke="black" stroke-width="1.57576" stroke-linejoin="round"/>
<path d="M171.344 62H145.344L139.344 68.303H165.344L171.344 62Z" fill="#FFEBC5" stroke="black" stroke-width="1.57576" stroke-linejoin="round"/>
<path d="M154.344 62.7881H160.283L156.283 67.5154H150.344L154.344 62.7881Z" fill="#E3B589"/>
<path d="M87.3438 121.303H61.3438V141H87.3438V121.303Z" fill="#F5D8BD" stroke="black" stroke-width="1.57576" stroke-linejoin="round"/>
<path d="M93.3438 115L87.3438 121V141L93.3438 135V115Z" fill="#F5D8BD" stroke="black" stroke-width="1.57576" stroke-linejoin="round"/>
<path d="M93.3438 115H67.3438L61.3438 121.303H87.3438L93.3438 115Z" fill="#FFEBC5" stroke="black" stroke-width="1.57576" stroke-linejoin="round"/>
<path d="M76.3438 115.788H82.2831L78.2831 120.515H72.3438L76.3438 115.788Z" fill="#E3B589"/>
<path d="M126.344 121.303H100.344V141H126.344V121.303Z" fill="#F5D8BD" stroke="black" stroke-width="1.57576" stroke-linejoin="round"/>
<path d="M132.344 115L126.344 121V141L132.344 135V115Z" fill="#F5D8BD" stroke="black" stroke-width="1.57576" stroke-linejoin="round"/>
<path d="M132.344 115H106.344L100.344 121.303H126.344L132.344 115Z" fill="#FFEBC5" stroke="black" stroke-width="1.57576" stroke-linejoin="round"/>
<path d="M115.344 115.788H121.283L117.283 120.515H111.344L115.344 115.788Z" fill="#E3B589"/>
<path d="M165.344 121.303H139.344V141H165.344V121.303Z" fill="#F5D8BD" stroke="black" stroke-width="1.57576" stroke-linejoin="round"/>
<path d="M171.344 115L165.344 121V141L171.344 135V115Z" fill="#F5D8BD" stroke="black" stroke-width="1.57576" stroke-linejoin="round"/>
<path d="M171.344 115H145.344L139.344 121.303H165.344L171.344 115Z" fill="#FFEBC5" stroke="black" stroke-width="1.57576" stroke-linejoin="round"/>
<path d="M154.344 115.788H160.283L156.283 120.515H150.344L154.344 115.788Z" fill="#E3B589"/>
<path d="M87.3438 174.303H61.3438V194H87.3438V174.303Z" fill="#F5D8BD" stroke="black" stroke-width="1.57576" stroke-linejoin="round"/>
<path d="M93.3438 168L87.3438 174V194L93.3438 188V168Z" fill="#F5D8BD" stroke="black" stroke-width="1.57576" stroke-linejoin="round"/>
<path d="M93.3438 168H67.3438L61.3438 174.303H87.3438L93.3438 168Z" fill="#FFEBC5" stroke="black" stroke-width="1.57576" stroke-linejoin="round"/>
<path d="M76.3438 168.788H82.2831L78.2831 173.515H72.3438L76.3438 168.788Z" fill="#E3B589"/>
<path d="M126.344 174.303H100.344V194H126.344V174.303Z" fill="#F5D8BD" stroke="black" stroke-width="1.57576" stroke-linejoin="round"/>
<path d="M132.344 168L126.344 174V194L132.344 188V168Z" fill="#F5D8BD" stroke="black" stroke-width="1.57576" stroke-linejoin="round"/>
<path d="M132.344 168H106.344L100.344 174.303H126.344L132.344 168Z" fill="#FFEBC5" stroke="black" stroke-width="1.57576" stroke-linejoin="round"/>
<path d="M115.344 168.788H121.283L117.283 173.515H111.344L115.344 168.788Z" fill="#E3B589"/>
<path d="M165.344 174.303H139.344V194H165.344V174.303Z" fill="#F5D8BD" stroke="black" stroke-width="1.57576" stroke-linejoin="round"/>
<path d="M171.344 168L165.344 174V194L171.344 188V168Z" fill="#F5D8BD" stroke="black" stroke-width="1.57576" stroke-linejoin="round"/>
<path d="M171.344 168H145.344L139.344 174.303H165.344L171.344 168Z" fill="#FFEBC5" stroke="black" stroke-width="1.57576" stroke-linejoin="round"/>
<path d="M154.344 168.788H160.283L156.283 173.515H150.344L154.344 168.788Z" fill="#E3B589"/>
<g clip-path="url(#clip0_129333_11319)">
<path fill-rule="evenodd" clip-rule="evenodd" d="M23.4722 6.47217C14.0834 6.47217 6.47223 14.0833 6.47223 23.4721V62.0312H0.472229V23.4721C0.472229 10.7696 10.7697 0.472168 23.4722 0.472168H62.0313V6.47217H23.4722ZM226.528 6.47217H188.403V0.472168H226.528C239.23 0.472168 249.528 10.7696 249.528 23.4722V62.0312H243.528V23.4722C243.528 14.0833 235.917 6.47217 226.528 6.47217ZM6.47223 188.837V226.528C6.47223 235.917 14.0834 243.528 23.4722 243.528H61.5972V249.528H23.4722C10.7697 249.528 0.472229 239.23 0.472229 226.528V188.837H6.47223ZM243.528 226.528V188.837H249.528V226.528C249.528 239.23 239.23 249.528 226.528 249.528H188.403V243.528H226.528C235.917 243.528 243.528 235.917 243.528 226.528Z" fill="#00893D"/>
<rect x="1.5" y="121.5" width="247" height="3" fill="#00893D" stroke="#00893D" stroke-width="3"/>
<rect y="126" width="250" height="121" fill="url(#paint0_linear_129333_11319)"/>
</g>
<defs>
<linearGradient id="paint0_linear_129333_11319" x1="125" y1="126" x2="125" y2="194.306" gradientUnits="userSpaceOnUse">
<stop stop-color="#98D3A7" stop-opacity="0.5"/>
<stop offset="1" stop-color="#98D3A7" stop-opacity="0"/>
</linearGradient>
<clipPath id="clip0_129333_11319">
<rect width="250" height="250" fill="white"/>
</clipPath>
</defs>
</svg>
