<svg width="250" height="251" viewBox="0 0 250 251" fill="none" xmlns="http://www.w3.org/2000/svg">
<g clip-path="url(#clip0_129295_13527)">
<mask id="path-1-inside-1_129295_13527" fill="white">
</mask>
<path d="M188.403 6.47217H226.528V0.472168H188.403V6.47217ZM243.528 23.4722V62.0312H249.528V23.4722H243.528ZM243.528 188.837V226.528H249.528V188.837H243.528ZM226.528 243.528H188.403V249.528H226.528V243.528ZM61.5972 243.528H23.4722V249.528H61.5972V243.528ZM6.47217 226.528V188.837H0.472168V226.528H6.47217ZM6.47217 62.0312V23.4721H0.472168V62.0312H6.47217ZM23.4722 6.47217H62.0312V0.472168H23.4722V6.47217ZM23.4722 243.528C14.0833 243.528 6.47217 235.917 6.47217 226.528H0.472168C0.472168 239.23 10.7696 249.528 23.4722 249.528V243.528ZM243.528 226.528C243.528 235.917 235.917 243.528 226.528 243.528V249.528C239.23 249.528 249.528 239.23 249.528 226.528H243.528ZM226.528 6.47217C235.917 6.47217 243.528 14.0833 243.528 23.4722H249.528C249.528 10.7696 239.23 0.472168 226.528 0.472168V6.47217ZM6.47217 23.4721C6.47217 14.0833 14.0833 6.47217 23.4722 6.47217V0.472168C10.7696 0.472168 0.472168 10.7696 0.472168 23.4721H6.47217Z" fill="#00893D" mask="url(#path-1-inside-1_129295_13527)"/>
<rect x="1.5" y="121.5" width="247" height="3" fill="#00893D" stroke="#00893D" stroke-width="3"/>
<rect y="126" width="250" height="124" fill="url(#paint0_linear_129295_13527)"/>
</g>
<path d="M188.925 125.891C188.919 125.891 188.909 125.891 188.901 125.891H63.2928C62.6745 125.891 62.1008 125.559 61.7822 125.013C61.4637 124.468 61.4449 123.793 61.734 123.231L68.0327 111.014C68.3383 110.421 68.9379 110.05 69.5915 110.05H179.177C179.706 110.05 180.207 110.294 180.542 110.716L190.118 122.743C190.469 123.074 190.689 123.55 190.689 124.078C190.688 125.079 189.9 125.891 188.925 125.891ZM66.2223 122.269H185.183L178.341 113.674H70.653L66.2223 122.269Z" fill="black"/>
<path d="M191.908 94.2099H59.0925L74.1944 55.2183H176.992L191.908 94.2099Z" fill="#E5F4E9"/>
<path d="M191.381 95.4281C191.375 95.4281 191.367 95.4292 191.358 95.4281H59.6191C59.0421 95.4281 58.5035 95.1458 58.1778 94.6745C57.8533 94.2033 57.7835 93.603 57.994 93.0707L72.9737 55.0992C73.2354 54.4367 73.8799 54 74.5988 54H176.564C177.286 54 177.932 54.439 178.192 55.1061L192.89 92.8299C193.041 93.0857 193.126 93.3818 193.126 93.6998C193.126 94.655 192.346 95.4281 191.381 95.4281ZM62.1737 91.9716H188.815L175.366 57.4565H75.7911L62.1737 91.9716Z" fill="black"/>
<path d="M191.908 94.21H59.0925V199H191.908V94.21Z" fill="#C0E4C9"/>
<path d="M123.569 123.454H102.958V144.105H123.569V123.454Z" fill="black"/>
<path d="M120.624 126.404H105.902V141.155H120.624V126.404Z" fill="white"/>
<path d="M117.68 129.354H108.847V138.205H117.68V129.354Z" fill="black"/>
<path d="M123.569 148.824H102.958V169.475H123.569V148.824Z" fill="black"/>
<path d="M120.624 151.773H105.902V166.525H120.624V151.773Z" fill="white"/>
<path d="M117.68 154.724H108.847V163.575H117.68V154.724Z" fill="black"/>
<path fill-rule="evenodd" clip-rule="evenodd" d="M133.917 148.824V153.719H139.521V164.487H133.917V169.382H128.313V163.508H133.917V154.698H128.313V148.824H133.917ZM148.86 159.592V169.382H139.521V164.487L144.19 164.487L144.19 159.592H148.86ZM148.86 148.824V153.719H144.19V148.824H148.86Z" fill="black"/>
<path d="M148.924 123.454H128.313V144.105H148.924V123.454Z" fill="black"/>
<path d="M145.98 126.404H131.258V141.155H145.98V126.404Z" fill="white"/>
<path d="M143.036 129.354H134.203V138.205H143.036V129.354Z" fill="black"/>
<path d="M191.381 199H59.6192C58.6547 199 57.874 198.185 57.874 197.178V93.5949C57.874 92.588 58.6547 91.7729 59.6192 91.7729H191.381C192.344 91.7729 193.126 92.588 193.126 93.5949V197.178C193.126 198.185 192.344 199 191.381 199ZM61.3645 195.356H189.636V95.4168H61.3645V195.356Z" fill="black"/>
<g clip-path="url(#clip1_129295_13527)">
<path fill-rule="evenodd" clip-rule="evenodd" d="M23.4722 7.47217C14.0833 7.47217 6.47217 15.0833 6.47217 24.4721V63.0312H0.472168V24.4721C0.472168 11.7696 10.7696 1.47217 23.4722 1.47217H62.0312V7.47217H23.4722ZM226.528 7.47217H188.403V1.47217H226.528C239.23 1.47217 249.528 11.7696 249.528 24.4722V63.0312H243.528V24.4722C243.528 15.0833 235.917 7.47217 226.528 7.47217ZM6.47217 189.837V227.528C6.47217 236.917 14.0833 244.528 23.4722 244.528H61.5972V250.528H23.4722C10.7696 250.528 0.472168 240.23 0.472168 227.528V189.837H6.47217ZM243.528 227.528V189.837H249.528V227.528C249.528 240.23 239.23 250.528 226.528 250.528H188.403V244.528H226.528C235.917 244.528 243.528 236.917 243.528 227.528Z" fill="#00893D"/>
<rect y="121" width="250" height="6" fill="#00893D"/>
</g>
<defs>
<linearGradient id="paint0_linear_129295_13527" x1="125" y1="126" x2="125" y2="196" gradientUnits="userSpaceOnUse">
<stop stop-color="#98D3A7" stop-opacity="0.5"/>
<stop offset="1" stop-color="#98D3A7" stop-opacity="0"/>
</linearGradient>
<clipPath id="clip0_129295_13527">
<rect width="250" height="250" fill="white"/>
</clipPath>
<clipPath id="clip1_129295_13527">
<rect width="250" height="250" fill="white" transform="translate(0 1)"/>
</clipPath>
</defs>
</svg>
