<svg width="217" height="177" viewBox="0 0 217 177" fill="none" xmlns="http://www.w3.org/2000/svg">
<g clip-path="url(#clip0_132217_44502)">
<path d="M108.5 176.728C168.032 176.728 216.292 156.588 216.292 131.743C216.292 106.899 168.032 86.759 108.5 86.759C48.9675 86.759 0.707031 106.899 0.707031 131.743C0.707031 156.588 48.9675 176.728 108.5 176.728Z" fill="url(#paint0_linear_132217_44502)"/>
<path d="M53.4668 31.9421C57.3829 31.9421 60.5576 28.7674 60.5576 24.8513C60.5576 20.9352 57.3829 17.7605 53.4668 17.7605C49.5506 17.7605 46.376 20.9352 46.376 24.8513C46.376 28.7674 49.5506 31.9421 53.4668 31.9421Z" fill="url(#paint1_linear_132217_44502)"/>
<path d="M43.5482 68.3216H43.1549C41.2739 62.9066 34.4396 58.8938 26.2943 58.8938C17.5733 58.8938 10.3343 63.4994 9.11453 69.5015C4.18403 70.7783 0.707031 73.8905 0.707031 77.5328C0.707031 82.3151 6.70343 86.1911 14.102 86.1911C17.4453 86.2556 20.7382 85.3701 23.5982 83.6375C24.4935 83.7363 25.3936 83.7857 26.2943 83.7857C29.5737 83.8114 32.8188 83.1188 35.8019 81.7565C38.0252 83.4493 40.7543 84.343 43.5482 84.293C49.4078 84.293 54.1616 80.7134 54.1616 76.313C54.1616 71.9126 49.3907 68.3216 43.5482 68.3216Z" fill="url(#paint2_linear_132217_44502)"/>
<path d="M177.653 12.4624C177.488 12.4624 177.322 12.4624 177.163 12.4624C174.797 5.66234 166.219 0.623535 155.993 0.623535C145.038 0.623535 135.969 6.40334 134.407 13.9387C128.223 15.5461 123.856 19.4563 123.856 24.0277C123.856 30.0298 131.386 34.8976 140.677 34.8976C145.34 34.8976 149.552 33.6721 152.602 31.6942C153.728 31.8208 154.86 31.8836 155.993 31.8823C160.11 31.9125 164.183 31.043 167.929 29.3344C170.72 31.4584 174.146 32.5789 177.653 32.515C185.012 32.515 190.98 28.0234 190.98 22.483C190.98 16.9426 185.012 12.4624 177.653 12.4624Z" fill="url(#paint3_linear_132217_44502)"/>
<path d="M187.992 79.8849H187.787C186.812 77.0805 183.267 75 179.049 75C174.523 75 170.778 77.3883 170.134 80.4948C167.58 81.1617 165.779 82.7748 165.779 84.6615C165.779 87.141 168.886 89.1531 172.722 89.1531C174.455 89.1867 176.163 88.7282 177.647 87.8307C178.103 87.8763 178.57 87.9048 179.049 87.9048C180.75 87.9178 182.433 87.5578 183.979 86.8503C185.124 87.7244 186.529 88.1882 187.969 88.167C191.007 88.167 193.47 86.3145 193.47 84.0231C193.47 81.7317 191.03 79.8849 187.992 79.8849Z" fill="url(#paint4_linear_132217_44502)"/>
<path opacity="0.2" d="M108.5 117.248C126.856 117.248 141.737 115.549 141.737 113.452C141.737 111.356 126.856 109.656 108.5 109.656C90.1442 109.656 75.2637 111.356 75.2637 113.452C75.2637 115.549 90.1442 117.248 108.5 117.248Z" fill="#9FBAA7"/>
<path fill-rule="evenodd" clip-rule="evenodd" d="M138.543 78.9159V71.4942L82.0635 71.4868V105.712C82.0635 106.5 82.3767 107.257 82.9341 107.814C83.4916 108.372 84.2477 108.685 85.0361 108.685H113.25C110.938 105.403 109.58 101.4 109.58 97.0799C109.58 92.506 111.102 88.2876 113.667 84.9036H98.4131V78.9584H120.878C123.556 77.6439 126.569 76.9058 129.754 76.9058C132.905 76.9058 135.887 77.628 138.543 78.9159Z" fill="url(#paint5_linear_132217_44502)"/>
<mask id="path-8-outside-1_132217_44502" maskUnits="userSpaceOnUse" x="79.0869" y="51.4436" width="63" height="23" fill="black">
<rect fill="white" x="79.0869" y="51.4436" width="63" height="23"/>
<path fill-rule="evenodd" clip-rule="evenodd" d="M88.587 53.4436H131.686C132.114 53.4436 132.495 53.7159 132.633 54.121L138.552 71.487H82.0869L87.6346 54.139C87.767 53.7247 88.1521 53.4436 88.587 53.4436ZM127.705 59.3892H92.903C92.4697 59.3892 92.0857 59.6683 91.9519 60.0804L90.6707 64.0256C90.4609 64.6717 90.9425 65.3345 91.6218 65.3345H128.986C129.666 65.3345 130.147 64.6717 129.938 64.0256L128.656 60.0804C128.523 59.6683 128.139 59.3892 127.705 59.3892Z"/>
</mask>
<path fill-rule="evenodd" clip-rule="evenodd" d="M88.587 53.4436H131.686C132.114 53.4436 132.495 53.7159 132.633 54.121L138.552 71.487H82.0869L87.6346 54.139C87.767 53.7247 88.1521 53.4436 88.587 53.4436ZM127.705 59.3892H92.903C92.4697 59.3892 92.0857 59.6683 91.9519 60.0804L90.6707 64.0256C90.4609 64.6717 90.9425 65.3345 91.6218 65.3345H128.986C129.666 65.3345 130.147 64.6717 129.938 64.0256L128.656 60.0804C128.523 59.6683 128.139 59.3892 127.705 59.3892Z" fill="url(#paint6_linear_132217_44502)"/>
<path d="M132.633 54.121L134.526 53.4757V53.4757L132.633 54.121ZM138.552 71.487V73.487H141.347L140.446 70.8417L138.552 71.487ZM82.0869 71.487L80.1819 70.8778L79.3476 73.487H82.0869V71.487ZM87.6346 54.139L89.5395 54.7482V54.7482L87.6346 54.139ZM91.9519 60.0804L93.8541 60.6981L93.8541 60.6981L91.9519 60.0804ZM90.6707 64.0256L92.5729 64.6433L90.6707 64.0256ZM129.938 64.0256L131.84 63.4079L131.84 63.4079L129.938 64.0256ZM128.656 60.0804L130.559 59.4626L130.559 59.4626L128.656 60.0804ZM131.686 51.4436H88.587V55.4436H131.686V51.4436ZM134.526 53.4757C134.112 52.2605 132.97 51.4436 131.686 51.4436V55.4436C131.258 55.4436 130.878 55.1713 130.74 54.7663L134.526 53.4757ZM140.446 70.8417L134.526 53.4757L130.74 54.7662L136.659 72.1323L140.446 70.8417ZM82.0869 73.487H138.552V69.487H82.0869V73.487ZM85.7296 53.5298L80.1819 70.8778L83.9919 72.0962L89.5395 54.7482L85.7296 53.5298ZM88.587 51.4436C87.2822 51.4436 86.127 52.287 85.7296 53.5298L89.5395 54.7482C89.407 55.1625 89.022 55.4436 88.587 55.4436V51.4436ZM92.903 61.3892H127.705V57.3892H92.903V61.3892ZM93.8541 60.6981C93.7203 61.1102 93.3363 61.3892 92.903 61.3892V57.3892C91.6031 57.3892 90.4512 58.2263 90.0497 59.4626L93.8541 60.6981ZM92.5729 64.6433L93.8541 60.6981L90.0497 59.4626L88.7685 63.4079L92.5729 64.6433ZM91.6218 63.3345C92.3011 63.3345 92.7827 63.9973 92.5729 64.6433L88.7685 63.4079C88.139 65.3461 89.5839 67.3345 91.6218 67.3345V63.3345ZM128.986 63.3345H91.6218V67.3345H128.986V63.3345ZM128.035 64.6433C127.826 63.9972 128.307 63.3345 128.986 63.3345V67.3345C131.024 67.3345 132.469 65.3461 131.84 63.4079L128.035 64.6433ZM126.754 60.6981L128.035 64.6433L131.84 63.4079L130.559 59.4626L126.754 60.6981ZM127.705 61.3892C127.272 61.3892 126.888 61.1102 126.754 60.6981L130.559 59.4626C130.157 58.2263 129.005 57.3892 127.705 57.3892V61.3892Z" fill="white" mask="url(#path-8-outside-1_132217_44502)"/>
<path d="M129.892 112.534C138.729 112.534 145.892 105.371 145.892 96.5346C145.892 87.6981 138.729 80.5347 129.892 80.5347C121.056 80.5347 113.893 87.6981 113.893 96.5346C113.893 105.371 121.056 112.534 129.892 112.534Z" fill="#0EBC5B"/>
<path d="M129.203 103.303C128.835 103.302 128.474 103.2 128.16 103.007L122.403 99.473C121.95 99.1963 121.625 98.7509 121.5 98.2345C121.375 97.7182 121.46 97.1734 121.736 96.7199C122.013 96.2664 122.459 95.9413 122.975 95.8162C123.491 95.6912 124.036 95.7763 124.49 96.053L128.69 98.6351L134.75 90.5639C135.067 90.1406 135.54 89.8608 136.063 89.7859C136.587 89.7111 137.119 89.8474 137.543 90.1649C137.966 90.4823 138.246 90.955 138.32 91.4787C138.395 92.0025 138.259 92.5346 137.941 92.9579L130.794 102.483C130.61 102.733 130.371 102.938 130.095 103.08C129.819 103.223 129.514 103.299 129.203 103.303Z" fill="white"/>
</g>
<defs>
<linearGradient id="paint0_linear_132217_44502" x1="108.5" y1="84.9863" x2="111.596" y2="128.668" gradientUnits="userSpaceOnUse">
<stop stop-color="#E5F4E9"/>
<stop offset="1" stop-color="white"/>
</linearGradient>
<linearGradient id="paint1_linear_132217_44502" x1="53.8798" y1="32.6756" x2="48.7279" y2="14.5995" gradientUnits="userSpaceOnUse">
<stop stop-color="white"/>
<stop offset="1" stop-color="#E5F4E9"/>
</linearGradient>
<linearGradient id="paint2_linear_132217_44502" x1="28.9913" y1="87.6064" x2="23.6282" y2="50.7625" gradientUnits="userSpaceOnUse">
<stop stop-color="white"/>
<stop offset="1" stop-color="#E5F4E9"/>
</linearGradient>
<linearGradient id="paint3_linear_132217_44502" x1="159.373" y1="36.6703" x2="152.641" y2="-9.58516" gradientUnits="userSpaceOnUse">
<stop stop-color="white"/>
<stop offset="1" stop-color="#E5F4E9"/>
</linearGradient>
<linearGradient id="paint4_linear_132217_44502" x1="180.431" y1="89.8869" x2="177.648" y2="70.7848" gradientUnits="userSpaceOnUse">
<stop stop-color="white"/>
<stop offset="1" stop-color="#E5F4E9"/>
</linearGradient>
<linearGradient id="paint5_linear_132217_44502" x1="82.0635" y1="66.0061" x2="105.786" y2="121.045" gradientUnits="userSpaceOnUse">
<stop stop-color="#98D3A7"/>
<stop offset="1" stop-color="#6CC385"/>
</linearGradient>
<linearGradient id="paint6_linear_132217_44502" x1="117.511" y1="53.4436" x2="117.749" y2="71.487" gradientUnits="userSpaceOnUse">
<stop stop-color="#8FD0A0"/>
<stop offset="1" stop-color="#57C276"/>
</linearGradient>
<clipPath id="clip0_132217_44502">
<rect width="217" height="177" fill="white"/>
</clipPath>
</defs>
</svg>