<svg width="294" height="38" viewBox="0 0 294 38" fill="none" xmlns="http://www.w3.org/2000/svg">
<g clip-path="url(#clip0_130345_43816)">
<path d="M14.8988 26.6935C13.2197 27.7663 11.4939 28.256 9.16176 28.256C6.10666 28.256 3.49466 27.5097 0.952637 25.9472L2.30528 23.5684C4.42752 25.1076 6.5964 25.7606 9.18507 25.7606C11.1207 25.7606 12.1702 25.4575 13.243 24.6412C14.479 23.7084 15.0621 22.4723 15.0621 20.9798C15.0621 18.6943 13.5695 17.1317 10.4677 16.1989L7.9024 15.406C5.59359 14.7063 4.35755 14.1699 3.35473 13.1205C2.30527 12.001 1.74557 10.5785 1.74557 8.94596C1.74557 4.58487 5.05719 1.59973 10.0246 1.59973C12.7766 1.59973 15.3186 2.41598 17.744 4.0718L16.3914 6.264C13.9193 4.65483 12.3568 4.09511 10.1646 4.09511C6.94621 4.09511 5.0572 5.70429 5.0572 8.31628C5.0572 10.3686 6.29323 11.5346 9.30168 12.4908L12.2402 13.4237C14.5257 14.1233 15.715 14.7996 16.7645 15.989C17.814 17.1784 18.4436 18.9042 18.4436 20.5133C18.467 22.9154 17.1843 25.2243 14.8988 26.6935Z" fill="#646363"/>
<path d="M37.637 24.8511C36.2844 27.02 34.3254 28.2561 31.8766 28.2561C29.9643 28.2561 28.0753 27.4398 26.7693 26.0872V34.9726L23.8541 35.5323V13.2138C23.8541 10.3686 23.4343 9.22584 23.4343 9.22584L26.4195 8.71277C26.4195 8.71277 26.606 9.5057 26.606 11.558C28.1452 9.76223 30.0343 8.82937 32.0866 8.82937C33.9989 8.82937 35.8646 9.64562 37.054 11.1382C38.4299 12.864 39.1063 15.1261 39.1063 18.4611C39.1296 21.4229 38.6865 23.1254 37.637 24.8511ZM35.165 13.4703C34.5586 12.211 33.2293 11.418 31.7367 11.418C29.871 11.418 28.1919 12.3043 26.7693 14.03V23.4052C28.1453 24.9677 29.7544 25.8306 31.317 25.8306C33.0427 25.8306 34.6052 24.8978 35.2349 23.5218C35.7946 22.3324 36.0278 20.9098 36.0278 18.8109C36.0278 16.5721 35.7014 14.5898 35.165 13.4703Z" fill="#646363"/>
<path d="M47.3389 18.9508V19.394C47.3389 21.1431 47.5721 22.4957 48.2017 23.4519C49.2512 25.061 50.9537 25.7374 52.8194 25.7374C54.6151 25.7374 56.0611 25.1776 57.367 23.9882L58.4865 25.854C56.854 27.3465 54.5918 28.1628 52.213 28.1628C47.059 28.1628 43.9573 24.4314 43.9573 18.2745C43.9573 15.1495 44.6336 13.1205 46.1961 11.2548C47.6887 9.5057 49.5077 8.68945 51.7466 8.68945C53.7522 8.68945 55.5247 9.38909 56.784 10.6951C58.3932 12.3276 58.9063 14.1 58.9063 18.5311V18.9508H47.3389ZM54.9883 12.6074C54.3586 11.6046 53.0526 10.9749 51.63 10.9749C48.9713 10.9749 47.4788 12.9106 47.3389 16.7586H55.8511C55.8045 14.7297 55.548 13.517 54.9883 12.6074Z" fill="#646363"/>
<path d="M71.1266 28.1861C68.468 28.1861 66.509 27.2532 65.203 25.3875C63.9669 23.5918 63.4072 21.5395 63.4072 18.7876C63.4072 14.7297 64.5966 12.4675 66.2058 10.8817C67.6517 9.43573 69.2609 8.71277 71.2432 8.71277C73.5987 8.71277 74.9746 9.59898 76.3273 10.7184L74.7181 12.724C73.4121 11.6513 72.5958 11.2315 71.1732 11.2315C69.7273 11.2315 68.328 12.0477 67.675 13.3304C66.9754 14.6364 66.6256 16.6887 66.6256 19.4173C66.6256 23.5918 68.2348 25.8773 71.2199 25.8773C72.7125 25.8773 74.135 25.1776 75.2078 23.8716L76.817 25.7374C75.0912 27.4631 73.4587 28.1861 71.1266 28.1861Z" fill="#646363"/>
<path d="M83.2301 5.70427C81.9707 5.70427 80.9446 4.70146 80.9446 3.46542C80.9446 2.20607 81.9474 1.15662 83.2301 1.15662C84.4894 1.15662 85.5155 2.15943 85.5155 3.44211C85.4922 4.70146 84.4894 5.70427 83.2301 5.70427ZM81.6675 27.7663V9.24912L84.6993 8.75937V27.7663H81.6675Z" fill="#646363"/>
<path d="M104.173 28.466C102.913 28.0462 101.98 27.0434 101.631 25.7374C99.8348 27.5331 98.3889 28.2327 96.2666 28.2327C91.6723 28.2327 90.2964 25.4342 90.2964 22.9388C90.2964 18.7176 93.9112 16.2456 100.161 16.2456C100.954 16.2456 101.467 16.2922 101.467 16.2922V14.9862C101.467 13.3537 101.397 12.6774 100.861 12.0711C100.255 11.3947 99.5083 11.0682 98.3656 11.0682C96.2667 11.0682 93.6313 12.1877 92.4419 13.2604L90.996 11.1615C93.4681 9.52903 96.1034 8.66614 98.8087 8.66614C101.374 8.66614 103.17 9.66896 103.963 11.5813C104.382 12.5841 104.406 14.0067 104.382 15.6859L104.243 21.7961C104.173 24.8278 104.359 25.5974 105.735 26.3437L104.173 28.466ZM99.9048 18.2512C95.1939 18.2512 93.5147 19.8604 93.5147 22.6823C93.5147 24.8745 94.5875 26.0872 96.7331 26.0872C98.6454 26.0872 100.395 24.9211 101.257 23.172L101.374 18.3212C100.884 18.2745 100.441 18.2512 99.9048 18.2512Z" fill="#646363"/>
<path d="M114.411 28.1394C113.525 28.1394 112.755 27.8829 112.195 27.3465C111.589 26.8334 111.309 26.0405 111.309 24.6879V4.98133C111.309 2.55591 110.866 1.17995 110.866 1.17995L113.781 0.620239C113.781 0.620239 114.271 2.18277 114.271 5.02797V24.0349C114.271 25.4808 114.504 25.9006 115.32 25.9006C115.437 25.9006 115.694 25.8306 115.694 25.8306L116.3 27.743C115.53 28.0695 115.204 28.1394 114.411 28.1394Z" fill="#646363"/>
<path d="M150.442 27.7663L148.95 8.99258C148.833 7.38341 148.763 4.81807 148.763 4.65482C148.693 4.88803 148.204 7.08024 147.76 8.64277L142.28 27.7663H139.668L134.584 9.59894C133.838 7.10356 133.395 5.16789 133.325 4.70146C133.278 5.0746 133.138 8.10637 133.021 9.5523L131.599 27.7663H128.66L130.899 2.15943H135.377L140.041 18.8808C140.671 21.2363 141.021 23.102 141.044 23.3119C141.091 23.1253 141.417 21.1896 141.977 19.1607L146.781 2.13611H151.305L153.498 27.7429H150.442V27.7663Z" fill="#646363"/>
<path d="M172.038 28.466C170.779 28.0462 169.846 27.0434 169.496 25.7374C167.7 27.5331 166.254 28.2327 164.132 28.2327C159.538 28.2327 158.162 25.4342 158.162 22.9388C158.162 18.7176 161.777 16.2456 168.027 16.2456C168.82 16.2456 169.333 16.2922 169.333 16.2922V14.9862C169.333 13.3537 169.263 12.6774 168.726 12.0711C168.12 11.3947 167.374 11.0682 166.231 11.0682C164.132 11.0682 161.497 12.1877 160.307 13.2604L158.861 11.1615C161.333 9.52903 163.969 8.66614 166.674 8.66614C169.239 8.66614 171.035 9.66896 171.828 11.5813C172.248 12.5841 172.271 14.0067 172.248 15.6859L172.038 21.8194C171.968 24.8511 172.155 25.6208 173.53 26.367L172.038 28.466ZM167.77 18.2512C163.059 18.2512 161.38 19.8604 161.38 22.6823C161.38 24.8745 162.453 26.0872 164.598 26.0872C166.511 26.0872 168.26 24.9211 169.123 23.172L169.239 18.3212C168.75 18.2745 168.307 18.2512 167.77 18.2512Z" fill="#646363"/>
<path d="M185.798 28.1861C183.139 28.1861 181.18 27.2532 179.874 25.3875C178.638 23.5918 178.078 21.5395 178.078 18.7876C178.078 14.7297 179.268 12.4675 180.877 10.8817C182.323 9.43573 183.932 8.71277 185.914 8.71277C188.27 8.71277 189.646 9.59898 190.998 10.7184L189.389 12.724C188.083 11.6513 187.267 11.2315 185.844 11.2315C184.398 11.2315 182.999 12.0477 182.346 13.3304C181.646 14.6364 181.297 16.6887 181.297 19.4173C181.297 23.5918 182.906 25.8773 185.891 25.8773C187.383 25.8773 188.806 25.1776 189.879 23.8716L191.488 25.7374C189.762 27.4631 188.106 28.1861 185.798 28.1861Z" fill="#646363"/>
<path d="M206.95 27.7663V14.9163C206.95 13.5403 206.764 12.6774 206.25 12.1643C205.807 11.7212 205.014 11.4181 204.082 11.4181C202.286 11.4181 200.28 12.5841 198.671 14.5431V27.7663H195.756V4.84144C195.756 2.41602 195.266 1.04005 195.266 1.04005L198.181 0.480347C198.181 0.480347 198.671 2.04288 198.671 4.88808V9.22585C198.671 10.4152 198.554 11.7679 198.554 11.7679C200.234 10.2053 202.356 8.82938 204.758 8.82938C206.997 8.82938 209.026 10.0654 209.539 11.7679C209.772 12.5142 209.842 13.1205 209.842 14.4498V27.7663H206.95Z" fill="#646363"/>
<path d="M218.494 5.70427C217.235 5.70427 216.208 4.70146 216.208 3.46542C216.208 2.20607 217.211 1.15662 218.494 1.15662C219.753 1.15662 220.779 2.15943 220.779 3.44211C220.756 4.70146 219.753 5.70427 218.494 5.70427ZM216.908 27.7663V9.24912L219.94 8.75937V27.7663H216.908Z" fill="#646363"/>
<path d="M237.734 27.7663V15.1961C237.734 13.2138 237.594 12.724 237.058 12.0944C236.638 11.6046 235.869 11.3014 235.006 11.3014C233.513 11.3014 231.204 12.4908 229.852 13.9134V27.7663H227.006V13.4237C227.006 10.765 226.307 9.50569 226.307 9.50569L229.152 8.71277C229.152 8.71277 229.828 10.0887 229.828 11.6279C231.764 9.69226 233.723 8.75941 235.682 8.75941C237.688 8.75941 239.483 9.8322 240.23 11.488C240.533 12.1643 240.673 12.9106 240.673 13.6569V27.7663H237.734Z" fill="#646363"/>
<path d="M250.024 18.9508V19.394C250.024 21.1431 250.257 22.4957 250.887 23.4519C251.937 25.061 253.639 25.7374 255.505 25.7374C257.301 25.7374 258.746 25.1776 260.052 23.9882L261.172 25.854C259.539 27.3465 257.301 28.1628 254.898 28.1628C249.744 28.1628 246.643 24.4314 246.643 18.2745C246.643 15.1495 247.319 13.1205 248.882 11.2548C250.374 9.5057 252.193 8.68945 254.432 8.68945C256.438 8.68945 258.21 9.38909 259.469 10.6951C261.079 12.3276 261.592 14.1 261.592 18.5311V18.9508H250.024ZM257.674 12.6074C257.044 11.6046 255.738 10.9749 254.315 10.9749C251.657 10.9749 250.164 12.9106 250.024 16.7586H258.537C258.49 14.7297 258.233 13.517 257.674 12.6074Z" fill="#646363"/>
<path d="M275.142 11.9778C274.955 11.9078 274.628 11.8379 274.325 11.8379C273.206 11.8379 272.086 12.3276 271.224 13.1905C270.361 14.0534 270.151 14.6131 270.151 16.129V27.7663H267.236V13.4237C267.236 10.6951 266.606 9.45908 266.606 9.45908L269.521 8.66615C269.521 8.66615 270.221 10.1121 270.127 11.6979C271.48 9.78558 273.439 8.59619 275.351 8.59619C275.841 8.59619 276.354 8.78277 276.354 8.78277L275.142 11.9778Z" fill="#646363"/>
<path d="M286.522 28.4427C285.286 32.1741 283.77 34.6461 280.505 35.4157L279.643 33.4334C282.021 32.6871 282.931 31.4978 283.934 27.7197L282.744 27.9063C282.511 26.7169 281.508 23.1021 280.879 21.213L276.891 9.57568L279.759 8.59619L283.561 20.6533C284.12 22.4024 284.68 25.271 284.68 25.271H284.75C284.75 25.271 285.45 22.8922 285.916 21.353L289.577 9.15591H292.889L286.522 28.4427Z" fill="#646363"/>
</g>
<defs>
<clipPath id="clip0_130345_43816">
<rect width="293.268" height="36" fill="white" transform="translate(0.328125)"/>
</clipPath>
</defs>
</svg>
