<svg width="92" height="93" viewBox="0 0 92 93" fill="none" xmlns="http://www.w3.org/2000/svg">
<g id="notice/success">
<path id="toast-success" d="M45.9999 8.1665C38.4182 8.1665 31.0069 10.4147 24.703 14.6269C18.3991 18.839 13.4858 24.8259 10.5845 31.8304C7.68311 38.835 6.92399 46.5426 8.40309 53.9786C9.88219 61.4145 13.5331 68.2449 18.8941 73.606C24.2551 78.967 31.0855 82.6179 38.5214 84.097C45.9573 85.5762 53.6649 84.817 60.6694 81.9156C67.6739 79.0143 73.6607 74.101 77.8728 67.797C82.085 61.4931 84.3332 54.0817 84.3332 46.5001C84.3332 41.466 83.3417 36.4813 81.4152 31.8304C79.4888 27.1796 76.6652 22.9537 73.1056 19.3941C69.546 15.8345 65.3202 13.0109 60.6694 11.0845C56.0186 9.15803 51.0339 8.1665 45.9999 8.1665ZM38.3332 65.6668L19.1665 46.5001L24.5715 41.095L38.3332 54.8184L67.4282 25.7233L72.8332 31.1666L38.3332 65.6668Z" fill="white"/>
</g>
</svg>
