<svg width="32" height="33" viewBox="0 0 32 33" fill="none" xmlns="http://www.w3.org/2000/svg">
<g clip-path="url(#clip0_131541_30029)">
<path d="M16.0003 3.1665C13.3632 3.1665 10.7854 3.94849 8.59273 5.41359C6.40007 6.87868 4.69111 8.96108 3.68194 11.3974C2.67277 13.8338 2.40872 16.5147 2.92319 19.1011C3.43766 21.6876 4.70754 24.0633 6.57224 25.9281C8.43694 27.7928 10.8127 29.0627 13.3991 29.5771C15.9855 30.0916 18.6664 29.8276 21.1028 28.8184C23.5391 27.8092 25.6215 26.1002 27.0866 23.9076C28.5517 21.7149 29.3337 19.137 29.3337 16.4999C29.3337 14.7489 28.9888 13.0151 28.3187 11.3974C27.6487 9.77975 26.6665 8.30989 25.4284 7.07177C24.1903 5.83365 22.7204 4.85152 21.1028 4.18145C19.4851 3.51138 17.7513 3.1665 16.0003 3.1665ZM17.3337 23.1666H14.667V15.1666H17.3337V23.1666ZM17.3337 12.4999H14.667V9.83321H17.3337V12.4999Z" fill="#1D9BB2"/>
</g>
<defs>
<clipPath id="clip0_131541_30029">
<rect width="32" height="32" fill="white" transform="translate(0 0.5)"/>
</clipPath>
</defs>
</svg>