<svg width="60" height="60" viewBox="0 0 60 60" fill="none" xmlns="http://www.w3.org/2000/svg">
<path fill-rule="evenodd" clip-rule="evenodd" d="M31.1145 8.82876L53.7945 25.0288C54.6045 25.5688 54.3345 26.6488 53.2545 26.6488H48.6645V33.6476C47.7276 30.2067 43.438 28.5597 40.3972 30.934L35.2029 34.9888H22.4745V38.7688H30.5201C28.616 40.9634 28.8477 44.4038 31.236 46.2927L31.2376 46.294L37.9641 51.6188H12.2145C11.9445 51.6188 11.4045 51.3488 11.4045 50.8088V26.6488H6.81451C5.73451 26.6488 5.46451 25.5688 6.00451 24.7588L28.9545 8.55876C29.4945 8.28876 30.5745 8.28876 31.1145 8.82876ZM44.0043 51.6188H43.2083C42.8698 51.5561 42.5357 51.4109 42.2314 51.1706L36.1486 46.3554L33.0974 43.94C32.0673 43.1262 31.9755 41.6369 32.8175 40.7007C32.9049 40.6035 33.0024 40.5122 33.1099 40.4283L35.2359 38.7688H37.5945V36.9276L42.244 33.2983C43.7077 32.1549 45.8499 33.1977 45.8499 35.0572V37.7773H48.6645V46.748H45.8499V49.4179C45.8499 50.59 44.9995 51.4373 44.0043 51.6188ZM48.5589 51.1688C48.6243 51.0481 48.6594 50.9249 48.664 50.8299C48.6326 50.9449 48.5975 51.0579 48.5589 51.1688ZM22.4745 31.2088H37.5945V27.4288H22.4745V31.2088Z" fill="#00893D"/>
<path d="M45.8499 37.7772H54.8206C56.0519 37.7772 57.0507 38.7761 57.0507 40.0074V44.5178C57.0507 45.7491 56.0519 46.748 54.8206 46.748H45.8499V49.4178C45.8499 51.2836 43.6951 52.3264 42.2314 51.1705L33.0974 43.9399C31.9603 43.0416 31.9666 41.3203 33.1099 40.4282L42.244 33.2982C43.7077 32.1548 45.8499 33.1977 45.8499 35.0571V37.7772Z" fill="#646464"/>
</svg>