<svg width="29" height="28" viewBox="0 0 29 28" fill="none" xmlns="http://www.w3.org/2000/svg">
<g clip-path="url(#clip0_132029_20321)">
<path d="M14.4884 2.33337C8.04837 2.33337 2.83337 7.56004 2.83337 14C2.83337 20.44 8.04837 25.6667 14.4884 25.6667C20.94 25.6667 26.1667 20.44 26.1667 14C26.1667 7.56004 20.94 2.33337 14.4884 2.33337ZM14.5 23.3334C9.34337 23.3334 5.16671 19.1567 5.16671 14C5.16671 8.84337 9.34337 4.66671 14.5 4.66671C19.6567 4.66671 23.8334 8.84337 23.8334 14C23.8334 19.1567 19.6567 23.3334 14.5 23.3334Z" fill="#9CA2A5"/>
<path d="M15.0834 8.16671H13.3334V15.1667L19.4584 18.8417L20.3334 17.4067L15.0834 14.2917V8.16671Z" fill="#9CA2A5"/>
</g>
<defs>
<clipPath id="clip0_132029_20321">
<rect width="28" height="28" fill="white" transform="translate(0.5)"/>
</clipPath>
</defs>
</svg>