<svg width="28" height="28" viewBox="0 0 28 28" fill="none" xmlns="http://www.w3.org/2000/svg">
<g clip-path="url(#clip0_132029_10493)">
<path fill-rule="evenodd" clip-rule="evenodd" d="M16.3333 7.58329V5.24996H11.6666V7.58329H16.3333ZM4.66659 9.91663V22.75H23.3333V9.91663H4.66659ZM23.3333 7.58329C24.6283 7.58329 25.6666 8.62163 25.6666 9.91663V22.75C25.6666 24.045 24.6283 25.0833 23.3333 25.0833H4.66659C3.37159 25.0833 2.33325 24.045 2.33325 22.75L2.34492 9.91663C2.34492 8.62163 3.37159 7.58329 4.66659 7.58329H9.33325V5.24996C9.33325 3.95496 10.3716 2.91663 11.6666 2.91663H16.3333C17.6283 2.91663 18.6666 3.95496 18.6666 5.24996V7.58329H23.3333Z" fill="#414546"/>
</g>
<defs>
<clipPath id="clip0_132029_10493">
<rect width="28" height="28" fill="white"/>
</clipPath>
</defs>
</svg>