<svg width="140" height="116" viewBox="0 0 140 116" fill="none" xmlns="http://www.w3.org/2000/svg">
<g opacity="0.5">
<path d="M105.859 9H36.1413C30.5404 9 26 13.013 26 17.9632V106.037C26 110.987 30.5404 115 36.1413 115H105.859C111.46 115 116 110.987 116 106.037V17.9632C116 13.013 111.46 9 105.859 9Z" fill="#CED5DA"/>
<path d="M98.0222 55H44.3271C42.519 55 41.0532 56.4604 41.0532 58.2619V58.2724C41.0532 60.0739 42.519 61.5343 44.3271 61.5343H98.0222C99.8303 61.5343 101.296 60.0739 101.296 58.2724V58.2619C101.296 56.4604 99.8303 55 98.0222 55Z" fill="white"/>
<path d="M97.5326 71.5342H44.2989C42.5064 71.5342 41.0532 72.949 41.0532 74.6943V74.7046C41.0532 76.4498 42.5064 77.8647 44.2989 77.8647H97.5326C99.3251 77.8647 100.778 76.4498 100.778 74.7046V74.6943C100.778 72.949 99.3251 71.5342 97.5326 71.5342Z" fill="white"/>
<path d="M97.5326 87.8647H44.2989C42.5064 87.8647 41.0532 89.2796 41.0532 91.0249V91.0351C41.0532 92.7804 42.5064 94.1953 44.2989 94.1953H97.5326C99.3251 94.1953 100.778 92.7804 100.778 91.0351V91.0249C100.778 89.2796 99.3251 87.8647 97.5326 87.8647Z" fill="white"/>
<path d="M63.9599 23.7759H48.2688C44.7931 23.7759 41.9754 26.5832 41.9754 30.0463V34.3849C41.9754 37.8479 44.7931 40.6553 48.2688 40.6553H63.9599C67.4356 40.6553 70.2533 37.8479 70.2533 34.3849V30.0463C70.2533 26.5832 67.4356 23.7759 63.9599 23.7759Z" fill="white"/>
<path d="M44.9471 0H3.49729C1.56579 0 0 1.56007 0 3.4845V22.8957C0 24.8202 1.56579 26.3802 3.49729 26.3802H44.9471C46.8785 26.3802 48.4443 24.8202 48.4443 22.8957V3.4845C48.4443 1.56007 46.8785 0 44.9471 0Z" fill="#C1C7CA"/>
<path d="M10.2299 17.1935C12.4505 17.1935 14.2506 15.3999 14.2506 13.1874C14.2506 10.975 12.4505 9.1814 10.2299 9.1814C8.00931 9.1814 6.20917 10.975 6.20917 13.1874C6.20917 15.3999 8.00931 17.1935 10.2299 17.1935Z" fill="white"/>
<path d="M24.5989 17.1937C26.8195 17.1937 28.6196 15.4001 28.6196 13.1877C28.6196 10.9752 26.8195 9.18164 24.5989 9.18164C22.3783 9.18164 20.5782 10.9752 20.5782 13.1877C20.5782 15.4001 22.3783 17.1937 24.5989 17.1937Z" fill="white"/>
<path d="M38.9677 17.1937C41.1883 17.1937 42.9885 15.4001 42.9885 13.1877C42.9885 10.9752 41.1883 9.18164 38.9677 9.18164C36.7472 9.18164 34.947 10.9752 34.947 13.1877C34.947 15.4001 36.7472 17.1937 38.9677 17.1937Z" fill="white"/>
<path d="M114.895 84.6389L107.763 92.4727L127.866 110.64L134.997 102.806L114.895 84.6389Z" fill="#C1C7CA"/>
<path fill-rule="evenodd" clip-rule="evenodd" d="M122.565 71.6738C122.565 88.0621 109.231 101.348 92.7826 101.348C76.3341 101.348 63 88.0621 63 71.6738C63 55.2854 76.3341 42 92.7826 42C109.231 42 122.565 55.2854 122.565 71.6738ZM115.828 71.9259C115.828 84.8106 105.344 95.2557 92.4123 95.2557C79.4803 95.2557 68.9969 84.8106 68.9969 71.9259C68.9969 59.0413 79.4803 48.5962 92.4123 48.5962C105.344 48.5962 115.828 59.0413 115.828 71.9259Z" fill="#C1C7CA"/>
<path d="M92.3853 95.2022C105.302 95.2022 115.774 84.7691 115.774 71.8993C115.774 59.0295 105.302 48.5964 92.3853 48.5964C79.4683 48.5964 68.9969 59.0295 68.9969 71.8993C68.9969 84.7691 79.4683 95.2022 92.3853 95.2022Z" fill="#F7F7F7" fill-opacity="0.5"/>
<path d="M127.864 110.641L134.996 102.808L136.07 103.778C137.112 104.72 137.736 106.036 137.805 107.436C137.873 108.837 137.381 110.207 136.435 111.245V111.245C135.49 112.284 134.169 112.905 132.764 112.974C131.359 113.042 129.983 112.551 128.941 111.609L127.867 110.638L127.864 110.641Z" fill="#C1C7CA"/>
</g>
</svg>
