<svg width="60" height="61" viewBox="0 0 60 61" fill="none" xmlns="http://www.w3.org/2000/svg">
<path d="M12.4758 25.9625H8.90857V4.71335H12.4758V25.9625ZM21.2391 4.71335H16.1983V25.9625H21.2391V4.71335ZM27.7923 4.71335H25.2719V25.9625H27.7923L27.7923 4.71335ZM36.6719 4.71335H30.7779V25.9625H36.6719V4.71335ZM41.8677 4.71335H40.3942V25.9625H41.8677V4.71335ZM45.978 4.71335H44.0392V25.9625H45.978V4.71335ZM51.3291 4.71335H47.5291V25.9625H51.3291V4.71335ZM50.9608 27.8041H47.5291V37.9297H50.9608V27.8041ZM58.0665 25.9625H52.9741V27.8043H58.0665V25.9625ZM12.4082 27.5673H8.97625V37.6928H12.4081V27.5673H12.4082ZM7.14262 25.9625H2.05029V27.8043H7.14262V25.9625ZM42.3331 33.3601V35.3882C42.3331 38.6418 41.3327 41.8168 39.4675 44.4827L35.1982 50.5849V56.0523H24.574V50.5849L20.3048 44.4827C18.4396 41.8168 17.4392 38.6418 17.4392 35.3882V33.3601C17.4392 31.1696 19.2149 29.3939 21.4054 29.3939H38.3668C40.5573 29.394 42.3331 31.1698 42.3331 33.3601ZM36.1013 34.5544H23.1865C24.4534 36.8143 26.8686 38.3441 29.6438 38.3441C32.4191 38.3441 34.8343 36.8146 36.1013 34.5544Z" fill="#00893D"/>
</svg>
