<svg width="36" height="36" viewBox="0 0 36 36" fill="none" xmlns="http://www.w3.org/2000/svg">
<path d="M22.6914 11.0658V15.8272C22.6914 16.1152 22.3828 16.321 22.1153 16.2181L18.4116 14.6955C18.1235 14.572 17.8149 14.572 17.5268 14.6955L13.8231 16.2181C13.5556 16.321 13.247 16.1358 13.247 15.8272V11.0658H3.00006V32.177C3.00006 32.6296 3.37043 33 3.82311 33H32.0947C32.5474 33 32.9178 32.6296 32.9178 32.177V11.0658H22.6914ZM32.8766 9.893C32.856 9.76955 32.7943 9.64609 32.712 9.54321L27.6708 3.30864C27.5062 3.12346 27.2799 3 27.033 3H8.98772C8.7408 3 8.51446 3.10288 8.34986 3.28807L3.18525 9.54321C3.10294 9.64609 3.04121 9.76955 3.02064 9.893H32.8766Z" fill="#646464"/>
<path d="M13.9383 25.3305L15.871 22.6642H14.5283C14.609 21.7889 15.0013 20.9647 15.6418 20.3248C16.2824 19.6848 17.1337 19.2664 18.0584 19.1371C18.9831 19.0078 19.9272 19.1752 20.7383 19.6122C21.5493 20.0492 22.1799 20.7303 22.5283 21.5455C22.8768 22.3608 22.9226 23.2626 22.6585 24.1054C22.3944 24.9482 21.8357 25.6827 21.0727 26.1904C20.3097 26.698 19.3869 26.9492 18.4533 26.9034C17.5197 26.8575 16.6298 26.5173 15.9272 25.9377L15.2193 26.7983C16.1293 27.5304 17.2756 27.9525 18.4727 27.9962C19.6697 28.04 20.8474 27.7028 21.8152 27.0393C22.783 26.3758 23.4842 25.4248 23.8053 24.3403C24.1264 23.2557 24.0486 22.101 23.5846 21.0631C23.1205 20.0253 22.2974 19.1649 21.2483 18.6214C20.1992 18.0779 18.9857 17.8829 17.804 18.0681C16.6224 18.2534 15.5419 18.8079 14.7373 19.642C13.9328 20.4761 13.4513 21.5409 13.3709 22.6642H12L13.9383 25.3305Z" fill="white"/>
</svg>
