<svg width="32" height="32" viewBox="0 0 32 32" fill="none" xmlns="http://www.w3.org/2000/svg">
<path d="M28.9907 15.0092H3.00635C2.45635 15.0092 2.00635 15.4592 2.00635 16.0029C2.00635 16.5529 2.45635 16.9967 3.00635 16.9967H28.9938C29.5438 16.9967 29.9938 16.5467 29.9938 16.0029C29.9907 15.4498 29.5407 15.0092 28.9907 15.0092ZM27.9938 19.9842C27.4438 19.9842 26.9938 20.4279 26.9938 20.9779V25.9529C26.9938 26.5029 26.5438 26.9467 25.9938 26.9467H19.997C19.447 26.9467 18.997 27.3967 18.997 27.9404C18.997 28.4904 19.447 28.9342 19.997 28.9342H25.9938C27.647 28.9342 28.9907 27.5967 28.9907 25.9498V20.9686C28.9907 20.4248 28.5438 19.9842 27.9938 19.9842ZM11.0001 26.9467H6.00322C5.45322 26.9467 5.00322 26.4967 5.00322 25.9529V20.9748C5.00322 20.4248 4.55322 19.9811 4.00322 19.9811C3.45322 19.9811 3.00322 20.4248 3.00322 20.9748V25.9498C3.00322 27.5967 4.34697 28.9342 6.0001 28.9342H10.997C11.547 28.9342 11.997 28.4842 11.997 27.9404C12.0001 27.3904 11.5532 26.9467 11.0001 26.9467ZM4.00322 12.0186C4.55322 12.0186 5.00322 11.5686 5.00322 11.0248V6.0498C5.00322 5.4998 5.45322 5.05605 6.00322 5.05605H11.0001C11.5501 5.05605 12.0001 4.60605 12.0001 4.0623C12.0001 3.5123 11.5501 3.06855 11.0001 3.06855H6.00322C4.3501 3.06855 3.00635 4.40605 3.00635 6.05293V11.0342C3.00635 11.5779 3.45322 12.0186 4.00322 12.0186ZM19.997 5.05918H25.9938C26.5438 5.05918 26.9938 5.50918 26.9938 6.05293V11.0279C26.9938 11.5779 27.4438 12.0217 27.9938 12.0217C28.5438 12.0217 28.9938 11.5717 28.9938 11.0279V6.0498C28.9938 4.40293 27.6501 3.06543 25.997 3.06543H19.997C19.447 3.06543 18.997 3.51543 18.997 4.05918C18.9938 4.6123 19.4438 5.05918 19.997 5.05918Z" fill="#00893D" stroke="#00893D"/>
</svg>
