<svg width="188" height="190" viewBox="0 0 188 190" fill="none" xmlns="http://www.w3.org/2000/svg">
<path d="M154.331 10.8125H16.1562L33.6689 2H171.844L154.331 10.8125Z" fill="#D9D9D9" stroke="#B6BEC1" stroke-width="3"/>
<path d="M154.331 116.562H16.1562L33.6689 107.75H171.844L154.331 116.562Z" fill="#D9D9D9" stroke="#B6BEC1" stroke-width="3"/>
<path d="M154.331 63.6875H16.1562L33.6689 54.875H171.844L154.331 63.6875Z" fill="#D9D9D9" stroke="#B6BEC1" stroke-width="3"/>
<path d="M154.331 169.438H16.1562L33.6689 160.625H171.844L154.331 169.438Z" fill="#D9D9D9" stroke="#B6BEC1" stroke-width="3"/>
<path d="M153.24 10.8125V190" stroke="#B6BEC1" stroke-width="3"/>
<path d="M171.844 2L171.844 182.167" stroke="#B6BEC1" stroke-width="3"/>
<path d="M33.7812 2.979V182.167" stroke="#B6BEC1" stroke-width="3"/>
<path d="M16.1562 10.8125V190" stroke="#B6BEC1" stroke-width="3"/>
<path d="M56.5 39.3032H30.5V59.0002H56.5V39.3032Z" fill="#F5D8BD" stroke="#B6BEC1" stroke-width="1.57576" stroke-linejoin="round"/>
<path d="M62.5 33L56.5 39V59L62.5 53V33Z" fill="#F5D8BD" stroke="#B6BEC1" stroke-width="1.57576" stroke-linejoin="round"/>
<path d="M62.5 33H36.5L30.5 39.303H56.5L62.5 33Z" fill="#FFEBC5" stroke="#B6BEC1" stroke-width="1.57576" stroke-linejoin="round"/>
<path d="M45.5 33.7881H51.4394L47.4394 38.5154H41.5L45.5 33.7881Z" fill="#E3B589"/>
<path d="M95.5 39.3032H69.5V59.0002H95.5V39.3032Z" fill="#F5D8BD" stroke="#B6BEC1" stroke-width="1.57576" stroke-linejoin="round"/>
<path d="M101.5 33L95.5 39V59L101.5 53V33Z" fill="#F5D8BD" stroke="#B6BEC1" stroke-width="1.57576" stroke-linejoin="round"/>
<path d="M101.5 33H75.5L69.5 39.303H95.5L101.5 33Z" fill="#FFEBC5" stroke="#B6BEC1" stroke-width="1.57576" stroke-linejoin="round"/>
<path d="M84.5 33.7881H90.4394L86.4394 38.5154H80.5L84.5 33.7881Z" fill="#E3B589"/>
<path d="M134.5 39.3032H108.5V59.0002H134.5V39.3032Z" fill="#F5D8BD" stroke="#B6BEC1" stroke-width="1.57576" stroke-linejoin="round"/>
<path d="M140.5 33L134.5 39V59L140.5 53V33Z" fill="#F5D8BD" stroke="#B6BEC1" stroke-width="1.57576" stroke-linejoin="round"/>
<path d="M140.5 33H114.5L108.5 39.303H134.5L140.5 33Z" fill="#FFEBC5" stroke="#B6BEC1" stroke-width="1.57576" stroke-linejoin="round"/>
<path d="M123.5 33.7881H129.439L125.439 38.5154H119.5L123.5 33.7881Z" fill="#E3B589"/>
<path d="M56.5 92.3032H30.5V112H56.5V92.3032Z" fill="#F5D8BD" stroke="#B6BEC1" stroke-width="1.57576" stroke-linejoin="round"/>
<path d="M62.5 86L56.5 92V112L62.5 106V86Z" fill="#F5D8BD" stroke="#B6BEC1" stroke-width="1.57576" stroke-linejoin="round"/>
<path d="M62.5 86H36.5L30.5 92.303H56.5L62.5 86Z" fill="#FFEBC5" stroke="#B6BEC1" stroke-width="1.57576" stroke-linejoin="round"/>
<path d="M45.5 86.7881H51.4394L47.4394 91.5154H41.5L45.5 86.7881Z" fill="#E3B589"/>
<path d="M95.5 92.3032H69.5V112H95.5V92.3032Z" fill="#F5D8BD" stroke="#B6BEC1" stroke-width="1.57576" stroke-linejoin="round"/>
<path d="M101.5 86L95.5 92V112L101.5 106V86Z" fill="#F5D8BD" stroke="#B6BEC1" stroke-width="1.57576" stroke-linejoin="round"/>
<path d="M101.5 86H75.5L69.5 92.303H95.5L101.5 86Z" fill="#FFEBC5" stroke="#B6BEC1" stroke-width="1.57576" stroke-linejoin="round"/>
<path d="M84.5 86.7881H90.4394L86.4394 91.5154H80.5L84.5 86.7881Z" fill="#E3B589"/>
<path d="M134.5 92.3032H108.5V112H134.5V92.3032Z" fill="#F5D8BD" stroke="#B6BEC1" stroke-width="1.57576" stroke-linejoin="round"/>
<path d="M140.5 86L134.5 92V112L140.5 106V86Z" fill="#F5D8BD" stroke="#B6BEC1" stroke-width="1.57576" stroke-linejoin="round"/>
<path d="M140.5 86H114.5L108.5 92.303H134.5L140.5 86Z" fill="#FFEBC5" stroke="#B6BEC1" stroke-width="1.57576" stroke-linejoin="round"/>
<path d="M123.5 86.7881H129.439L125.439 91.5154H119.5L123.5 86.7881Z" fill="#E3B589"/>
<path d="M56.5 145.303H30.5V165H56.5V145.303Z" fill="#F5D8BD" stroke="#B6BEC1" stroke-width="1.57576" stroke-linejoin="round"/>
<path d="M62.5 139L56.5 145V165L62.5 159V139Z" fill="#F5D8BD" stroke="#B6BEC1" stroke-width="1.57576" stroke-linejoin="round"/>
<path d="M62.5 139H36.5L30.5 145.303H56.5L62.5 139Z" fill="#FFEBC5" stroke="#B6BEC1" stroke-width="1.57576" stroke-linejoin="round"/>
<path d="M45.5 139.788H51.4394L47.4394 144.515H41.5L45.5 139.788Z" fill="#E3B589"/>
<path d="M95.5 145.303H69.5V165H95.5V145.303Z" fill="#F5D8BD" stroke="#B6BEC1" stroke-width="1.57576" stroke-linejoin="round"/>
<path d="M101.5 139L95.5 145V165L101.5 159V139Z" fill="#F5D8BD" stroke="#B6BEC1" stroke-width="1.57576" stroke-linejoin="round"/>
<path d="M101.5 139H75.5L69.5 145.303H95.5L101.5 139Z" fill="#FFEBC5" stroke="#B6BEC1" stroke-width="1.57576" stroke-linejoin="round"/>
<path d="M84.5 139.788H90.4394L86.4394 144.515H80.5L84.5 139.788Z" fill="#E3B589"/>
<path d="M134.5 145.303H108.5V165H134.5V145.303Z" fill="#F5D8BD" stroke="#B6BEC1" stroke-width="1.57576" stroke-linejoin="round"/>
<path d="M140.5 139L134.5 145V165L140.5 159V139Z" fill="#F5D8BD" stroke="#B6BEC1" stroke-width="1.57576" stroke-linejoin="round"/>
<path d="M140.5 139H114.5L108.5 145.303H134.5L140.5 139Z" fill="#FFEBC5" stroke="#B6BEC1" stroke-width="1.57576" stroke-linejoin="round"/>
<path d="M123.5 139.788H129.439L125.439 144.515H119.5L123.5 139.788Z" fill="#E3B589"/>
<path opacity="0.9" d="M94 51C118.854 51 139 71.1465 139 96C139 120.854 118.854 141 94 141C69.1465 141 49 120.854 49 96C49 71.1465 69.1465 51 94 51Z" fill="#E62C27"/>
<path d="M89.8184 73H98.182L97.1365 106.455H90.8638L89.8184 73ZM94.0002 119C92.8911 119 91.8274 118.559 91.0432 117.775C90.2589 116.991 89.8184 115.927 89.8184 114.818C89.8184 113.709 90.2589 112.645 91.0432 111.861C91.8274 111.077 92.8911 110.636 94.0002 110.636C95.1093 110.636 96.1729 111.077 96.9572 111.861C97.7414 112.645 98.182 113.709 98.182 114.818C98.182 115.927 97.7414 116.991 96.9572 117.775C96.1729 118.559 95.1093 119 94.0002 119Z" fill="white"/>
</svg>
