<svg width="188" height="190" viewBox="0 0 188 190" fill="none" xmlns="http://www.w3.org/2000/svg">
<path d="M154.175 10.8125H16L33.5127 2H171.688L154.175 10.8125Z" fill="#D9D9D9" stroke="#B6BEC1" stroke-width="3"/>
<path d="M154.175 116.562H16L33.5127 107.75H171.688L154.175 116.562Z" fill="#D9D9D9" stroke="#B6BEC1" stroke-width="3"/>
<path d="M154.175 63.6875H16L33.5127 54.875H171.688L154.175 63.6875Z" fill="#D9D9D9" stroke="#B6BEC1" stroke-width="3"/>
<path d="M154.175 169.438H16L33.5127 160.625H171.688L154.175 169.438Z" fill="#D9D9D9" stroke="#B6BEC1" stroke-width="3"/>
<path d="M153.083 10.8125V190" stroke="#B6BEC1" stroke-width="3"/>
<path d="M171.688 2L171.688 182.167" stroke="#B6BEC1" stroke-width="3"/>
<path d="M33.625 2.979V182.167" stroke="#B6BEC1" stroke-width="3"/>
<path d="M16 10.8125V190" stroke="#B6BEC1" stroke-width="3"/>
<path d="M56.3438 39.3032H30.3438V59.0002H56.3438V39.3032Z" fill="#F5D8BD" stroke="#B6BEC1" stroke-width="1.57576" stroke-linejoin="round"/>
<path d="M62.3438 33L56.3438 39V59L62.3438 53V33Z" fill="#F5D8BD" stroke="#B6BEC1" stroke-width="1.57576" stroke-linejoin="round"/>
<path d="M62.3438 33H36.3438L30.3438 39.303H56.3438L62.3438 33Z" fill="#FFEBC5" stroke="#B6BEC1" stroke-width="1.57576" stroke-linejoin="round"/>
<path d="M45.3438 33.7881H51.2831L47.2831 38.5154H41.3438L45.3438 33.7881Z" fill="#E3B589"/>
<path d="M95.3438 39.3032H69.3438V59.0002H95.3438V39.3032Z" fill="#F5D8BD" stroke="#B6BEC1" stroke-width="1.57576" stroke-linejoin="round"/>
<path d="M101.344 33L95.3438 39V59L101.344 53V33Z" fill="#F5D8BD" stroke="#B6BEC1" stroke-width="1.57576" stroke-linejoin="round"/>
<path d="M101.344 33H75.3438L69.3438 39.303H95.3438L101.344 33Z" fill="#FFEBC5" stroke="#B6BEC1" stroke-width="1.57576" stroke-linejoin="round"/>
<path d="M84.3438 33.7881H90.2831L86.2831 38.5154H80.3438L84.3438 33.7881Z" fill="#E3B589"/>
<path d="M134.344 39.3032H108.344V59.0002H134.344V39.3032Z" fill="#F5D8BD" stroke="#B6BEC1" stroke-width="1.57576" stroke-linejoin="round"/>
<path d="M140.344 33L134.344 39V59L140.344 53V33Z" fill="#F5D8BD" stroke="#B6BEC1" stroke-width="1.57576" stroke-linejoin="round"/>
<path d="M140.344 33H114.344L108.344 39.303H134.344L140.344 33Z" fill="#FFEBC5" stroke="#B6BEC1" stroke-width="1.57576" stroke-linejoin="round"/>
<path d="M123.344 33.7881H129.283L125.283 38.5154H119.344L123.344 33.7881Z" fill="#E3B589"/>
<path d="M56.3438 92.3032H30.3438V112H56.3438V92.3032Z" fill="#F5D8BD" stroke="#B6BEC1" stroke-width="1.57576" stroke-linejoin="round"/>
<path d="M62.3438 86L56.3438 92V112L62.3438 106V86Z" fill="#F5D8BD" stroke="#B6BEC1" stroke-width="1.57576" stroke-linejoin="round"/>
<path d="M62.3438 86H36.3438L30.3438 92.303H56.3438L62.3438 86Z" fill="#FFEBC5" stroke="#B6BEC1" stroke-width="1.57576" stroke-linejoin="round"/>
<path d="M45.3438 86.7881H51.2831L47.2831 91.5154H41.3438L45.3438 86.7881Z" fill="#E3B589"/>
<path d="M95.3438 92.3032H69.3438V112H95.3438V92.3032Z" fill="#F5D8BD" stroke="#B6BEC1" stroke-width="1.57576" stroke-linejoin="round"/>
<path d="M101.344 86L95.3438 92V112L101.344 106V86Z" fill="#F5D8BD" stroke="#B6BEC1" stroke-width="1.57576" stroke-linejoin="round"/>
<path d="M101.344 86H75.3438L69.3438 92.303H95.3438L101.344 86Z" fill="#FFEBC5" stroke="#B6BEC1" stroke-width="1.57576" stroke-linejoin="round"/>
<path d="M84.3438 86.7881H90.2831L86.2831 91.5154H80.3438L84.3438 86.7881Z" fill="#E3B589"/>
<path d="M134.344 92.3032H108.344V112H134.344V92.3032Z" fill="#F5D8BD" stroke="#B6BEC1" stroke-width="1.57576" stroke-linejoin="round"/>
<path d="M140.344 86L134.344 92V112L140.344 106V86Z" fill="#F5D8BD" stroke="#B6BEC1" stroke-width="1.57576" stroke-linejoin="round"/>
<path d="M140.344 86H114.344L108.344 92.303H134.344L140.344 86Z" fill="#FFEBC5" stroke="#B6BEC1" stroke-width="1.57576" stroke-linejoin="round"/>
<path d="M123.344 86.7881H129.283L125.283 91.5154H119.344L123.344 86.7881Z" fill="#E3B589"/>
<path d="M56.3438 145.303H30.3438V165H56.3438V145.303Z" fill="#F5D8BD" stroke="#B6BEC1" stroke-width="1.57576" stroke-linejoin="round"/>
<path d="M62.3438 139L56.3438 145V165L62.3438 159V139Z" fill="#F5D8BD" stroke="#B6BEC1" stroke-width="1.57576" stroke-linejoin="round"/>
<path d="M62.3438 139H36.3438L30.3438 145.303H56.3438L62.3438 139Z" fill="#FFEBC5" stroke="#B6BEC1" stroke-width="1.57576" stroke-linejoin="round"/>
<path d="M45.3438 139.788H51.2831L47.2831 144.515H41.3438L45.3438 139.788Z" fill="#E3B589"/>
<path d="M95.3438 145.303H69.3438V165H95.3438V145.303Z" fill="#F5D8BD" stroke="#B6BEC1" stroke-width="1.57576" stroke-linejoin="round"/>
<path d="M101.344 139L95.3438 145V165L101.344 159V139Z" fill="#F5D8BD" stroke="#B6BEC1" stroke-width="1.57576" stroke-linejoin="round"/>
<path d="M101.344 139H75.3438L69.3438 145.303H95.3438L101.344 139Z" fill="#FFEBC5" stroke="#B6BEC1" stroke-width="1.57576" stroke-linejoin="round"/>
<path d="M84.3438 139.788H90.2831L86.2831 144.515H80.3438L84.3438 139.788Z" fill="#E3B589"/>
<path d="M134.344 145.303H108.344V165H134.344V145.303Z" fill="#F5D8BD" stroke="#B6BEC1" stroke-width="1.57576" stroke-linejoin="round"/>
<path d="M140.344 139L134.344 145V165L140.344 159V139Z" fill="#F5D8BD" stroke="#B6BEC1" stroke-width="1.57576" stroke-linejoin="round"/>
<path d="M140.344 139H114.344L108.344 145.303H134.344L140.344 139Z" fill="#FFEBC5" stroke="#B6BEC1" stroke-width="1.57576" stroke-linejoin="round"/>
<path d="M123.344 139.788H129.283L125.283 144.515H119.344L123.344 139.788Z" fill="#E3B589"/>
<path opacity="0.9" d="M94 51C118.854 51 139 71.1465 139 96C139 120.854 118.854 141 94 141C69.1465 141 49 120.854 49 96C49 71.1465 69.1465 51 94 51Z" fill="#0EBC5B"/>
<path d="M76.5405 99.4963L86.094 109.05L86.0895 109.041L114.728 80.4073C115.14 79.9678 115.637 79.6157 116.189 79.3719C116.74 79.1281 117.335 78.9977 117.938 78.9883C118.541 78.979 119.14 79.0909 119.698 79.3174C120.257 79.5439 120.765 79.8804 121.191 80.3069C121.617 80.7335 121.953 81.2413 122.179 81.8003C122.406 82.3592 122.517 82.958 122.507 83.5609C122.497 84.1638 122.367 84.7585 122.122 85.3099C121.878 85.8612 121.526 86.3579 121.086 86.7703L89.271 118.59C88.4271 119.433 87.2827 119.907 86.0895 119.907C84.8963 119.907 83.7519 119.433 82.908 118.59L70.1775 105.859C69.7477 105.444 69.4049 104.948 69.1691 104.399C68.9332 103.85 68.8091 103.259 68.8039 102.662C68.7987 102.064 68.9125 101.472 69.1388 100.919C69.3651 100.365 69.6992 99.8631 70.1217 99.4405C70.5442 99.018 71.0467 98.6839 71.5997 98.4576C72.1527 98.2314 72.7453 98.1175 73.3428 98.1227C73.9403 98.1279 74.5308 98.252 75.0798 98.4879C75.6288 98.7237 76.1254 99.0665 76.5405 99.4963Z" fill="white"/>
</svg>
