<svg width="250" height="250" viewBox="0 0 250 250" fill="none" xmlns="http://www.w3.org/2000/svg">
<path opacity="0.15" d="M175 91L193.748 73L213 90.9504L194.033 79.5376L175 91Z" fill="black"/>
<path d="M190 102H63V199H190V102Z" fill="#F5D8BD"/>
<path d="M177.457 72H75.5437L63 102H190L177.457 72Z" fill="#FFEBC5"/>
<path opacity="0.15" d="M190 191H63V199H190V191Z" fill="black"/>
<path opacity="0.4" d="M190 102H63V106H190V102Z" fill="white"/>
<path d="M190.555 200H63.4454C62.6466 200 62 199.355 62 198.56V102.44C62 101.644 62.6466 101 63.4454 101H190.555C191.352 101 192 101.644 192 102.44V198.559C192 199.355 191.352 200 190.555 200ZM64.8908 197.121H189.109V103.88H64.8908V197.121Z" fill="black"/>
<path d="M189.567 104H63.4347C62.9547 104 62.5053 103.756 62.2395 103.349C61.9737 102.942 61.9259 102.426 62.1123 101.976L74.5703 71.8926C74.7941 71.352 75.3152 71 75.8918 71H177.109C177.686 71 178.206 71.352 178.431 71.8926L190.888 101.976C191.074 102.426 191.027 102.941 190.761 103.349C190.496 103.756 190.048 104 189.567 104ZM65.5947 101.083H187.407L176.156 73.9168H76.8451L65.5947 101.083Z" fill="black"/>
<path d="M76 72.5511L51.5994 60L35 83.0368L63.3517 102L76 72.5511Z" fill="#FFEBC5"/>
<path d="M63.1881 104C62.9048 104 62.6244 103.913 62.3848 103.745L34.6224 84.2982C34.3058 84.0767 34.09 83.735 34.0225 83.3485C33.955 82.962 34.0406 82.5638 34.2611 82.2436L50.5156 58.619C50.9281 58.0197 51.7095 57.8265 52.3426 58.1681L76.2361 71.0394C76.8921 71.3927 77.1753 72.2029 76.8882 72.9037L64.5028 103.104C64.3364 103.509 64.0028 103.816 63.5921 103.94C63.459 103.98 63.3231 104 63.1881 104ZM37.4266 82.718L62.5512 100.317L73.7513 73.0071L52.1249 61.3569L37.4266 82.718Z" fill="black"/>
<path d="M201.583 59L216 85.5967L190.388 102L178 72.4131L201.583 59Z" fill="#FFEBC5"/>
<path d="M189.864 104C189.721 104 189.577 103.979 189.438 103.935C189.035 103.809 188.709 103.511 188.545 103.12L176.112 73.4484C175.831 72.7752 176.094 71.9975 176.728 71.6379L200.396 58.1865C200.731 57.9966 201.128 57.9497 201.493 58.0551C201.863 58.1616 202.174 58.4119 202.357 58.7504L216.826 85.423C217.185 86.0866 216.972 86.918 216.337 87.3246L190.633 103.775C190.402 103.924 190.134 104 189.864 104ZM179.245 73.5117L190.526 100.433L213.672 85.6196L200.539 61.4105L179.245 73.5117Z" fill="black"/>
<path d="M63.0291 102L57 122H197L189.631 102H63.0291Z" fill="#FFEBC5"/>
<path d="M197.558 124H57.4407C56.9845 124 56.5561 123.783 56.2842 123.417C56.0124 123.051 55.9298 122.575 56.0614 122.138L62.0955 102.028C62.279 101.417 62.8399 101 63.4758 101H190.184C190.788 101 191.327 101.378 191.536 101.947L198.911 122.056C199.074 122.499 199.011 122.995 198.741 123.382C198.471 123.769 198.029 124 197.558 124ZM59.3791 121.108H195.493L189.18 103.891H64.5459L59.3791 121.108Z" fill="black"/>
<path d="M178.552 74C178.547 74 178.539 74 178.533 74H75.4471C74.9397 74 74.4688 73.7275 74.2074 73.2797C73.9459 72.8328 73.9305 72.2789 74.1678 71.8172L79.3371 61.7907C79.5879 61.3042 80.0799 61 80.6163 61H170.552C170.986 61 171.397 61.2002 171.672 61.546L179.531 71.4168C179.82 71.6883 180 72.0787 180 72.5127C179.999 73.3341 179.353 74 178.552 74ZM77.8513 71.0274H175.481L169.866 63.9736H81.4875L77.8513 71.0274Z" fill="black"/>
<path opacity="0.15" d="M190 123H63V128H190V123Z" fill="black"/>
<path opacity="0.15" d="M71.8516 70L58 98.2231L63.5088 102L76 72.1881L71.8516 70Z" fill="black"/>
<path opacity="0.15" d="M178 72.6216L189.934 102L195 98.9122L181.852 70L178 72.6216Z" fill="black"/>
<path d="M181 83H72L84.394 51H168.759L181 83Z" fill="#E5F4E9"/>
<path d="M180.568 83.9996C180.563 83.9996 180.556 84.0005 180.549 83.9996H72.4322C71.9587 83.9996 71.5166 83.7679 71.2493 83.3812C70.983 82.9944 70.9257 82.5018 71.0985 82.065L83.3921 50.9021C83.6069 50.3584 84.1358 50 84.7258 50H168.408C169 50 169.531 50.3603 169.744 50.9077L181.806 81.8673C181.93 82.0773 182 82.3203 182 82.5812C182 83.3651 181.359 83.9996 180.568 83.9996ZM74.5287 81.1629H178.462L167.425 52.8367H85.7044L74.5287 81.1629Z" fill="black"/>
<path d="M181 83H72V102H181V83Z" fill="#C0E4C9"/>
<path d="M180.568 104H72.4323C71.6407 104 71 103.331 71 102.505V82.4953C71 81.6689 71.6407 81 72.4323 81H180.568C181.358 81 182 81.6689 182 82.4953V102.505C182 103.331 181.358 104 180.568 104ZM73.8646 101.009H179.135V83.9905H73.8646V101.009Z" fill="black"/>
<path opacity="0.2" d="M188 97H64V102H188V97Z" fill="black"/>
<path d="M153.191 142.261H136.276V159.21H153.191V142.261Z" fill="black"/>
<path d="M150.775 144.682H138.692V156.788H150.775V144.682Z" fill="white"/>
<path d="M148.358 147.104H141.109V154.367H148.358V147.104Z" fill="black"/>
<path d="M153.191 163.082H136.276V180.03H153.191V163.082Z" fill="black"/>
<path d="M150.775 165.503H138.692V177.609H150.775V165.503Z" fill="white"/>
<path d="M148.358 167.924H141.109V175.188H148.358V167.924Z" fill="black"/>
<path fill-rule="evenodd" clip-rule="evenodd" d="M161.684 163.082V167.099H166.283V175.937H161.684V179.954H157.085V175.133H161.684V167.902H157.085V163.082H161.684ZM173.947 171.92V179.954H166.283V175.937L170.115 175.937L170.115 171.92H173.947ZM173.947 163.082V167.099H170.115V163.082H173.947Z" fill="black"/>
<path d="M174 142.261H157.085V159.21H174V142.261Z" fill="black"/>
<path d="M171.584 144.682H159.501V156.788H171.584V144.682Z" fill="white"/>
<path d="M169.167 147.104H161.918V154.367H169.167V147.104Z" fill="black"/>
<g clip-path="url(#clip0_129273_15934)">
<mask id="path-33-inside-1_129273_15934" fill="white">
</mask>
<path d="M188.403 6.47223H226.528V0.472229H188.403V6.47223ZM243.528 23.4722V62.0313H249.528V23.4722H243.528ZM243.528 188.837V226.528H249.528V188.837H243.528ZM226.528 243.528H188.403V249.528H226.528V243.528ZM61.5972 243.528H23.4722V249.528H61.5972V243.528ZM6.47217 226.528V188.837H0.472168V226.528H6.47217ZM6.47217 62.0313V23.4722H0.472168V62.0313H6.47217ZM23.4722 6.47223H62.0312V0.472229H23.4722V6.47223ZM23.4722 243.528C14.0833 243.528 6.47217 235.917 6.47217 226.528H0.472168C0.472168 239.23 10.7696 249.528 23.4722 249.528V243.528ZM243.528 226.528C243.528 235.917 235.917 243.528 226.528 243.528V249.528C239.23 249.528 249.528 239.23 249.528 226.528H243.528ZM226.528 6.47223C235.917 6.47223 243.528 14.0834 243.528 23.4722H249.528C249.528 10.7697 239.23 0.472229 226.528 0.472229V6.47223ZM6.47217 23.4722C6.47217 14.0834 14.0833 6.47223 23.4722 6.47223V0.472229C10.7696 0.472229 0.472168 10.7697 0.472168 23.4722H6.47217Z" fill="#49B66B" mask="url(#path-33-inside-1_129273_15934)"/>
<rect y="120" width="250" height="6" fill="#49B66B"/>
<rect y="126" width="250" height="124" fill="url(#paint0_linear_129273_15934)"/>
</g>
<defs>
<linearGradient id="paint0_linear_129273_15934" x1="125" y1="126" x2="125" y2="196" gradientUnits="userSpaceOnUse">
<stop stop-color="white" stop-opacity="0.5"/>
<stop offset="1" stop-color="#98D3A7" stop-opacity="0"/>
<stop offset="1" stop-color="white" stop-opacity="0"/>
</linearGradient>
<clipPath id="clip0_129273_15934">
<rect width="250" height="250" fill="white"/>
</clipPath>
</defs>
</svg>
