<svg width="250" height="250" viewBox="0 0 250 250" fill="none" xmlns="http://www.w3.org/2000/svg">
<g clip-path="url(#clip0_129225_12966)">
<mask id="path-1-inside-1_129225_12966" fill="white">
</mask>
<path d="M188.403 6.47217H226.528V0.472168H188.403V6.47217ZM243.528 23.4722V62.0312H249.528V23.4722H243.528ZM243.528 188.837V226.528H249.528V188.837H243.528ZM226.528 243.528H188.403V249.528H226.528V243.528ZM61.5972 243.528H23.4722V249.528H61.5972V243.528ZM6.47223 226.528V188.837H0.472229V226.528H6.47223ZM6.47223 62.0312V23.4721H0.472229V62.0312H6.47223ZM23.4722 6.47217H62.0313V0.472168H23.4722V6.47217ZM23.4722 243.528C14.0834 243.528 6.47223 235.917 6.47223 226.528H0.472229C0.472229 239.23 10.7697 249.528 23.4722 249.528V243.528ZM243.528 226.528C243.528 235.917 235.917 243.528 226.528 243.528V249.528C239.23 249.528 249.528 239.23 249.528 226.528H243.528ZM226.528 6.47217C235.917 6.47217 243.528 14.0833 243.528 23.4722H249.528C249.528 10.7696 239.23 0.472168 226.528 0.472168V6.47217ZM6.47223 23.4721C6.47223 14.0833 14.0834 6.47217 23.4722 6.47217V0.472168C10.7697 0.472168 0.472229 10.7696 0.472229 23.4721H6.47223Z" fill="#00893D" mask="url(#path-1-inside-1_129225_12966)"/>
<rect x="1.5" y="121.5" width="247" height="3" fill="#00893D" stroke="#00893D" stroke-width="3"/>
<rect y="126" width="250" height="121" fill="url(#paint0_linear_129225_12966)"/>
</g>
<defs>
<linearGradient id="paint0_linear_129225_12966" x1="125" y1="126" x2="125" y2="194.306" gradientUnits="userSpaceOnUse">
<stop stop-color="#98D3A7" stop-opacity="0.5"/>
<stop offset="1" stop-color="#98D3A7" stop-opacity="0"/>
</linearGradient>
<clipPath id="clip0_129225_12966">
<rect width="250" height="250" fill="white"/>
</clipPath>
</defs>
</svg>
