<svg width="28" height="28" viewBox="0 0 28 28" fill="none" xmlns="http://www.w3.org/2000/svg">
<path d="M4.66668 7.00065H2.33334V23.334C2.33334 24.6173 3.38334 25.6673 4.66668 25.6673H21V23.334H4.66668V7.00065ZM23.3333 2.33398H9.33334C8.05001 2.33398 7.00001 3.38398 7.00001 4.66732V18.6673C7.00001 19.9507 8.05001 21.0007 9.33334 21.0007H23.3333C24.6167 21.0007 25.6667 19.9507 25.6667 18.6673V4.66732C25.6667 3.38398 24.6167 2.33398 23.3333 2.33398ZM22.1667 12.834H10.5V10.5007H22.1667V12.834ZM17.5 17.5007H10.5V15.1673H17.5V17.5007ZM22.1667 8.16732H10.5V5.83398H22.1667V8.16732Z" fill="#414546"/>
</svg>
