<svg width="24" height="24" viewBox="0 0 24 24" fill="none" xmlns="http://www.w3.org/2000/svg">
<path d="M2.66668 5.00065H0.333344V21.334C0.333344 22.6173 1.38334 23.6673 2.66668 23.6673H19V21.334H2.66668V5.00065ZM21.3333 0.333984H7.33334C6.05001 0.333984 5.00001 1.38398 5.00001 2.66732V16.6673C5.00001 17.9507 6.05001 19.0007 7.33334 19.0007H21.3333C22.6167 19.0007 23.6667 17.9507 23.6667 16.6673V2.66732C23.6667 1.38398 22.6167 0.333984 21.3333 0.333984ZM20.1667 10.834H8.50001V8.50065H20.1667V10.834ZM15.5 15.5007H8.50001V13.1673H15.5V15.5007ZM20.1667 6.16732H8.50001V3.83398H20.1667V6.16732Z" fill="#414546"/>
</svg>