<svg width="40" height="40" viewBox="0 0 40 40" fill="none" xmlns="http://www.w3.org/2000/svg">
<rect width="40" height="40" rx="20" fill="#DDE3E6"/>
<g clip-path="url(#clip0_132868_9988)">
<path d="M20 8C13.3733 8 8 13.3733 8 20H4L9.18667 25.1867L9.28 25.3733L14.6667 20H10.6667C10.6667 14.84 14.84 10.6667 20 10.6667C25.16 10.6667 29.3333 14.84 29.3333 20C29.3333 25.16 25.16 29.3333 20 29.3333C17.4267 29.3333 15.0933 28.28 13.4133 26.5867L11.52 28.48C13.6933 30.6533 16.68 32 20 32C26.6267 32 32 26.6267 32 20C32 13.3733 26.6267 8 20 8ZM18.6667 14.6667V21.3333L24.3733 24.72L25.3333 23.1067L20.6667 20.3333V14.6667H18.6667Z" fill="#646464"/>
</g>
<defs>
<clipPath id="clip0_132868_9988">
<rect width="32" height="32" fill="white" transform="translate(2 4)"/>
</clipPath>
</defs>
</svg>
