<svg width="36" height="36" viewBox="0 0 36 36" fill="none" xmlns="http://www.w3.org/2000/svg">
<path d="M33.9506 32.2591C33.9706 32.4806 33.9441 32.7038 33.8729 32.9145C33.8016 33.1252 33.6871 33.3187 33.5368 33.4826C33.3864 33.6465 33.2035 33.7772 32.9997 33.8663C32.7959 33.9554 32.5758 34.0009 32.3534 34H3.60369C3.38128 34.0009 3.16113 33.9554 2.95734 33.8663C2.75356 33.7772 2.57063 33.6465 2.42027 33.4826C2.26991 33.3187 2.15544 33.1252 2.08418 32.9145C2.01293 32.7038 1.98646 32.4806 2.00648 32.2591L3.60369 10.3694C3.62617 9.9612 3.80432 9.57716 4.10146 9.29638C4.39859 9.01559 4.79208 8.85942 5.20089 8.86004H10.5835V12.853C10.301 13.2033 10.1068 13.6162 10.017 14.0571C9.92731 14.498 9.94472 14.9539 10.0678 15.3867C10.1909 15.8195 10.416 16.2164 10.7244 16.544C11.0327 16.8717 11.4151 17.1206 11.8396 17.2698C12.2641 17.419 12.7182 17.4641 13.1637 17.4013C13.6092 17.3386 14.0332 17.1698 14.3999 16.9092C14.7667 16.6486 15.0655 16.3037 15.2714 15.9036C15.4772 15.5035 15.584 15.0599 15.5827 14.61C15.5831 13.9864 15.372 13.381 14.9838 12.893V8.86004H20.9653V12.893C20.5771 13.3805 20.3684 13.9868 20.3743 14.61C20.4127 15.3306 20.7261 16.0092 21.2498 16.5057C21.7735 17.0023 22.4677 17.279 23.1894 17.279C23.9111 17.279 24.6053 17.0023 25.129 16.5057C25.6527 16.0092 25.9661 15.3306 26.0045 14.61C26.0049 13.9864 25.7937 13.381 25.4055 12.893V8.86004H30.7562C31.165 8.85942 31.5585 9.01559 31.8556 9.29638C32.1527 9.57716 32.3309 9.9612 32.3534 10.3694L33.9506 32.2591ZM24.7906 14.61C24.7888 14.8805 24.7184 15.1462 24.5859 15.382C24.4534 15.6179 24.2631 15.8162 24.0329 15.9584C23.8028 16.1006 23.5403 16.182 23.2701 16.195C22.9998 16.208 22.7307 16.1521 22.488 16.0326C22.2453 15.9131 22.0369 15.7339 21.8824 15.5119C21.7279 15.2898 21.6323 15.0321 21.6046 14.763C21.5769 14.4939 21.6181 14.2222 21.7241 13.9733C21.8302 13.7244 21.9978 13.5066 22.2111 13.3402C22.2066 13.2791 22.2066 13.2177 22.2111 13.1565V8.21317C22.211 7.09915 21.7684 6.0308 20.9806 5.2431C20.1929 4.4554 19.1245 4.01289 18.0105 4.01289C16.8964 4.01289 15.8281 4.4554 15.0403 5.2431C14.2525 6.0308 13.8099 7.09915 13.8098 8.21317V13.1565C13.8143 13.2177 13.8143 13.2791 13.8098 13.3402C14.0751 13.5431 14.2701 13.824 14.3674 14.1434C14.4647 14.4629 14.4595 14.8048 14.3524 15.1211C14.2453 15.4374 14.0417 15.7122 13.7704 15.9068C13.499 16.1014 13.1735 16.2061 12.8395 16.2061C12.5056 16.2061 12.18 16.1014 11.9087 15.9068C11.6373 15.7122 11.4338 15.4374 11.3267 15.1211C11.2196 14.8048 11.2143 14.4629 11.3116 14.1434C11.409 13.824 11.604 13.5431 11.8692 13.3402C11.8647 13.2791 11.8647 13.2177 11.8692 13.1565V8.21317C11.8693 6.56542 12.524 4.98521 13.6892 3.82011C14.8543 2.65502 16.4346 2.00049 18.0823 2.00049C19.7301 2.00049 21.3104 2.65502 22.4755 3.82011C23.6407 4.98521 24.2953 6.56542 24.2955 8.21317V13.1565C24.2868 13.2187 24.2735 13.2801 24.2555 13.3402C24.4338 13.4985 24.5745 13.6947 24.667 13.9144C24.7596 14.1341 24.8018 14.3718 24.7906 14.61Z" fill="#646464"/>
<path d="M13.9383 27.3305L15.871 24.6642H14.5283C14.609 23.7889 15.0013 22.9647 15.6418 22.3248C16.2824 21.6848 17.1337 21.2664 18.0584 21.1371C18.9831 21.0078 19.9272 21.1752 20.7383 21.6122C21.5493 22.0492 22.1799 22.7303 22.5283 23.5455C22.8768 24.3608 22.9226 25.2626 22.6585 26.1054C22.3944 26.9482 21.8357 27.6827 21.0727 28.1904C20.3097 28.698 19.3869 28.9492 18.4533 28.9034C17.5197 28.8575 16.6298 28.5173 15.9272 27.9377L15.2193 28.7983C16.1293 29.5304 17.2756 29.9525 18.4727 29.9962C19.6697 30.04 20.8474 29.7028 21.8152 29.0393C22.783 28.3758 23.4842 27.4248 23.8053 26.3403C24.1264 25.2557 24.0486 24.101 23.5846 23.0631C23.1205 22.0253 22.2974 21.1649 21.2483 20.6214C20.1992 20.0779 18.9857 19.8829 17.804 20.0681C16.6224 20.2534 15.5419 20.8079 14.7373 21.642C13.9328 22.4761 13.4513 23.5409 13.3709 24.6642H12L13.9383 27.3305Z" fill="white"/>
</svg>
