<svg width="140" height="140" viewBox="0 0 140 140" fill="none" xmlns="http://www.w3.org/2000/svg">
<path opacity="0.2" d="M138.889 50.4214L117.639 16.9108C115.775 13.9907 111.905 13.1287 108.967 14.9582L2.91173 82.0498C-0.00835263 83.9144 -0.870306 87.7844 0.959145 90.7045L22.2265 124.215C24.0911 127.135 27.9611 127.997 30.8812 126.15L136.937 59.0585C139.857 57.2114 140.736 53.3415 138.889 50.4214ZM134.65 55.4699L28.5944 122.562C27.6621 123.16 26.4307 122.878 25.8326 121.946L4.58287 88.4352C3.98478 87.5029 4.26623 86.2716 5.19855 85.6735L111.254 18.5819C112.186 18.0014 113.418 18.2652 113.998 19.2152L135.248 52.7258C135.846 53.6229 135.582 54.8543 134.65 55.4699ZM43.23 34.2026L44.9891 38.4244L47.2759 34.4664L51.832 34.097L48.7536 30.702L49.7914 26.2515L45.64 28.1337L41.7172 25.759L42.2097 30.315L38.7443 33.2703L43.23 34.2026ZM70.232 21.6251L68.0332 17.5968L66.1861 21.801L61.6828 22.663L65.0779 25.7062L64.4974 30.2446L68.4729 27.9578L72.6068 29.928L71.6569 25.4423L74.788 22.1176L70.232 21.6251ZM111.395 88.9982L107.771 86.2188L107.753 90.7924L103.971 93.3607L108.334 94.8031L109.618 99.1833L112.327 95.4892L116.901 95.6123L114.209 91.9007L115.757 87.6085L111.395 88.9982ZM96.6007 107.205L94.8768 102.965L92.5548 106.906L87.9988 107.24L91.042 110.653L89.9514 115.085L94.138 113.256L98.0432 115.684L97.5858 111.127L101.051 108.172L96.6007 107.205ZM69.4932 119.589L71.6569 123.635L73.5567 119.466L78.06 118.656L74.6825 115.56L75.2982 111.022L71.3051 113.274L67.1888 111.286L68.1035 115.754L64.9372 119.079L69.4932 119.589ZM28.8935 51.899L32.4996 54.7311L32.5524 50.1575L36.352 47.6068L32.007 46.1468L30.7581 41.7491L28.0139 45.408L23.4403 45.2497L26.0965 48.9789L24.5133 53.2711L28.8935 51.899ZM12.7978 71.636C12.3229 52.286 21.734 33.1471 39.2721 22.0649C56.8102 10.9826 78.1303 10.666 95.4573 19.3559L99.644 16.7173C94.525 13.8499 89.0015 11.7566 83.1965 10.4549C75.4389 8.7134 67.5406 8.48472 59.7303 9.76886C51.6385 11.1058 43.9864 14.0258 37.0029 18.4587C30.0193 22.8916 24.1087 28.5383 19.4296 35.2756C14.9087 41.7667 11.7248 49.0141 9.98326 56.7541C8.68154 62.5591 8.22418 68.4344 8.62877 74.2922L12.7978 71.636ZM126.681 68.6807C127.174 88.0307 117.763 107.17 100.242 118.252C82.7039 129.352 61.3838 129.668 44.0744 120.978L39.8878 123.635C45.0067 126.484 50.5302 128.595 56.3352 129.897C64.0928 131.638 71.9911 131.867 79.8015 130.583C87.8933 129.246 95.5453 126.326 102.511 121.911C109.495 117.478 115.405 111.831 120.085 105.094C124.588 98.5852 127.772 91.3553 129.513 83.6153C130.815 77.8104 131.272 71.935 130.868 66.0772L126.681 68.6807ZM51.9023 42.0305C56.8102 38.9345 62.2106 37.281 67.6462 36.9468L74.1196 32.8481C65.5704 31.8454 57.0037 33.7628 49.6155 38.4244C42.2449 43.086 36.8445 50.0168 34.1004 58.1614L40.5738 54.0627C43.1948 49.2956 46.9945 45.1265 51.9023 42.0305ZM87.5766 98.3037C82.6688 101.417 77.2684 103.071 71.8504 103.387L65.3769 107.486C73.9261 108.489 82.4929 106.571 89.881 101.892C97.2516 97.2307 102.652 90.2999 105.396 82.1553L98.9227 86.254C96.3017 91.0211 92.4845 95.1901 87.5766 98.3037Z" fill="#1D9BB2"/>
<path opacity="0.76" d="M30.375 83.1469L34.4109 89.5447C36.7171 93.2006 39.6931 98.4513 39.3258 103.626C40.037 103.58 41.539 103.776 42.2121 103.99C42.6264 98.5174 39.4901 92.4264 36.9652 88.3705L54.2104 77.4919L52.8297 75.3032L35.5845 86.1818L33.9156 83.5361C39.13 79.8096 44.67 75.3734 48.314 71.6626L45.2457 71.0092C42.0764 74.3533 35.911 79.184 30.375 83.1469ZM40.6301 90.396L47.1846 100.786L49.4695 99.345L48.7412 98.1905L57.905 92.4098L58.6029 93.5162L61.0081 91.999L54.484 81.6567L40.6301 90.396ZM47.3909 96.0499L44.2502 91.0711L53.414 85.2905L56.5546 90.2692L47.3909 96.0499ZM66.1794 60.5945L75.389 75.194L77.5056 73.8589L68.2959 59.2594L66.1794 60.5945ZM69.7316 55.832L81.5963 74.6406C81.8543 75.0495 81.8099 75.2456 81.4162 75.5276C80.9832 75.8007 79.6844 76.62 78.2831 77.4367C78.9992 77.8256 80.0212 78.593 80.4967 79.1336C82.3006 77.9957 83.5931 77.1131 84.2074 76.2213C84.7735 75.3598 84.6284 74.5435 83.8091 73.2447L71.9443 54.4362L69.7316 55.832ZM63.0372 86.3144L64.8774 88.1124C67.7362 85.502 71.7599 81.7534 75.5253 78.235L74.1217 76.3297L69.8246 80.2844L67.7004 76.9172L72.3184 74.0041L71.0591 72.0078L66.4411 74.9209L64.9391 72.5397L62.7984 73.8901L64.3005 76.2712L59.7066 79.1691L60.9659 81.1654L65.5598 78.2675L67.9115 81.9955C66.0706 83.6611 64.3918 85.1573 63.0372 86.3144ZM58.6782 76.153C59.1607 75.4788 60.038 74.7908 66.811 69.6441C67.403 69.9431 67.947 70.2724 68.3822 70.5359L69.3856 68.289C67.8322 67.3188 64.9033 66.1403 62.588 65.3482L61.5593 67.3419C62.5133 67.6816 63.552 68.1023 64.5578 68.5774L59.461 72.3305C59.6075 70.5906 59.563 68.6012 59.3805 66.7662L65.8745 62.6697L64.6152 60.6734L52.1564 68.5327L53.4157 70.529L56.8791 68.3442C57.1616 70.2843 57.1542 72.1381 57.1387 72.7531C57.0788 73.5643 56.9519 74.2159 56.6518 74.5397C57.2564 74.9652 58.2696 75.7719 58.6782 76.153ZM75.9851 54.0727C77.6548 55.4403 79.6101 57.3674 80.647 58.7979L82.1145 57.2333C81.0055 55.8483 79.0894 53.9301 77.3387 52.6472L75.9851 54.0727ZM83.4682 48.6125C84.2416 50.4782 85.1095 53.2931 85.521 55.1181L87.2613 54.6255C86.9826 52.8512 86.2868 50.0959 85.7439 47.8494L83.4682 48.6125ZM87.8646 48.2264C89.7817 48.2275 92.2758 48.5034 93.622 48.9319L93.7233 46.4808C92.3531 46.0675 89.8956 45.9029 88.024 45.974L87.8646 48.2264ZM90.5095 55.0309C92.4444 54.9535 94.9891 55.0967 96.3923 55.4555L96.3697 52.9145C94.9576 52.5948 92.4647 52.5872 90.5753 52.7367L90.5095 55.0309ZM79.773 60.2906L81.1082 62.4072L84.2109 60.45C84.9799 63.428 85.4056 67.1942 85.0993 69.6402C85.8394 70.0139 87.0058 70.6903 87.6471 71.2272C87.7913 68.9507 87.3349 65.7754 86.614 62.7671L92.516 72.1232L94.6326 70.7881L88.7761 61.5041C90.4131 62.287 92.2981 63.2498 93.2292 63.8729L93.5736 61.1675C92.5893 60.7798 88.3749 59.269 87.183 58.9786L87.0009 58.69L90.7771 56.3079L89.4419 54.1914L85.6657 56.5734L80.6437 48.6123L78.5271 49.9474L83.5492 57.9086L79.773 60.2906ZM93.9 61.3651L95.5959 63.2541L101.944 57.4339L105.904 63.7115L108.069 62.346L103.866 55.6836L106.523 53.2339L104.852 51.3297L102.485 53.4949L94.004 40.0499L91.8393 41.4154L100.563 55.2452L93.9 61.3651Z" fill="#1D9BB2"/>
</svg>
